<svg xmlns="http://www.w3.org/2000/svg" viewBox="0 0 989.28 273.49"><path d="M582.87,0H532.24a3.3,3.3,0,0,0-3.07,3.07l1.15,131.18-.11,13C520.07,96.56,486.14,66,431.37,66c-38,0-66.8,15.14-83.61,41V74A3.31,3.31,0,0,0,344.69,71h-44.5l.39-46.41a3.3,3.3,0,0,0-3.07-3.07h-51.4A3.29,3.29,0,0,0,243,24.55L243.42,71H220.79A3.31,3.31,0,0,0,217.72,74v34.52a3.3,3.3,0,0,0,3.07,3.07h22.63l-.38,99c0,.59,0,1.17,0,1.76l-71-209.27A4.5,4.5,0,0,0,167.87,0H95.37a4.49,4.49,0,0,0-4.22,3.07L.24,265.43a2.1,2.1,0,0,0,1.92,3.07H55.48a3.72,3.72,0,0,0,3.83-3.07l20.33-65.2h100.5l21.1,65.2a3.73,3.73,0,0,0,3.83,3.07H334.93c3.21-.83,6.35-1.73,9.37-2.67a4.49,4.49,0,0,0,3.07-4.22V232c16.57,25.66,45.34,41.45,85.15,41.45,55.62,0,90.14-32.22,94.74-68.66a2.71,2.71,0,0,0-2.68-3.07h-49.1a4,4,0,0,0-3.84,3.07c-5,21.48-18.79,30.3-38.35,30.3-27.62,0-42.2-16.49-44.5-53.7H529.91l-.74,84a3.3,3.3,0,0,0,3.07,3.07h50.63a3.29,3.29,0,0,0,3.07-3.07l-1.15-131.18L585.94,3.07A3.29,3.29,0,0,0,582.87,0Zm-489,153.81,34.9-114.69,36.83,114.69Zm250.46,74a70,70,0,0,1-22.63,3.46c-12.65,0-21.09-5.37-21.09-22.25l-.39-97.43h44.5a2.3,2.3,0,0,0,.26,0c-9.19,16.16-14.08,36-14.08,58.72,0,21.77,4.73,41.36,13.92,57.47A2.85,2.85,0,0,0,344.3,227.84Zm46-82.85c4.6-27.23,18.41-41,41.42-41,25.32,0,37.21,20,39.51,41Z"/><rect x="594.37" width="58.3" height="51.78" rx="3.07"/><path d="M971.8,112.77a51.87,51.87,0,0,1,7.67.38,3,3,0,0,0,3.07-2.68V74a4.57,4.57,0,0,0-3.07-3.84,69.31,69.31,0,0,0-9.2-.76c-28.77,0-55.24,11.5-70.58,34.9L901.22,74A3.3,3.3,0,0,0,898.15,71h-51A3.3,3.3,0,0,0,844.07,74l.77,64c-12.29-45.14-45.31-72-96.66-72-50.19,0-84.27,26.37-96,69L652.68,74A3.31,3.31,0,0,0,649.61,71H597.44A3.31,3.31,0,0,0,594.37,74l.77,95.89-.77,95.51a3.3,3.3,0,0,0,3.07,3.07h52.17a3.3,3.3,0,0,0,3.07-3.07L652.19,205c11.5,41.2,44.77,68.51,97.14,68.51,55.62,0,90.14-32.22,94.75-68.66a2.72,2.72,0,0,0-2.69-3.07h-49.1a4,4,0,0,0-3.83,3.07c-5,21.48-18.8,30.3-38.36,30.3-27.62,0-42.19-16.49-44.5-53.7H845.08l-1,84a3.29,3.29,0,0,0,3.07,3.07h51a3.29,3.29,0,0,0,3.07-3.07V180.66C901.22,135.4,931.14,112.77,971.8,112.77ZM707.14,145c4.6-27.23,18.41-41,41.43-41,25.31,0,37.2,20,39.5,41Z"/><path d="M952.25,190.58c-22.68,0-37.23,15-37.23,38.52,0,22.47,14.76,38.09,37.23,38.09s37-15.62,37-38.09C989.28,205.35,974.51,190.58,952.25,190.58Zm0,68.91c-18.4,0-28.67-11.56-28.67-30.39,0-19.26,9.84-30.82,28.67-30.82,18.41,0,28.47,12,28.47,30.82S970.44,259.49,952.25,259.49Z"/><path d="M960.39,232.74c6-1.93,9.41-6,9.41-12,0-8.56-6.63-13.05-18.19-13.05H935.78a1.85,1.85,0,0,0-1.72,1.71v38.52a1.84,1.84,0,0,0,1.72,1.71h7.49a1.84,1.84,0,0,0,1.71-1.71V234h3.85l4.28,6.21,4.71,7.92a3,3,0,0,0,2.57,1.49h9.2a1,1,0,0,0,.85-1.49ZM952,226.53H945V215.4h6.85c4.7,0,7.27,1.72,7.27,5.57S955.89,226.53,952,226.53Z"/></svg>