<?xml version="1.0" encoding="utf-8"?>
<!-- Generator: Adobe Illustrator 26.0.1, SVG Export Plug-In . SVG Version: 6.00 Build 0)  -->
<svg version="1.1" id="Layer_1" xmlns="http://www.w3.org/2000/svg" xmlns:xlink="http://www.w3.org/1999/xlink" x="0px" y="0px"
	 viewBox="0 0 122.6 25" xml:space="preserve" style="color: currentColor">
<g>
	<g>
		<g>
			<path d="M22.8,0.6c3.3,0,5.9,2.7,5.9,5.9v11.9c0,3.3-2.7,5.9-5.9,5.9H10c-3.3,0-5.9-2.7-5.9-5.9V6.5c0-3.3,2.7-5.9,5.9-5.9
				L22.8,0.6 M22.8,0.1H10C6.4,0.1,3.6,3,3.6,6.5v11.9c0,3.5,2.9,6.4,6.4,6.4h12.8c3.5,0,6.4-2.9,6.4-6.4V6.5
				C29.1,3,26.2,0.1,22.8,0.1L22.8,0.1z"/>
		</g>
		<path d="M14,18.5c0-0.2,0.1-0.4,0.1-0.5c0.1-0.3,0.2-0.5,0.3-0.7c0-0.1,0-0.1,0.1-0.1c0.1-0.1,0.2-0.3,0.3-0.5
			c0.1-0.1,0.1-0.2,0.2-0.3c0.1-0.1,0.1-0.1,0.3-0.1c0.3,0.1,0.7,0.1,1-0.1c0.2-0.1,0.4-0.2,0.6-0.3c0.3-0.2,0.7-0.3,1.1-0.3
			c0.1,0,0.1,0,0.1,0c0.3-0.1,0.7-0.3,1.1-0.4c0.4-0.1,0.8-0.3,1.1-0.6c0.2-0.2,0.4-0.4,0.7-0.5c0.3-0.1,0.4-0.3,0.6-0.5
			c0.1-0.1,0.1-0.2,0.1-0.3c0.1-0.3,0.1-0.3,0.2-0.3c0.2,0.1,0.5,0.1,0.7,0.3c0.1,0,0.1,0.1,0.1,0.1c0.1,0.3,0.3,0.6,0.4,0.9
			s0,0.6-0.3,0.8c-0.1,0.1-0.3,0.3-0.4,0.5c-0.1,0.1-0.1,0.1-0.1,0.2c-0.2,0.5-0.5,0.9-0.9,1.1c-0.3,0.2-0.6,0.5-0.9,0.7
			c-0.3,0.2-0.6,0.5-0.9,0.6c-0.1,0-0.1,0.1-0.1,0.1c-0.3,0.3-0.5,0.4-0.9,0.5c-0.2,0.1-0.4,0.1-0.6,0.2c-0.3,0.1-0.5,0.2-0.7,0.3
			c-0.1,0.1-0.3,0.1-0.5,0.1s-0.3,0.1-0.5,0.1c-0.3,0.1-0.5,0.1-0.7,0.2c-0.1,0.1-0.1,0.1-0.2,0c-0.1-0.1-0.3-0.1-0.4-0.2
			C14.4,19.3,14.2,19,14,18.5C14,18.5,14,18.5,14,18.5z"/>
		<path d="M12.1,17.4c-0.1,0.1-0.1,0.3-0.3,0.3c-0.6,0.5-1.3,0.9-2.2,1.1c-0.1,0-0.3,0.1-0.3,0.1c-0.5,0.3-0.9,0.5-1.3,0.8
			c-0.2,0.1-0.4,0.1-0.6,0c-0.1-0.1-0.3-0.2-0.5-0.2c-0.1,0-0.1-0.1-0.1-0.1c-0.1-0.1-0.2-0.3-0.4-0.5c-0.1-0.1-0.2-0.1-0.3-0.2
			s0-0.2,0-0.3c0-0.2-0.1-0.3-0.1-0.5C6,17.8,6,17.7,6,17.6c0-0.1,0-0.3,0.1-0.4c0.1-0.1,0.2-0.3,0.2-0.5c0.1-0.2,0.1-0.4,0.3-0.6
			c0.3-0.3,0.5-0.6,0.7-0.9c0.3-0.3,0.5-0.5,0.7-0.9c0.2-0.2,0.4-0.5,0.6-0.7c0.2-0.2,0.5-0.3,0.7-0.5c0.1-0.1,0.2,0,0.3,0.1
			c0.1,0.3,0.1,0.4,0.1,0.5c0,0.2,0,0.4,0.2,0.5c0.1,0.1,0.1,0.1,0.1,0.2c0,0.2,0,0.4-0.1,0.6s-0.1,0.4,0.1,0.6
			c0.1,0.1,0.1,0.3,0.2,0.3c0.2,0.3,0.4,0.5,0.9,0.4c0.1,0,0.2,0,0.3,0c0.1,0.1,0.2,0.1,0.1,0.2c0,0.1-0.1,0.1-0.1,0.1
			c0,0.1-0.1,0.1-0.1,0.1c-0.1,0.2,0,0.3,0.1,0.3s0.3,0.1,0.5,0.1C11.9,17.3,12,17.3,12.1,17.4z"/>
		<path d="M26.7,9.1c-0.1,0.4-0.3,0.7-0.6,0.8c-0.3,0.1-0.5,0.2-0.8,0.3c-0.4,0.1-0.7,0.1-1.1,0.3c-0.1,0-0.1,0-0.1,0
			c-0.3,0-0.5-0.1-0.8-0.2c0,0,0-0.1,0.1-0.1c0.5-0.3,0.9-0.5,1.4-0.6c0.1-0.1,0.2,0,0.3,0.1c0.1,0.1,0.3,0.1,0.5,0.1
			c0.3-0.1,0.5-0.3,0.7-0.4C26.2,9.2,26.4,9.1,26.7,9.1z"/>
		<path d="M28.7,7L28.7,7V6.7c0-0.8-0.1-1.6-0.5-2.3c-0.3,0.1-0.7,0.3-1,0.5c-1.9,1-3.6,2.3-5.4,3.5C21,8.8,20.4,9.4,19.6,10
			c-0.7,0.5-1.3,1-2.1,1.3c-0.1,0.1-0.1,0.1-0.2,0.1c-0.2,0-0.3,0.1-0.5,0.1c-0.1,0.1-0.2,0.1-0.3,0.1c-0.3,0.1-0.5,0-0.6-0.3
			c-0.1-0.2-0.1-0.3-0.2-0.5c-0.2-0.7-0.4-1.3-0.7-2c-0.2-0.5-0.5-1-0.8-1.5c-0.2-0.3-0.4-0.3-0.7-0.1c-0.1,0.1-0.2,0.1-0.3,0.2
			c-0.1,0.1-0.2,0.1-0.3,0.1c-0.1-0.1-0.1-0.1-0.1-0.2c0.1-0.1,0.2-0.2,0.3-0.3C13.4,7,13.5,7,13.6,6.9c0-0.1-0.1-0.1-0.1-0.2
			c-0.1-0.1-0.3-0.3-0.5-0.4c-0.5-0.3-1.1-0.5-1.6-0.5c-0.3,0-0.6-0.1-0.9-0.1C10.2,5.9,10,5.9,9.8,6.2C9.7,6.4,9.6,6.6,9.6,6.8
			c0,0.1,0,0.1,0,0.2c0.1,0.1,0.1,0.2,0.1,0.3c0.1,0.9-0.3,1.8-0.8,2.5c-0.1,0.2-0.2,0.3-0.2,0.5c0,0.1,0,0.1,0,0.2
			c-0.1,0.3-0.3,0.5-0.3,0.7C8.2,11.5,8.1,11.8,8,12C8,12.3,8,12.6,8,12.9c0.1,0.1,0.2,0.3,0.3,0.3c0.1,0,0.2,0,0.3,0
			c0.3-0.1,0.5-0.1,0.7-0.1c0.1,0,0.3-0.1,0.3-0.3c0.1-0.1,0.1-0.2,0.1-0.3c0-0.1,0-0.2,0-0.3c0-0.3,0.1-0.5,0.3-0.5
			c0.1-0.1,0.1-0.1,0.2-0.1s0.1-0.1,0-0.2c-0.1-0.1-0.1-0.3-0.1-0.4c0.1-0.1,0.1-0.3,0.2-0.3c0.1-0.1,0.3-0.1,0.4-0.3
			c0.1-0.1,0.3-0.1,0.3-0.2c0.1-0.1,0.1-0.1,0-0.3C11,9.6,11,9.5,11.1,9.3c0.1-0.1,0.1-0.2,0.2-0.3c0.3-0.3,0.6-0.4,0.9-0.5
			c0.2-0.1,0.4,0,0.5,0.2c0.1,0.1,0.1,0.3,0,0.5s-0.2,0.3-0.3,0.3c-0.1,0.1-0.1,0.1,0,0.2c0.1,0.1,0.1,0.2,0.1,0.3
			c-0.1,0.3-0.1,0.4-0.3,0.6c-0.1,0.1-0.1,0.2-0.1,0.3c0.1,0.1,0.1,0.3,0.1,0.4c-0.1,0.3-0.1,0.6-0.1,0.9c0,0.2-0.1,0.3-0.2,0.5
			c-0.1,0.1-0.1,0.1-0.2,0.2c0.2,0,0.4-0.1,0.5-0.1s0.3,0,0.4,0c0.2,0.1,0.3,0.1,0.1,0.3c-0.1,0.1-0.1,0.2-0.3,0.3
			c-0.1,0.1-0.2,0.2-0.2,0.3c0,0.2-0.1,0.4-0.1,0.7c0,0.2,0.1,0.3,0.1,0.5c0.1,0.1,0.1,0.1,0.3,0.1c0.2,0,0.3-0.1,0.5-0.1
			c0.2-0.1,0.4-0.2,0.6-0.3c0.1,0,0.1-0.1,0.2-0.1c0.1,0,0.2,0.1,0.2,0.2c0,0.2-0.1,0.3-0.2,0.5s-0.1,0.3-0.1,0.4
			c0.1,0.1,0.1,0.2,0.1,0.3c0,0.1,0.1,0.1,0.1,0.1c0.2,0,0.3-0.1,0.5-0.2c0.1-0.1,0.3-0.3,0.4-0.4c0.1-0.1,0.3-0.2,0.5-0.2
			c0.1,0,0.1,0,0.2-0.1c0.4-0.2,0.8-0.3,1.2-0.5c0.5-0.2,0.9-0.5,1.3-0.8c0.3-0.2,0.5-0.5,0.5-0.8c0.1-0.3,0.3-0.4,0.5-0.5
			c0.5-0.1,1-0.1,1.5-0.1c0.6,0,1.3,0.1,1.9,0c0.5,0,0.9-0.1,1.3-0.3c0.5-0.2,0.9-0.5,1.1-0.9c0.1-0.1,0.1-0.2-0.1-0.2
			c-0.5,0-0.9-0.1-1.5-0.1c-0.4-0.1-0.8,0-1.1,0.1c-0.1,0.1-0.2,0.1-0.3,0.1c0.1,0.1,0.3,0.1,0.4,0.1c0.1,0.1,0.3,0.1,0.5,0.1
			s0.1,0.1,0.1,0.3c0,0.1-0.1,0.1-0.1,0.1c-0.2,0.1-0.4,0.2-0.7,0.2c-0.1,0-0.3,0.1-0.4,0.1c-0.5,0.1-0.9,0.1-1.5,0.1
			c-0.2,0-0.4-0.1-0.6-0.1c-0.1-0.1-0.1-0.1-0.1-0.2c0.1-0.1,0.2-0.3,0.3-0.3c0.1-0.1,0.3-0.1,0.5-0.1s0.3-0.1,0.3-0.1
			c0.1-0.1,0.1-0.1,0-0.2c-0.1-0.1-0.1-0.1-0.2-0.1c-0.1-0.1-0.1-0.1,0-0.3s0.3-0.1,0.5-0.3c0.1-0.1,0.2-0.1,0.2-0.2
			c0.1-0.2,0.2-0.4,0.4-0.5c0.1-0.1,0.3-0.2,0.5-0.3c0.1-0.1,0.3-0.2,0.4-0.4s0.2-0.3,0.4-0.4c0.1-0.1,0.3-0.2,0.4-0.3
			c0.4-0.3,0.8-0.6,1.2-0.9c0.3-0.1,0.5-0.3,0.7-0.4c0.1-0.1,0.3-0.1,0.4-0.1C26,6.9,26,6.9,26,7.1c-0.1,0.2-0.2,0.3-0.3,0.5
			c-0.2,0.1-0.3,0.3-0.5,0.4C25,8,24.8,8.1,24.8,8.2c-0.1,0.1-0.1,0.1-0.1,0.2c0.1,0.1,0.1,0.3,0.1,0.4C24.9,9,25,9,25.1,8.9
			c0.5-0.3,1-0.4,1.5-0.4c0.1,0,0.2-0.1,0.3-0.1c0.2-0.2,0.3-0.4,0.5-0.5c0.3-0.3,0.7-0.6,1-0.9C28.6,7.1,28.6,7.1,28.7,7L28.7,7z
			 M25.8,6.1c0.3-0.2,0.6-0.4,1-0.4C26.5,5.9,26.2,6,25.8,6.1z M26.1,6.5C26.4,6.1,26.8,6,27.2,6C26.9,6.2,26.6,6.4,26.1,6.5z"/>
	</g>
	<g>
		<path d="M84.6,0.9h-4.3c-0.1,0-0.3,0.1-0.3,0.3l0.1,11.1l0,1.1c-0.9-4.3-3.7-6.9-8.4-6.9c-3.2,0-5.7,1.3-7.1,3.5V7.2
			c0-0.1-0.1-0.2-0.3-0.3h-3.8l0-3.9c0-0.1-0.1-0.3-0.3-0.3h-4.4c-0.1,0-0.3,0.1-0.3,0.3l0,3.9H54c-0.1,0-0.2,0.1-0.3,0.3v2.9
			c0,0.1,0.1,0.3,0.3,0.3h1.9l0,8.4c0,0,0,0.1,0,0.1l-6-17.7c-0.1-0.2-0.2-0.3-0.4-0.3h-6.1C43.2,0.9,43,1,43,1.2l-7.7,22.2
			c0,0.1,0,0.2,0.1,0.2c0,0,0.1,0,0.1,0H40c0.2,0,0.3-0.1,0.3-0.3l1.7-5.5h8.5l1.8,5.5c0,0.2,0.2,0.3,0.3,0.3h11
			c0.3-0.1,0.5-0.1,0.8-0.2c0.2-0.1,0.3-0.2,0.3-0.4v-2.5c1.4,2.2,3.8,3.5,7.2,3.5c4.7,0,7.6-2.7,8-5.8c0-0.1-0.1-0.2-0.2-0.3
			c0,0,0,0,0,0h-4.2c-0.2,0-0.3,0.1-0.3,0.3c-0.4,1.8-1.6,2.6-3.2,2.6c-2.3,0-3.6-1.4-3.8-4.5h12l-0.1,7.1c0,0.1,0.1,0.3,0.3,0.3
			h4.3c0.1,0,0.3-0.1,0.3-0.3l-0.1-11.1l0.1-11.1C84.9,1,84.8,0.9,84.6,0.9z M43.2,13.9l3-9.7l3.1,9.7H43.2z M64.4,20.2
			c-0.6,0.2-1.3,0.3-1.9,0.3c-1.1,0-1.8-0.5-1.8-1.9l0-8.3h3.8c0,0,0,0,0,0c-0.8,1.4-1.2,3.1-1.2,5C63.3,17.2,63.7,18.8,64.4,20.2
			C64.5,20.2,64.4,20.2,64.4,20.2L64.4,20.2z M68.3,13.2c0.4-2.3,1.6-3.5,3.5-3.5c2.1,0,3.2,1.7,3.3,3.5H68.3z"/>
		<path d="M85.9,0.9h4.4c0.1,0,0.3,0.1,0.3,0.3V5c0,0.1-0.1,0.3-0.3,0.3h-4.4c-0.1,0-0.3-0.1-0.3-0.3V1.2C85.6,1,85.7,0.9,85.9,0.9z
			"/>
		<path d="M117.6,10.5c0.2,0,0.4,0,0.6,0c0.1,0,0.2-0.1,0.3-0.2V7.2c0-0.1-0.1-0.3-0.3-0.3c-0.3,0-0.5-0.1-0.8-0.1c-2.4,0-4.7,1-6,3
			l0.1-2.6c0-0.1-0.1-0.2-0.3-0.3H107c-0.1,0-0.2,0.1-0.3,0.3l0.1,5.4c-1-3.8-3.8-6.1-8.2-6.1c-4.3,0-7.1,2.2-8.1,5.8l0-5.2
			c0-0.1-0.1-0.2-0.3-0.3h-4.4c-0.1,0-0.2,0.1-0.3,0.3l0.1,8.1l-0.1,8.1c0,0.1,0.1,0.3,0.3,0.3h4.4c0.1,0,0.3-0.1,0.3-0.3l0-5.1
			c1,3.5,3.8,5.8,8.2,5.8c4.7,0,7.6-2.7,8-5.8c0-0.1-0.1-0.2-0.2-0.3c0,0,0,0,0,0h-4.2c-0.2,0-0.3,0.1-0.3,0.3
			c-0.4,1.8-1.6,2.6-3.3,2.6c-2.3,0-3.6-1.4-3.8-4.5h11.8l-0.1,7.1c0,0.1,0.1,0.3,0.3,0.3h4.3c0.1,0,0.3-0.1,0.3-0.3v-7.2
			C111.6,12.4,114.1,10.5,117.6,10.5z M95.2,13.2c0.4-2.3,1.6-3.5,3.5-3.5c2.1,0,3.2,1.7,3.3,3.5H95.2z"/>
		<path d="M115.9,17.1c-1.9,0-3.2,1.3-3.2,3.3c0,1.9,1.3,3.2,3.2,3.2s3.1-1.3,3.1-3.2C119.1,18.3,117.8,17.1,115.9,17.1z
			 M115.9,22.9c-1.6,0-2.4-1-2.4-2.6c0-1.6,0.8-2.6,2.4-2.6c1.6,0,2.4,1,2.4,2.6C118.3,21.9,117.5,22.9,115.9,22.9z"/>
		<path d="M116.6,20.6c0.5-0.2,0.8-0.5,0.8-1c0-0.7-0.6-1.1-1.5-1.1h-1.3c-0.1,0-0.1,0.1-0.1,0.1v3.3c0,0.1,0.1,0.1,0.1,0.1h0.6
			c0.1,0,0.1-0.1,0.1-0.1v-1.2h0.3l0.4,0.5l0.4,0.7c0,0.1,0.1,0.1,0.2,0.1h0.8c0,0,0.1,0,0.1-0.1c0,0,0,0,0,0L116.6,20.6z
			 M115.9,20.1h-0.6v-0.9h0.6c0.4,0,0.6,0.1,0.6,0.5C116.5,20,116.2,20.1,115.9,20.1z"/>
	</g>
</g>
</svg>
