<?xml version="1.0" encoding="utf-8"?>
<!-- Generator: Adobe Illustrator 26.0.1, SVG Export Plug-In . SVG Version: 6.00 Build 0)  -->
<svg version="1.1" id="Layer_1" xmlns="http://www.w3.org/2000/svg" xmlns:xlink="http://www.w3.org/1999/xlink" x="0px" y="0px"
	 viewBox="0 0 40 13" style="enable-background:new 0 0 40 13;" xml:space="preserve">
<g>
	<path d="M23.7,1h-2c-0.1,0-0.1,0.1-0.1,0.1l0,5.3l0,0.6c-0.4-2.1-1.8-3.3-4-3.3c-1.5,0-2.7,0.6-3.4,1.7V4c0-0.1-0.1-0.1-0.1-0.1
		h-1.8l0-1.9c0-0.1-0.1-0.1-0.1-0.1h-2.1C10,1.9,10,1.9,10,2l0,1.9H9.1C9,3.9,9,3.9,9,4v1.4C9,5.4,9,5.5,9.1,5.5H10l0,4
		c0,0,0,0.1,0,0.1L7.1,1.1C7.1,1,7,1,7,1H4C4,1,3.9,1,3.9,1.1L0.2,11.7c0,0.1,0,0.1,0.1,0.1h2.1c0.1,0,0.1,0,0.2-0.1l0.8-2.6h4
		l0.8,2.6c0,0.1,0.1,0.1,0.2,0.1h0.3h1.9h0.9h1.4h0.7c0.1,0,0.3-0.1,0.4-0.1c0.1,0,0.1-0.1,0.1-0.2v-1.2c0.7,1,1.8,1.7,3.4,1.7
		c2.2,0,3.6-1.3,3.8-2.8c0-0.1,0-0.1-0.1-0.1h-2c-0.1,0-0.1,0-0.2,0.1c-0.2,0.9-0.8,1.2-1.5,1.2c-1.1,0-1.7-0.7-1.8-2.2h5.7l0,3.4
		c0,0.1,0.1,0.1,0.1,0.1h2c0.1,0,0.1-0.1,0.1-0.1l0-5.3l0-5.3C23.8,1.1,23.7,1,23.7,1z M4,7.2l1.4-4.6l1.5,4.6H4z M14.1,10.2
		c-0.2,0.1-0.5,0.1-0.9,0.1c-0.5,0-0.8-0.2-0.8-0.9l0-3.9h1.8c0,0,0,0,0,0c-0.4,0.7-0.6,1.5-0.6,2.4C13.5,8.7,13.7,9.5,14.1,10.2
		C14.1,10.2,14.1,10.2,14.1,10.2z M15.9,6.8c0.2-1.1,0.7-1.7,1.7-1.7c1,0,1.5,0.8,1.6,1.7H15.9z"/>
	<path d="M24.2,3.1h2.1c0.1,0,0.1-0.1,0.1-0.1V1.1c0-0.1-0.1-0.1-0.1-0.1h-2.1c-0.1,0-0.1,0.1-0.1,0.1V3C24.1,3,24.2,3.1,24.2,3.1z"
		/>
	<path d="M39.3,5.5c0.1,0,0.2,0,0.3,0c0.1,0,0.1,0,0.1-0.1V4c0-0.1-0.1-0.1-0.1-0.2c-0.1,0-0.2,0-0.4,0c-1.2,0-2.2,0.5-2.8,1.4
		L36.5,4c0-0.1-0.1-0.1-0.1-0.1h-2.1c-0.1,0-0.1,0.1-0.1,0.1l0,2.6c-0.5-1.8-1.8-3-3.9-3c-2,0-3.4,1.1-3.9,2.9l0-2.5
		c0-0.1-0.1-0.1-0.1-0.1h-2.1c-0.1,0-0.1,0.1-0.1,0.1l0,3.9l0,3.8c0,0.1,0.1,0.1,0.1,0.1h2.1c0.1,0,0.1-0.1,0.1-0.1l0-2.5
		c0.4,1.7,1.8,2.8,3.9,2.8c2.2,0,3.6-1.3,3.8-2.8c0-0.1,0-0.1-0.1-0.1h-2c-0.1,0-0.1,0-0.2,0.1c-0.2,0.9-0.8,1.2-1.5,1.2
		c-1.1,0-1.7-0.7-1.8-2.2h5.6l0,3.4c0,0.1,0.1,0.1,0.1,0.1h2.1c0.1,0,0.1-0.1,0.1-0.1V8.3C36.5,6.4,37.7,5.5,39.3,5.5z M28.7,6.8
		c0.2-1.1,0.7-1.7,1.7-1.7c1,0,1.5,0.8,1.6,1.7H28.7z"/>
	<path d="M38.3,8.7c-0.9,0-1.5,0.6-1.5,1.5c0,0.9,0.6,1.5,1.5,1.5c0.9,0,1.5-0.6,1.5-1.5C39.8,9.3,39.2,8.7,38.3,8.7z M38.3,11.4
		c-0.7,0-1.1-0.5-1.1-1.2c0-0.8,0.4-1.2,1.1-1.2c0.7,0,1.1,0.5,1.1,1.2C39.5,10.9,39.1,11.4,38.3,11.4z"/>
	<path d="M39,9.9c0-0.3-0.3-0.5-0.7-0.5h-0.6c0,0-0.1,0-0.1,0.1v1.5c0,0,0,0.1,0.1,0.1H38c0,0,0.1,0,0.1-0.1v-0.6h0.2l0.2,0.2
		l0.2,0.3c0,0,0.1,0.1,0.1,0.1H39c0,0,0.1,0,0-0.1l-0.4-0.6C38.9,10.3,39,10.1,39,9.9z M38.3,10.1H38V9.7h0.3c0.2,0,0.3,0.1,0.3,0.2
		S38.5,10.1,38.3,10.1z"/>
</g>
</svg>
