<?xml version="1.0" encoding="utf-8"?>
<!-- Generator: Adobe Illustrator 25.4.1, SVG Export Plug-In . SVG Version: 6.00 Build 0)  -->
<svg version="1.1" id="Layer_1" xmlns="http://www.w3.org/2000/svg" xmlns:xlink="http://www.w3.org/1999/xlink" x="0px" y="0px"
	 viewBox="0 0 16 44" style="enable-background:new 0 0 16 44;" xml:space="preserve">
<style type="text/css">
	.st0{fill:#FFFFFF;}
</style>
<g>
	<g>
		<path class="st0" d="M10,21.7c0-0.1,0.1-0.1,0.1-0.1c0.2-0.1,0.5-0.1,0.7-0.1c0.3,0,0.6,0.1,0.9,0.1c0.1,0,0.1,0,0.1,0.1
			c-0.2,0.3-0.4,0.5-0.7,0.6c-0.3,0.1-0.5,0.2-0.8,0.2c-0.4,0-0.8,0-1.1,0c-0.3,0-0.6,0-0.9,0c-0.2,0-0.3,0.1-0.3,0.3
			c0,0.2-0.2,0.4-0.3,0.5C7.3,23.7,7,23.8,6.7,24c-0.2,0.1-0.5,0.2-0.7,0.4c0,0-0.1,0-0.1,0c-0.1,0-0.2,0.1-0.3,0.1
			c-0.1,0.1-0.2,0.2-0.3,0.3c-0.1,0.1-0.2,0.1-0.3,0.1c0,0-0.1,0-0.1-0.1c0-0.1,0-0.1,0-0.2c0-0.1,0-0.2,0-0.3
			c0.1-0.1,0.1-0.2,0.1-0.3c0-0.1,0-0.1-0.1-0.1c0,0-0.1,0-0.1,0C4.8,24,4.6,24,4.5,24.1c-0.1,0.1-0.2,0.1-0.3,0.1
			c-0.1,0-0.1,0-0.2-0.1C4,24,4,23.8,4,23.7c0-0.1,0-0.3,0-0.4c0-0.1,0.1-0.2,0.1-0.2C4.2,23,4.2,23,4.3,22.9c0.1-0.1,0-0.2-0.1-0.2
			c-0.1,0-0.2,0-0.2,0c-0.1,0-0.2,0.1-0.3,0c0-0.1,0.1-0.1,0.1-0.1c0.1-0.1,0.1-0.2,0.1-0.3c0-0.2,0-0.4,0.1-0.6c0-0.1,0-0.2,0-0.3
			c0-0.1,0-0.1,0-0.2C4,21.1,4.1,21,4.1,20.8c0-0.1,0-0.1-0.1-0.2c-0.1,0-0.1-0.1,0-0.1c0.1-0.1,0.1-0.1,0.2-0.2
			c0.1-0.1,0.1-0.2,0-0.3c-0.1-0.1-0.2-0.2-0.3-0.1c-0.2,0.1-0.4,0.2-0.6,0.4c0,0.1-0.1,0.1-0.1,0.2c-0.1,0.1-0.1,0.2,0.1,0.3
			c0.1,0.1,0.1,0.1,0,0.2C3.2,20.9,3.2,21,3.1,21c-0.1,0-0.2,0.1-0.2,0.2c-0.1,0.1-0.1,0.1-0.1,0.2c0,0.1,0,0.2,0.1,0.3
			c0.1,0.1,0.1,0.1,0,0.1c0,0-0.1,0.1-0.1,0.1c-0.1,0.1-0.2,0.2-0.2,0.4c0,0.1,0,0.2,0,0.2c0,0.1,0,0.2,0,0.2c0,0.1-0.1,0.2-0.2,0.2
			C2,22.9,1.8,23,1.7,23c-0.1,0-0.1,0-0.2,0c-0.1,0-0.2-0.1-0.2-0.2c-0.1-0.2-0.1-0.4,0-0.6c0-0.2,0.1-0.3,0.2-0.5
			c0.1-0.2,0.1-0.3,0.2-0.5c0,0,0-0.1,0-0.1c0-0.1,0-0.3,0.1-0.4c0.3-0.5,0.5-1.1,0.5-1.7c0-0.1,0-0.2,0-0.2c0,0,0-0.1,0-0.1
			c0-0.1,0.1-0.3,0.2-0.4C2.5,18.1,2.6,18,2.8,18c0.2,0,0.4,0,0.5,0c0.4,0,0.7,0.1,1,0.3c0.1,0.1,0.2,0.2,0.3,0.3
			c0,0,0.1,0.1,0.1,0.1c-0.1,0.1-0.2,0.1-0.2,0.1c-0.1,0-0.2,0.1-0.2,0.2c0,0.1,0,0.1,0,0.1c0.1,0,0.1,0,0.2,0
			c0.1,0,0.1-0.1,0.2-0.1C4.9,18.8,5,18.9,5.1,19c0.2,0.3,0.4,0.6,0.5,1c0.2,0.4,0.3,0.9,0.4,1.4c0,0.1,0.1,0.2,0.1,0.4
			c0.1,0.2,0.2,0.3,0.4,0.2c0.1,0,0.1-0.1,0.2-0.1c0.1,0,0.2-0.1,0.3-0.1c0.1,0,0.1,0,0.1-0.1c0.5-0.3,0.9-0.6,1.3-0.9
			c0.5-0.4,0.9-0.8,1.3-1.2c1.1-0.8,2.1-1.7,3.3-2.3c0.3-0.1,0.5-0.3,0.8-0.4c0.3-0.1,0.6-0.2,0.8-0.2c0.2,0,0.4-0.1,0.6-0.1
			c0,0,0.1,0,0.1-0.1c0.1-0.1,0.4-0.1,0.5,0.1c0,0,0,0.1,0,0.1c0,0.1-0.1,0.2-0.1,0.3c-0.1,0.1-0.2,0.3-0.3,0.4
			c-0.2,0.2-0.4,0.5-0.7,0.6c-0.2,0.1-0.3,0.3-0.5,0.4c-0.2,0.2-0.3,0.4-0.5,0.6c-0.2,0.2-0.4,0.4-0.6,0.6c-0.1,0.1-0.2,0.2-0.3,0.4
			C12.8,20,12.8,20,12.7,20c-0.3,0-0.6,0.1-0.9,0.3c-0.1,0.1-0.1,0-0.2-0.1c0-0.1,0-0.2-0.1-0.3c0,0,0-0.1,0-0.1
			c0.1-0.1,0.1-0.1,0.2-0.2c0.1-0.1,0.2-0.2,0.3-0.3c0.1-0.1,0.2-0.2,0.2-0.3c0-0.1,0-0.1-0.1-0.1c-0.1,0-0.2,0-0.2,0.1
			c-0.1,0.1-0.3,0.2-0.5,0.3c-0.3,0.1-0.5,0.4-0.7,0.6c-0.1,0.1-0.2,0.1-0.2,0.2c-0.1,0.1-0.2,0.2-0.2,0.3c-0.1,0.1-0.1,0.2-0.2,0.3
			c-0.1,0.1-0.2,0.1-0.3,0.2c-0.1,0.1-0.2,0.2-0.3,0.4c0,0.1-0.1,0.1-0.1,0.2c-0.1,0.1-0.2,0.1-0.3,0.2c-0.1,0.1-0.1,0.1,0,0.2
			c0,0,0.1,0,0.1,0.1c0.1,0,0.1,0.1,0,0.1c-0.1,0.1-0.1,0.1-0.2,0.1C9,21.9,8.9,22,8.8,22c-0.1,0-0.2,0.1-0.2,0.2c0,0.1,0,0.1,0,0.1
			c0.1,0.1,0.3,0.1,0.4,0.1c0.3,0,0.6,0,0.9-0.1c0.1,0,0.2,0,0.2,0c0.1,0,0.3-0.1,0.4-0.1c0,0,0.1,0,0.1-0.1c0-0.1,0-0.1,0-0.2
			c-0.1,0-0.2-0.1-0.3-0.1C10.2,21.8,10.1,21.8,10,21.7z M12.4,18.4c0.3,0,0.5-0.1,0.7-0.3C12.8,18.1,12.6,18.2,12.4,18.4z
			 M12.8,17.9c-0.2,0-0.4,0.1-0.6,0.3C12.4,18.1,12.6,18,12.8,17.9z"/>
		<path class="st0" d="M5,26.5c0-0.1,0-0.3,0.1-0.4c0.1-0.2,0.1-0.3,0.2-0.5c0,0,0,0,0-0.1c0.1-0.1,0.1-0.2,0.2-0.3
			c0-0.1,0.1-0.1,0.1-0.2c0,0,0.1-0.1,0.1,0c0.2,0.1,0.4,0,0.6-0.1c0.1-0.1,0.2-0.1,0.4-0.2c0.2-0.1,0.4-0.2,0.7-0.2
			c0,0,0.1,0,0.1,0c0.2-0.1,0.4-0.2,0.6-0.3c0.2-0.1,0.5-0.2,0.7-0.4c0.1-0.1,0.2-0.3,0.4-0.3c0.1-0.1,0.3-0.2,0.4-0.3
			c0.1-0.1,0.1-0.2,0.1-0.2c0-0.1,0-0.1,0.1-0.1c0.1,0,0.3,0.1,0.4,0.2c0,0,0,0,0.1,0.1c0.1,0.2,0.2,0.4,0.2,0.6
			c0,0.2,0,0.4-0.2,0.5c-0.1,0.1-0.2,0.2-0.2,0.3c0,0,0,0.1-0.1,0.1c-0.1,0.3-0.3,0.6-0.6,0.8c-0.2,0.1-0.4,0.3-0.6,0.5
			c-0.2,0.2-0.4,0.3-0.6,0.4c0,0-0.1,0-0.1,0.1c-0.1,0.2-0.3,0.3-0.5,0.3C7.5,26.9,7.4,27,7.3,27c-0.2,0.1-0.3,0.1-0.4,0.2
			c-0.1,0.1-0.2,0.1-0.3,0.1c-0.1,0-0.2,0-0.3,0.1c-0.2,0-0.3,0.1-0.4,0.2c0,0-0.1,0-0.1,0c-0.1,0-0.2-0.1-0.2-0.1
			C5.2,27.2,5,27,5,26.7C5,26.6,5,26.6,5,26.5z"/>
		<path class="st0" d="M3.8,25.8c0,0.1-0.1,0.2-0.2,0.2c-0.4,0.4-0.8,0.7-1.3,0.8c-0.1,0-0.2,0.1-0.2,0.1c-0.3,0.2-0.5,0.4-0.8,0.6
			c-0.1,0.1-0.3,0.1-0.4,0c-0.1-0.1-0.2-0.1-0.3-0.1c0,0-0.1,0-0.1-0.1c-0.1-0.1-0.1-0.2-0.2-0.3c-0.1-0.1-0.1-0.1-0.2-0.2
			c0-0.1,0-0.2,0-0.2c0-0.1,0-0.2-0.1-0.3c0-0.1,0-0.1,0-0.2c0-0.1,0-0.2,0-0.3c0.1-0.1,0.1-0.2,0.1-0.4c0-0.1,0.1-0.3,0.2-0.4
			c0.1-0.2,0.3-0.4,0.5-0.6c0.2-0.2,0.3-0.4,0.5-0.6c0.1-0.2,0.2-0.3,0.4-0.4c0.1-0.1,0.3-0.2,0.5-0.3c0.1,0,0.1,0,0.2,0.1
			c0,0.1,0,0.1,0,0.2c0,0.1,0,0.3,0.1,0.4c0,0,0,0.1,0,0.1c0,0.1,0,0.3,0,0.4c0,0.1,0,0.3,0,0.4c0,0.1,0.1,0.2,0.1,0.2
			c0.1,0.2,0.3,0.3,0.5,0.3c0.1,0,0.1,0,0.2,0c0.1,0,0.1,0.1,0.1,0.1c0,0,0,0.1-0.1,0.1c0,0,0,0.1-0.1,0.1c0,0.1,0,0.2,0.1,0.2
			c0.1,0,0.2,0,0.3,0C3.7,25.8,3.8,25.8,3.8,25.8z"/>
		<path class="st0" d="M12.7,20.2c-0.1,0.3-0.2,0.4-0.4,0.6c-0.2,0.1-0.3,0.1-0.5,0.2c-0.2,0-0.5,0.1-0.7,0.2c0,0-0.1,0-0.1,0
			c-0.2,0-0.3-0.1-0.5-0.1c0,0,0,0,0,0c0.3-0.2,0.5-0.3,0.8-0.4c0.1,0,0.1,0,0.2,0c0.1,0.1,0.2,0.1,0.3,0c0.1-0.1,0.3-0.2,0.4-0.3
			C12.4,20.3,12.5,20.2,12.7,20.2z"/>
	</g>
	<g>
		<path class="st0" d="M15.9,19.4c0,0.1,0,0.3-0.1,0.4c0,0.1-0.1,0.2-0.2,0.3c-0.1,0.1-0.2,0.2-0.3,0.2c-0.1,0-0.2,0.1-0.4,0.1h0
			c-0.1,0-0.3,0-0.4-0.1c-0.1,0-0.2-0.1-0.3-0.2c-0.1-0.1-0.2-0.2-0.2-0.3c0-0.1-0.1-0.2-0.1-0.4v0c0-0.1,0-0.3,0.1-0.4
			c0-0.1,0.1-0.2,0.2-0.3c0.1-0.1,0.2-0.2,0.3-0.2c0.1,0,0.2-0.1,0.4-0.1h0c0.1,0,0.3,0,0.4,0.1c0.1,0,0.2,0.1,0.3,0.2
			c0.1,0.1,0.2,0.2,0.2,0.3C15.9,19.2,15.9,19.3,15.9,19.4L15.9,19.4z M15.6,19c-0.1-0.1-0.2-0.2-0.3-0.3c-0.1-0.1-0.2-0.1-0.4-0.1
			h0c-0.1,0-0.3,0-0.4,0.1c-0.1,0.1-0.2,0.2-0.3,0.3c-0.1,0.1-0.1,0.2-0.1,0.4v0c0,0.1,0,0.3,0.1,0.4c0.1,0.1,0.2,0.2,0.3,0.3
			c0.1,0.1,0.2,0.1,0.4,0.1h0c0.1,0,0.3,0,0.4-0.1c0.1-0.1,0.2-0.2,0.3-0.3c0.1-0.1,0.1-0.2,0.1-0.4v0C15.7,19.3,15.7,19.2,15.6,19z
			 M14.6,18.9H15c0.1,0,0.2,0,0.3,0.1c0.1,0.1,0.1,0.1,0.1,0.2c0,0.1,0,0.1-0.1,0.2c0,0.1-0.1,0.1-0.1,0.1l0.2,0.4h-0.2L15,19.6
			c0,0,0,0,0,0c0,0,0,0,0,0h-0.2v0.4h-0.2V18.9z M15,19.4c0.1,0,0.1,0,0.1,0c0,0,0.1-0.1,0.1-0.1v0c0,0,0-0.1-0.1-0.1
			c0,0-0.1,0-0.1,0h-0.2v0.3H15z"/>
	</g>
</g>
</svg>
