<?xml version="1.0" standalone="no"?>
<!DOCTYPE svg PUBLIC "-//W3C//DTD SVG 20010904//EN"
 "http://www.w3.org/TR/2001/REC-SVG-20010904/DTD/svg10.dtd">
<svg version="1.0" xmlns="http://www.w3.org/2000/svg"
 width="3000.000000pt" height="3000.000000pt" viewBox="0 0 3000.000000 3000.000000"
 preserveAspectRatio="xMidYMid meet">
<metadata>
Created by potrace 1.14, written by Peter Selinger 2001-2017
</metadata>
<g transform="translate(0.000000,3000.000000) scale(0.100000,-0.100000)"
fill="#000000" stroke="none">
<path d="M11068 23491 c-124 -245 -333 -660 -465 -921 -262 -517 -560 -1106
-910 -1800 -124 -245 -327 -645 -450 -890 -124 -245 -321 -634 -438 -865 -117
-231 -318 -629 -448 -885 -129 -256 -331 -656 -449 -890 -119 -234 -331 -654
-473 -935 -142 -280 -348 -688 -458 -905 -110 -217 -303 -600 -430 -850 -126
-250 -325 -644 -442 -875 -117 -231 -324 -640 -460 -910 -224 -443 -533 -1054
-646 -1275 -24 -47 -43 -87 -44 -90 0 -3 -3 -9 -7 -15 -3 -5 -95 -185 -203
-400 -109 -214 -300 -592 -425 -840 -125 -247 -333 -659 -463 -915 -129 -256
-337 -667 -462 -915 -125 -247 -329 -650 -452 -895 -124 -245 -328 -648 -454
-897 -126 -248 -226 -454 -222 -456 5 -3 1424 -4 3155 -4 l3147 0 17 36 c9 20
40 86 69 146 29 61 74 155 100 210 66 139 208 435 337 705 39 80 84 174 101
210 16 36 72 152 123 258 52 107 94 195 94 197 0 2 47 101 105 220 58 119 105
218 105 220 0 1 40 85 89 186 48 101 116 241 149 312 l62 127 5068 0 5069 0
68 -142 c38 -79 132 -273 210 -433 78 -159 175 -357 215 -440 69 -143 108
-222 347 -715 58 -118 136 -278 173 -355 37 -77 120 -248 185 -380 64 -132
130 -267 146 -301 l29 -61 3148 0 c1731 0 3150 1 3154 4 7 4 -330 679 -2634
5272 -451 899 -823 1642 -827 1650 -5 9 -13 25 -18 37 -6 11 -375 747 -821
1635 -1894 3777 -2395 4775 -2403 4789 -4 8 -58 116 -120 240 -62 124 -116
232 -120 240 -4 8 -37 74 -72 145 -36 72 -380 758 -765 1525 -384 767 -804
1604 -932 1860 -128 256 -237 468 -242 471 -6 4 -1692 6 -3747 6 l-3737 0
-226 -446z m4024 -4353 c44 -88 90 -182 353 -723 59 -121 157 -321 218 -445
189 -387 327 -669 407 -835 43 -88 133 -272 200 -410 67 -137 157 -322 200
-410 43 -88 127 -261 187 -385 61 -124 161 -328 223 -455 62 -126 152 -311
200 -410 48 -99 136 -279 195 -400 59 -121 151 -310 205 -420 232 -477 365
-748 549 -1124 22 -46 41 -87 41 -90 0 -8 -6127 -8 -6134 0 -6 6 22 67 201
439 80 165 161 334 240 500 33 69 87 181 120 250 60 124 128 265 245 509 58
120 94 196 223 466 31 66 86 181 122 255 92 190 187 388 243 505 26 55 76 159
110 230 122 254 183 381 235 490 29 61 85 178 125 260 40 83 97 201 126 263
107 223 163 339 227 472 80 168 167 347 245 510 32 69 88 184 122 255 69 144
162 337 235 490 26 55 70 146 97 203 l50 102 72 0 72 0 46 -92z"/>
<path d="M23768 23445 c-2 -2 -32 -6 -68 -10 -36 -3 -92 -10 -125 -15 -33 -5
-78 -12 -100 -15 -132 -20 -439 -111 -595 -177 -102 -43 -315 -155 -415 -217
-490 -309 -873 -760 -1088 -1281 -72 -175 -143 -425 -163 -575 -3 -27 -8 -59
-10 -70 -26 -125 -25 -595 0 -745 3 -14 7 -43 11 -65 20 -139 82 -367 142
-519 34 -87 139 -309 165 -351 7 -10 44 -69 83 -130 112 -177 221 -312 376
-465 100 -99 147 -141 234 -208 44 -34 85 -66 90 -70 82 -64 295 -191 430
-257 284 -138 627 -240 908 -270 203 -22 593 -22 702 -1 11 2 49 7 85 11 36 4
67 8 70 10 3 2 24 6 47 10 203 30 545 145 752 253 164 85 333 187 339 203 2 5
8 9 13 9 25 0 277 209 387 320 183 185 365 428 467 625 17 33 38 71 45 85 8
14 15 27 15 30 1 3 16 35 33 73 95 205 188 531 207 728 39 393 23 682 -56
1009 -91 373 -300 777 -563 1085 -94 111 -268 279 -379 365 -56 44 -107 84
-113 89 -6 5 -37 26 -70 47 -32 21 -61 41 -64 45 -5 5 -129 76 -230 131 -38
21 -109 53 -245 113 -188 82 -533 167 -780 192 -48 5 -533 12 -537 8z m446
-470 c50 -4 99 -9 110 -11 12 -2 41 -7 66 -10 205 -26 491 -121 710 -235 226
-119 406 -252 590 -438 320 -323 548 -756 614 -1161 3 -19 8 -46 11 -60 14
-68 19 -162 20 -330 0 -188 -10 -320 -31 -422 -3 -15 -5 -30 -5 -33 0 -2 -5
-19 -10 -37 -5 -18 -12 -46 -15 -63 -10 -57 -84 -267 -124 -353 -34 -72 -106
-206 -145 -271 -96 -157 -287 -379 -445 -516 -175 -152 -399 -293 -618 -386
-91 -39 -247 -95 -287 -103 -11 -3 -56 -14 -100 -25 -44 -11 -102 -23 -130
-27 -27 -3 -52 -8 -55 -9 -3 -2 -35 -6 -70 -10 -36 -3 -85 -8 -110 -11 -57 -7
-322 -6 -375 0 -22 3 -65 8 -95 10 -72 7 -219 33 -295 52 -33 9 -68 18 -77 19
-33 7 -216 74 -290 106 -165 72 -335 171 -478 278 -114 85 -116 86 -255 226
-304 302 -507 659 -598 1050 -25 108 -30 133 -42 225 -3 25 -7 61 -10 80 -6
45 -6 364 0 410 21 166 32 234 61 350 41 169 125 374 225 547 43 74 152 238
169 253 3 3 23 28 45 55 139 174 315 333 516 464 145 95 158 102 304 172 156
74 358 144 475 166 14 2 43 8 65 13 22 5 63 12 90 16 28 3 58 8 69 10 10 2 57
6 105 9 47 4 87 7 88 9 4 4 245 -2 327 -9z"/>
<path d="M22686 20723 c1 -830 2 -1510 3 -1513 0 -3 161 -5 356 -5 l355 0 0
542 0 543 288 0 289 0 67 -112 c242 -404 456 -759 517 -858 l70 -115 405 0
c222 0 404 3 404 7 0 7 -206 336 -355 568 -121 187 -355 564 -355 571 0 4 10
11 23 15 32 9 104 41 162 71 175 90 323 259 391 447 74 205 79 481 13 701 -88
293 -334 513 -672 599 -56 15 -74 18 -197 36 -30 5 -440 9 -910 9 l-855 1 1
-1507z m1588 960 c179 -37 306 -145 346 -295 18 -63 19 -173 4 -237 -19 -81
-49 -137 -102 -190 -60 -59 -127 -97 -222 -123 -70 -20 -102 -21 -485 -22
l-410 -1 -3 443 -2 443 402 -2 c306 -1 419 -5 472 -16z"/>
</g>
</svg>
