<?xml version="1.0" encoding="utf-8"?>
<!-- Generator: Adobe Illustrator 25.4.1, SVG Export Plug-In . SVG Version: 6.00 Build 0)  -->
<svg version="1.1" id="Layer_1" xmlns="http://www.w3.org/2000/svg" xmlns:xlink="http://www.w3.org/1999/xlink" x="0px" y="0px"
	 viewBox="0 0 100 50" style="enable-background:new 0 0 100 50;" xml:space="preserve">
<g>
	<g>
		<path d="M74.2,23.4c0.1,0,0.2,0.1,0.2,0.2v2.5c0,0.1-0.1,0.2-0.2,0.2h-2.9c-0.1,0-0.2-0.1-0.2-0.2v-2.5c0-0.1,0.1-0.2,0.2-0.2
			H74.2 M74.2,23h-2.9c-0.3,0-0.6,0.3-0.6,0.6v2.5c0,0.3,0.3,0.6,0.6,0.6h2.9c0.3,0,0.6-0.3,0.6-0.6v-2.5C74.8,23.3,74.5,23,74.2,23
			L74.2,23z"/>
		<path d="M98.7,23.4c0.1,0,0.2,0.1,0.2,0.2l0,7.2l0,7.2c0,0.1-0.1,0.2-0.2,0.2h-2.8c-0.1,0-0.2-0.1-0.2-0.2l0.1-1.1
			c-0.8,0.9-1.8,1.5-3.2,1.5c-2.5,0-4-1.6-4.5-3.9l0,3.5c0,0.1-0.1,0.2-0.2,0.2h-2.8C85,38.1,85,38.1,85,38l0-4.6h-7.7
			c0.1,2,0.9,2.9,2.4,2.9c1.1,0,1.8-0.5,2.1-1.7c0-0.1,0.1-0.2,0.2-0.2h2.7c0.1,0,0.2,0.1,0.1,0.2c-0.3,2-2.1,3.8-5.2,3.8
			c-2.9,0-4.7-1.5-5.3-3.9l0,3.4c0,0.1-0.1,0.2-0.2,0.2h-2.9c-0.1,0-0.2-0.1-0.2-0.2l0-5.2l0-4.5l-4.6,13.3c0,0.1-0.1,0.2-0.2,0.2
			h-2.7c-0.1,0-0.1-0.1-0.1-0.2l1.1-3.3l-4.4-10.8c0-0.1,0-0.1,0.1-0.1h3.2c0.1,0,0.2,0.1,0.2,0.2l2.4,6.8l2-6.8
			c0-0.1,0.1-0.2,0.2-0.2h2.9c0,0,0,0,0,0c0,0,0,0,0,0h2.9c0.1,0,0.2,0.1,0.2,0.2l0,3.4c0.6-2.4,2.5-3.9,5.3-3.9
			c3,0,4.9,1.7,5.4,4.5l0-0.8L85,23.6c0-0.1,0.1-0.2,0.2-0.2h2.8c0.1,0,0.2,0.1,0.2,0.2L88,30.8l0,0.4c0.5-2.3,2.2-4,4.6-4
			c1.3,0,2.4,0.5,3.1,1.3v-4.8c0-0.1,0.1-0.2,0.2-0.2H98.7 M77.4,31.4h4.4c-0.1-1.2-0.8-2.2-2.2-2.2C78.4,29.1,77.6,29.9,77.4,31.4
			 M93.4,36.3C93.4,36.3,93.4,36.3,93.4,36.3c1.6,0,2.4-1.2,2.4-3.4c0-2.3-0.8-3.6-2.3-3.6c0,0-0.1,0-0.1,0c-1.5,0-2.3,1.2-2.3,3.4
			C91.1,35,91.9,36.3,93.4,36.3 M98.7,23h-2.8c-0.3,0-0.6,0.3-0.6,0.6v3.9c-0.7-0.5-1.6-0.8-2.7-0.8c-1.8,0-3.3,0.9-4.2,2.3l0-5.4
			c0-0.3-0.3-0.6-0.6-0.6h-2.8c-0.3,0-0.6,0.3-0.6,0.6l0,5.7c-1-1.7-2.7-2.7-5-2.7c-2.1,0-3.8,0.8-4.8,2.4l0-1.5
			c0-0.3-0.3-0.6-0.6-0.6h-2.9h0h-2.9c-0.3,0-0.5,0.2-0.6,0.5l-1.6,5.5l-1.9-5.6c-0.1-0.3-0.3-0.4-0.6-0.4h-3.2
			c-0.2,0-0.3,0.1-0.4,0.2C60,27.3,60,27.4,60,27.6l4.3,10.7l-1.1,3.1c-0.1,0.2-0.1,0.3,0,0.5c0.1,0.2,0.3,0.2,0.4,0.2h2.7
			c0.3,0,0.5-0.2,0.6-0.4l3.8-11.1l0,2.2l0,5.2c0,0.3,0.3,0.6,0.6,0.6h2.9c0.3,0,0.6-0.3,0.6-0.6l0-1.5c1,1.5,2.7,2.3,4.9,2.3
			c2.4,0,4.1-1,4.9-2.3l0,1.5c0,0.3,0.3,0.6,0.6,0.6h2.8c0.3,0,0.6-0.3,0.6-0.6l0-1.4c0.9,1.4,2.3,2.1,4.1,2.1c1,0,2-0.3,2.7-0.9
			l0,0.1c0,0.3,0.3,0.6,0.6,0.6h2.8c0.3,0,0.6-0.3,0.6-0.6l0-7.2l0-7.2C99.2,23.3,99,23,98.7,23L98.7,23z M77.9,31
			c0.4-1.3,1.2-1.4,1.8-1.4c1.1,0,1.5,0.8,1.7,1.4H77.9L77.9,31z M93.4,35.9c-1.3,0-1.9-1.1-1.9-3.3c0-2,0.7-3,1.9-3l0.1,0
			c1.6,0,1.9,1.8,1.9,3.2C95.4,35.9,93.9,35.9,93.4,35.9L93.4,35.9L93.4,35.9z M77.7,33.8h6.9l0,0.3H82c-0.3,0-0.5,0.2-0.6,0.5
			c-0.2,0.9-0.8,1.3-1.7,1.3C78.8,35.9,77.9,35.7,77.7,33.8L77.7,33.8z"/>
	</g>
	<g>
		<path d="M27,30.5c0-0.9,0.7-1.3,1.7-1.3c1.3,0,1.9,0.6,2,1.5c0,0.1,0.1,0.2,0.2,0.2h2.6c0.1,0,0.2-0.1,0.1-0.2
			c-0.2-2.3-2.1-3.4-4.9-3.4c-2.5,0-4.2,0.9-4.6,2.6c-0.9-1.6-2.5-2.6-4.8-2.6c-2.5,0-4.2,1.2-5,3.1c-0.3-4.7-3.7-6.7-7.8-6.7H1.3
			c-0.1,0-0.2,0.1-0.2,0.2L1.2,31l-0.1,7.2c0,0.1,0.1,0.2,0.2,0.2h5.2c3.3,0,6.2-1.3,7.3-4.4c0.4,2.8,2.3,4.7,5.5,4.7
			c2.3,0,3.9-1,4.7-2.3c0.7,1.5,2.4,2.3,4.9,2.3c3,0,5.1-1.3,5.1-3.6C34,30.5,27,32.6,27,30.5z M6.7,36H4.4c0,0,0-2.5,0-5
			c0-2.4,0-4.9,0-4.9h2.3c2.5,0,4.4,1.6,4.4,5.1S9.1,36,6.7,36z M19.3,29.4c1.4,0,2,1.1,2.2,2.2h-4.4C17.3,30.1,18.1,29.4,19.3,29.4
			z M29.1,36.7c-1.5,0-2.3-0.5-2.4-1.8c0-0.1-0.1-0.2-0.2-0.2h-2.1c0,0,0,0,0,0h-2.7c-0.1,0-0.2,0.1-0.2,0.2c-0.3,1.2-1,1.7-2.1,1.7
			c-1.5,0-2.3-0.9-2.4-2.9h7.8c0.1,0,0.2-0.1,0.2-0.2c0-0.2,0-0.4,0-0.5c1.9,1.7,6.2,0.8,6.2,2.4C31,36.2,30.4,36.7,29.1,36.7z"/>
		<path d="M34.3,26.5h2.9c0.1,0,0.2-0.1,0.2-0.2v-2.5c0-0.1-0.1-0.2-0.2-0.2h-2.9c-0.1,0-0.2,0.1-0.2,0.2v2.5
			C34.2,26.4,34.3,26.5,34.3,26.5z"/>
		<path d="M47.9,27.6h-2.8c-0.1,0-0.2,0.1-0.2,0.2l0.1,1c-0.7-0.9-1.8-1.3-3.1-1.3c-2.3,0-3.9,1.6-4.5,3.7l0-3.4
			c0-0.1-0.1-0.2-0.2-0.2h-2.9c-0.1,0-0.2,0.1-0.2,0.2l0,5.3l0,5.2c0,0.1,0.1,0.2,0.2,0.2h2.9c0.1,0,0.2-0.1,0.2-0.2l0-3.5
			c0.6,2.1,2.1,3.6,4.7,3.6c1.3,0,2.4-0.6,3.1-1.5v1.2c0,1.7-0.9,2.5-2.3,2.5c-1.3,0-2-0.5-2.1-1.4c0-0.1-0.1-0.2-0.2-0.2h-2.8
			c-0.1,0-0.2,0.1-0.2,0.2c0.2,2.4,2.3,3.6,5.2,3.5c3.6,0,5.3-1.8,5.3-4.5v-5l0-5.4C48.1,27.7,48,27.6,47.9,27.6z M42.7,36.3
			c-1.5,0-2.4-1.2-2.4-3.5c0-2.2,0.8-3.3,2.4-3.3c1.5,0,2.3,1.3,2.3,3.5C45,35.2,44.2,36.3,42.7,36.3z"/>
		<path d="M59.1,33.8v-2.3c0-2.6-1.5-4.2-3.8-4.2c-1.5,0-2.8,0.7-3.5,1.6l0.1-1.2c0-0.1-0.1-0.2-0.2-0.2H49c-0.1,0-0.2,0.1-0.2,0.2
			v5.5l0,5c0,0.1,0.1,0.2,0.2,0.2h2.9c0.1,0,0.2-0.1,0.2-0.2l0-4.4V33c0-2.3,1.2-3.4,2.4-3.4c0.9,0,1.6,0.8,1.6,1.9v2.2l0,4.4
			c0,0.1,0.1,0.2,0.2,0.2H59c0.1,0,0.2-0.1,0.2-0.2L59.1,33.8z"/>
	</g>
	<g>
		<path d="M33.1,7.4h-2.8c-0.1,0-0.2,0.1-0.2,0.2l0.1,7.2l0,0.8c-0.5-2.8-2.4-4.5-5.4-4.5c-2.1,0-3.7,0.8-4.6,2.3v-1.8
			c0-0.1-0.1-0.2-0.2-0.2h-2.4l0-2.5c0-0.1-0.1-0.2-0.2-0.2h-2.8c-0.1,0-0.2,0.1-0.2,0.2l0,2.5h-1.2c-0.1,0-0.2,0.1-0.2,0.2v1.9
			c0,0.1,0.1,0.2,0.2,0.2h1.2l0,5.4c0,0,0,0.1,0,0.1L10.6,7.6c0-0.1-0.1-0.2-0.2-0.2h-4c-0.1,0-0.2,0.1-0.2,0.2L1.2,22
			c0,0.1,0,0.2,0.1,0.2h2.9c0.1,0,0.2-0.1,0.2-0.2l1.1-3.6H11l1.2,3.6c0,0.1,0.1,0.2,0.2,0.2h1.1h1.9c0,0,4.1,0,4.2,0
			c0.2,0,0.3-0.1,0.5-0.1c0.1,0,0.2-0.1,0.2-0.2v-1.6c0.9,1.4,2.5,2.3,4.7,2.3c3.1,0,4.9-1.8,5.2-3.8c0-0.1-0.1-0.2-0.1-0.2h-2.7
			c-0.1,0-0.2,0.1-0.2,0.2c-0.3,1.2-1,1.7-2.1,1.7c-1.5,0-2.3-0.9-2.4-2.9h7.7l0,4.6c0,0.1,0.1,0.2,0.2,0.2h2.8
			c0.1,0,0.2-0.1,0.2-0.2l-0.1-7.2l0.1-7.2C33.3,7.5,33.2,7.4,33.1,7.4z M6.3,15.8l1.9-6.3l2,6.3H6.3z M20,19.9
			c-0.3,0.1-0.7,0.2-1.2,0.2c-0.7,0-1.2-0.3-1.2-1.2l0-5.3h2.4c0,0,0,0,0,0c-0.5,0.9-0.8,2-0.8,3.2C19.3,17.9,19.6,19,20,19.9
			C20.1,19.9,20.1,19.9,20,19.9z M22.6,15.4c0.3-1.5,1-2.3,2.3-2.3c1.4,0,2,1.1,2.2,2.3H22.6z"/>
		<path d="M33.9,10.2h2.9c0.1,0,0.2-0.1,0.2-0.2V7.6c0-0.1-0.1-0.2-0.2-0.2h-2.9c-0.1,0-0.2,0.1-0.2,0.2v2.5
			C33.8,10.2,33.8,10.2,33.9,10.2z"/>
		<path d="M54.5,13.6c0.1,0,0.3,0,0.4,0c0.1,0,0.2-0.1,0.2-0.1v-2c0-0.1-0.1-0.2-0.2-0.2c-0.1,0-0.3,0-0.5,0c-1.6,0-3,0.6-3.9,1.9
			l0.1-1.7c0-0.1-0.1-0.2-0.2-0.2h-2.8c-0.1,0-0.2,0.1-0.2,0.2l0,3.6c-0.7-2.5-2.5-4-5.3-4c-2.8,0-4.6,1.5-5.3,3.9l0-3.4
			c0-0.1-0.1-0.2-0.2-0.2h-2.9c-0.1,0-0.2,0.1-0.2,0.2l0,5.3l0,5.2c0,0.1,0.1,0.2,0.2,0.2h2.9c0.1,0,0.2-0.1,0.2-0.2l0-3.4
			c0.6,2.3,2.4,3.9,5.3,3.9c3.1,0,4.9-1.8,5.2-3.8c0-0.1-0.1-0.2-0.1-0.2h-2.7c-0.1,0-0.2,0.1-0.2,0.2c-0.3,1.2-1,1.7-2.1,1.7
			c-1.5,0-2.3-0.9-2.4-2.9h7.6L47.5,22c0,0.1,0.1,0.2,0.2,0.2h2.8c0.1,0,0.2-0.1,0.2-0.2v-4.6C50.6,14.8,52.2,13.6,54.5,13.6z
			 M39.9,15.4c0.3-1.5,1-2.3,2.3-2.3c1.4,0,2,1.1,2.2,2.3H39.9z"/>
		<path d="M53.4,17.9c-1.2,0-2,0.8-2,2.1c0,1.2,0.8,2.1,2,2.1s2-0.9,2-2.1C55.4,18.7,54.6,17.9,53.4,17.9z M53.4,21.6
			c-1,0-1.6-0.6-1.6-1.7c0-1.1,0.5-1.7,1.6-1.7c1,0,1.6,0.7,1.6,1.7C54.9,21,54.4,21.6,53.4,21.6z"/>
		<path d="M53.8,20.2c0.3-0.1,0.5-0.3,0.5-0.7c0-0.5-0.4-0.7-1-0.7h-0.9c0,0-0.1,0-0.1,0.1V21c0,0,0,0.1,0.1,0.1h0.4
			c0,0,0.1,0,0.1-0.1v-0.8h0.2l0.2,0.3l0.3,0.4c0,0,0.1,0.1,0.1,0.1h0.5c0,0,0.1,0,0-0.1L53.8,20.2z M53.4,19.8H53v-0.6h0.4
			c0.3,0,0.4,0.1,0.4,0.3C53.8,19.7,53.6,19.8,53.4,19.8z"/>
	</g>
</g>
</svg>
