<?xml version="1.0" encoding="utf-8"?>
<!-- Generator: Adobe Illustrator 25.4.1, SVG Export Plug-In . SVG Version: 6.00 Build 0)  -->
<svg version="1.1" id="Layer_1" xmlns="http://www.w3.org/2000/svg" xmlns:xlink="http://www.w3.org/1999/xlink" x="0px" y="0px"
	 viewBox="0 0 70 100" style="enable-background:new 0 0 70 100;" xml:space="preserve">
<g>
	<g>
		<path d="M15.1,5.3l2.4,1.4L16,9.2l-0.8-0.5l-9.5,8.4l-2.8-1.7L15.1,5.3z M9,12.2l6,3.6l-0.6,2.4l-7.3-4.4L9,12.2z M15.2,8.8
			l1.5-2.5l1.6,0.9L15,22.8l-2.8-1.7L15.2,8.8z"/>
		<path d="M17.2,23.5c-0.2-0.8-0.1-1.6,0.6-2.7l3-4.9l-1.3-0.8l1.2-2l1.3,0.8l1.4-2.3l2.6,1.6l-1.4,2.3l1.7,1.1l-1.2,2l-1.7-1.1
			l-2.8,4.6c-0.3,0.4-0.4,0.8-0.3,1.1c0.1,0.3,0.3,0.6,0.7,0.8c0.1,0.1,0.2,0.1,0.3,0.2c0.1,0,0.2,0.1,0.3,0.1l-1.2,1.9
			c-0.2-0.1-0.3-0.1-0.6-0.3c-0.2-0.1-0.5-0.2-0.7-0.4C18.1,24.9,17.4,24.2,17.2,23.5z"/>
		<path d="M23.9,27.6c-0.5-0.8-0.7-1.7-0.6-2.7c0.1-1,0.4-2,1-3l0,0c0.6-1,1.3-1.8,2.2-2.3c0.8-0.5,1.7-0.8,2.6-0.8
			c0.9,0,1.9,0.3,2.8,0.9c0.9,0.6,1.6,1.3,2.1,2.1c0.4,0.8,0.6,1.7,0.6,2.6c-0.1,0.9-0.4,1.9-1,2.9l-0.5,0.8l-7.9-4.8l1-1.7l6.6,4
			l-2.2,0.8l0.6-1c0.3-0.6,0.5-1.1,0.6-1.6c0.1-0.5,0-0.9-0.2-1.3c-0.2-0.4-0.5-0.7-0.9-0.9c-0.4-0.2-0.8-0.4-1.3-0.4
			c-0.4,0-0.8,0.1-1.3,0.4c-0.4,0.3-0.8,0.7-1.1,1.2l-0.6,1c-0.3,0.5-0.5,1-0.6,1.5c-0.1,0.5,0,0.9,0.2,1.3c0.2,0.4,0.5,0.7,1,1
			c0.4,0.2,0.7,0.3,1,0.4c0.3,0,0.6,0,0.9,0c0.3-0.1,0.5-0.2,0.7-0.3l0.1,0l2.4,1.4l-0.1,0.1c-0.3,0.3-0.6,0.6-1.1,0.8
			c-0.4,0.2-0.9,0.4-1.4,0.5c-0.5,0.1-1.1,0.1-1.7-0.1c-0.6-0.1-1.3-0.4-2-0.8C25.1,29.2,24.4,28.5,23.9,27.6z"/>
		<path d="M39.8,20.2l2.6,1.6l-7.8,12.9L32,33.1L39.8,20.2z"/>
		<path d="M42.2,26.2l2.6,1.6L39,37.3l-2.6-1.6L42.2,26.2z M43.5,24.8c-0.1-0.4,0-0.8,0.2-1.2c0.2-0.4,0.6-0.6,1-0.7
			c0.4-0.1,0.8,0,1.2,0.2c0.4,0.2,0.6,0.6,0.8,1s0,0.8-0.2,1.2c-0.2,0.4-0.6,0.6-1,0.7c-0.4,0.1-0.8,0-1.2-0.2
			C43.9,25.5,43.6,25.2,43.5,24.8z"/>
		<path d="M42.9,39.1c-0.5-0.8-0.7-1.7-0.6-2.7c0.1-1,0.4-2,1-3l0,0c0.6-1,1.3-1.8,2.2-2.3c0.8-0.5,1.7-0.8,2.6-0.8
			c0.9,0,1.9,0.3,2.8,0.9c0.9,0.6,1.6,1.3,2.1,2.1c0.4,0.8,0.6,1.7,0.6,2.6c-0.1,0.9-0.4,1.9-1,2.9l-0.5,0.8l-7.9-4.8l1-1.7l6.6,4
			L49.7,38l0.6-1c0.3-0.6,0.5-1.1,0.6-1.6c0.1-0.5,0-0.9-0.2-1.3c-0.2-0.4-0.5-0.7-0.9-0.9c-0.4-0.2-0.8-0.4-1.3-0.4
			c-0.4,0-0.8,0.1-1.3,0.4c-0.4,0.3-0.8,0.7-1.1,1.2l-0.6,1c-0.3,0.5-0.5,1-0.6,1.5c-0.1,0.5,0,0.9,0.2,1.3c0.2,0.4,0.5,0.7,1,1
			c0.4,0.2,0.7,0.3,1,0.4c0.3,0,0.6,0,0.9,0c0.3-0.1,0.5-0.2,0.7-0.3l0.1,0l2.4,1.4l-0.1,0.1c-0.3,0.3-0.6,0.6-1.1,0.8
			c-0.4,0.2-0.9,0.4-1.4,0.5c-0.5,0.1-1.1,0.1-1.7-0.1c-0.6-0.1-1.3-0.4-2-0.8C44,40.6,43.3,39.9,42.9,39.1z"/>
		<path d="M56.7,35l2.6,1.6l-1,1.7l0.1,0c0.5-0.5,1-0.8,1.6-0.9c0.6-0.1,1.1,0,1.7,0.4c0.1,0.1,0.3,0.2,0.4,0.3s0.2,0.2,0.3,0.3
			L61,40.5c-0.1-0.1-0.2-0.2-0.3-0.4c-0.2-0.1-0.3-0.2-0.5-0.4c-0.4-0.3-0.8-0.4-1.2-0.4c-0.4,0-0.8,0.1-1.1,0.3
			c-0.4,0.2-0.7,0.6-1,1l-3.2,5.4l-2.6-1.6L56.7,35z"/>
	</g>
	<g>
		<path d="M12.8,26.8l4.9,3c1.3,0.8,2.2,1.7,2.9,2.7c0.6,1,0.9,2.2,0.8,3.4c-0.1,1.2-0.5,2.5-1.4,3.9l0,0c-0.8,1.4-1.8,2.4-2.8,3.1
			c-1.1,0.7-2.2,1-3.4,1c-1.2,0-2.5-0.5-3.8-1.2l-4.9-3L12.8,26.8z M10.9,40.2c0.8,0.5,1.6,0.7,2.3,0.7c0.7,0,1.5-0.2,2.1-0.7
			c0.7-0.5,1.3-1.2,1.8-2.1l0,0c0.5-0.9,0.9-1.7,0.9-2.5c0.1-0.8-0.1-1.5-0.4-2.2c-0.4-0.7-0.9-1.2-1.7-1.7l-1.9-1.1L9,39.1
			L10.9,40.2z"/>
		<path d="M19.6,48c-0.5-0.8-0.7-1.7-0.6-2.7c0.1-1,0.4-2,1-3l0,0c0.6-1,1.3-1.8,2.2-2.3c0.8-0.5,1.7-0.8,2.6-0.8
			c0.9,0,1.9,0.3,2.8,0.9c0.9,0.6,1.6,1.3,2.1,2.1c0.4,0.8,0.6,1.7,0.6,2.6c-0.1,0.9-0.4,1.9-1,2.9l-0.5,0.8L21,43.7l1-1.7l6.6,4
			l-2.2,0.8l0.6-1c0.3-0.6,0.5-1.1,0.6-1.6c0.1-0.5,0-0.9-0.2-1.3c-0.2-0.4-0.5-0.7-0.9-0.9c-0.4-0.2-0.8-0.4-1.3-0.4
			c-0.4,0-0.8,0.1-1.3,0.4c-0.4,0.3-0.8,0.7-1.1,1.2l-0.6,1c-0.3,0.5-0.5,1-0.6,1.5c-0.1,0.5,0,0.9,0.2,1.3c0.2,0.4,0.5,0.7,1,1
			c0.4,0.2,0.7,0.3,1,0.4c0.3,0,0.6,0,0.9,0c0.3-0.1,0.5-0.2,0.7-0.3l0.1,0l2.4,1.4L28,49.7c-0.3,0.3-0.6,0.6-1.1,0.8
			c-0.4,0.2-0.9,0.4-1.4,0.5c-0.5,0.1-1.1,0.1-1.7-0.1c-0.6-0.1-1.3-0.4-2-0.8C20.8,49.5,20.1,48.8,19.6,48z"/>
		<path d="M29.5,54.2c-0.5-0.6-0.7-1.3-0.8-1.9c-0.1-0.7,0-1.3,0.3-2l0-0.1l2.5,1.5l0,0.1c-0.1,0.4-0.1,0.8,0,1.2
			c0.2,0.4,0.5,0.7,1,1c0.3,0.2,0.6,0.3,0.9,0.4c0.3,0.1,0.5,0.1,0.7,0c0.2-0.1,0.4-0.2,0.5-0.4l0,0c0.2-0.3,0.2-0.5,0.1-0.8
			c-0.1-0.3-0.3-0.6-0.7-1L32.8,51c-0.8-0.8-1.3-1.5-1.5-2.2c-0.2-0.7-0.1-1.5,0.4-2.2l0,0c0.4-0.6,0.9-1,1.5-1.3
			c0.6-0.2,1.3-0.3,2-0.2c0.8,0.1,1.5,0.4,2.3,0.9c0.8,0.5,1.5,1.1,1.9,1.7c0.4,0.6,0.7,1.3,0.7,1.9c0,0.7-0.1,1.3-0.4,1.8l-0.1,0.1
			l-2.4-1.5l0-0.1c0.2-0.4,0.2-0.7,0-1.1c-0.1-0.4-0.4-0.7-0.9-1c-0.3-0.2-0.6-0.3-0.9-0.3s-0.5,0-0.7,0c-0.2,0.1-0.4,0.2-0.5,0.4
			l0,0c-0.1,0.2-0.2,0.5-0.1,0.8c0.1,0.3,0.3,0.6,0.8,1l1.4,1.3c0.9,0.8,1.4,1.6,1.6,2.2c0.2,0.7,0.1,1.4-0.4,2.1l0,0
			c-0.4,0.6-0.9,1.1-1.5,1.3c-0.6,0.2-1.3,0.3-2.1,0.2c-0.8-0.1-1.6-0.4-2.4-0.9C30.6,55.5,30,54.9,29.5,54.2z"/>
		<path d="M42.9,49.6l2.6,1.6l-5.8,9.6l-2.6-1.6L42.9,49.6z M44.2,48.1c-0.1-0.4,0-0.8,0.2-1.2c0.2-0.4,0.6-0.6,1-0.7
			c0.4-0.1,0.8,0,1.2,0.2s0.6,0.6,0.8,1c0.1,0.4,0,0.8-0.2,1.2c-0.2,0.4-0.6,0.6-1,0.7c-0.4,0.1-0.8,0-1.2-0.2
			C44.6,48.9,44.4,48.6,44.2,48.1z"/>
		<path d="M41.9,66c-0.5-0.6-0.8-1.3-1-1.9c-0.1-0.6-0.1-1.2,0.1-1.8l0-0.1l2.5,1.5l0,0.1c0,0.3,0.1,0.6,0.3,1
			c0.2,0.4,0.6,0.7,1.2,1.1c0.7,0.4,1.3,0.6,1.8,0.4c0.5-0.1,1-0.4,1.3-1l0.9-1.5l-0.1,0c-0.4,0.2-0.8,0.4-1.2,0.5
			c-0.4,0.1-0.9,0.1-1.4,0c-0.5-0.1-0.9-0.3-1.4-0.6c-0.8-0.5-1.4-1.1-1.7-1.8c-0.4-0.7-0.5-1.5-0.4-2.4c0.1-0.9,0.5-1.8,1.1-2.8
			l0,0c0.6-1,1.3-1.8,2.1-2.3c0.8-0.5,1.5-0.8,2.4-0.8c0.8,0,1.6,0.2,2.4,0.7c0.5,0.3,0.8,0.6,1.1,1c0.3,0.4,0.5,0.8,0.6,1.2
			c0.1,0.4,0.1,0.9,0.1,1.4l0.1,0l1-1.6l2.6,1.6L50.8,67c-0.4,0.7-1,1.2-1.7,1.5c-0.7,0.3-1.5,0.4-2.4,0.3c-0.9-0.1-1.8-0.5-2.8-1
			C43.1,67.3,42.4,66.7,41.9,66z M48.5,62.7c0.5,0,0.9-0.2,1.3-0.5c0.4-0.3,0.8-0.8,1.2-1.3l0,0c0.3-0.6,0.5-1.1,0.6-1.6
			c0.1-0.5,0-1-0.2-1.4c-0.2-0.4-0.5-0.8-0.9-1c-0.4-0.3-0.9-0.4-1.3-0.3c-0.5,0-0.9,0.2-1.3,0.5c-0.4,0.3-0.8,0.7-1.2,1.3l0,0
			c-0.3,0.6-0.6,1.1-0.6,1.6c-0.1,0.5,0,1,0.2,1.4c0.2,0.4,0.5,0.8,0.9,1C47.6,62.7,48,62.8,48.5,62.7z"/>
		<path d="M58.1,58.8l2.6,1.6l-0.9,1.6l0.1,0c0.6-0.4,1.2-0.6,1.9-0.6c0.7,0,1.4,0.2,2.1,0.6c1.1,0.6,1.7,1.4,1.9,2.4
			c0.2,1-0.1,2-0.7,3.2l-3.7,6.2l-2.6-1.6l3.4-5.6c0.4-0.6,0.5-1.2,0.4-1.7c-0.1-0.5-0.4-1-1-1.3c-0.4-0.2-0.8-0.3-1.2-0.3
			c-0.4,0-0.8,0.1-1.1,0.3c-0.3,0.2-0.6,0.5-0.9,1L55,69.9l-2.6-1.6L58.1,58.8z"/>
	</g>
	<path d="M12.5,61.2l0.4-10.8l2.9,1.8l-0.4,7.2l0.1,0l6.2-3.8l2.9,1.8l-9.4,5.4l-2.9,4.8L9.6,66L12.5,61.2z"/>
	<path d="M23.4,61.3l2.6,1.6l-5.8,9.6l-2.6-1.6L23.4,61.3z M24.7,59.9c-0.1-0.4,0-0.8,0.2-1.2c0.2-0.4,0.6-0.6,1-0.7
		c0.4-0.1,0.8,0,1.2,0.2c0.4,0.2,0.6,0.6,0.8,1c0.1,0.4,0,0.8-0.2,1.2c-0.2,0.4-0.6,0.6-1,0.7c-0.4,0.1-0.8,0-1.2-0.2
		C25.1,60.7,24.8,60.3,24.7,59.9z"/>
	<path d="M24.1,74.2c-0.5-0.8-0.7-1.7-0.6-2.7c0.1-1,0.4-2,1-3l0,0c0.6-1,1.3-1.8,2.2-2.3c0.8-0.5,1.7-0.8,2.6-0.8
		c0.9,0,1.9,0.3,2.8,0.9c0.9,0.6,1.6,1.3,2.1,2.1c0.4,0.8,0.6,1.7,0.6,2.6c-0.1,0.9-0.4,1.9-1,2.9l-0.5,0.8l-7.9-4.8l1-1.7l6.6,4
		l-2.2,0.8l0.6-1c0.3-0.6,0.5-1.1,0.6-1.6c0.1-0.5,0-0.9-0.2-1.3c-0.2-0.4-0.5-0.7-0.9-0.9c-0.4-0.2-0.8-0.4-1.3-0.4
		c-0.4,0-0.8,0.1-1.3,0.4c-0.4,0.3-0.8,0.7-1.1,1.2l-0.6,1c-0.3,0.5-0.5,1-0.6,1.5c-0.1,0.5,0,0.9,0.2,1.3c0.2,0.4,0.5,0.7,1,1
		c0.4,0.2,0.7,0.3,1,0.4c0.3,0,0.6,0,0.9,0c0.3-0.1,0.5-0.2,0.7-0.3l0.1,0l2.4,1.4L32.4,76c-0.3,0.3-0.6,0.6-1.1,0.8
		c-0.4,0.2-0.9,0.4-1.4,0.5c-0.5,0.1-1.1,0.1-1.7-0.1c-0.6-0.1-1.3-0.4-2-0.8C25.2,75.8,24.5,75.1,24.1,74.2z"/>
	<path d="M40,66.8l2.6,1.6l-7.8,12.9l-2.6-1.6L40,66.8z"/>
	<path d="M38.3,82.8c-0.3-0.8-0.4-1.6-0.3-2.5c0.1-0.9,0.5-1.9,1.1-3l0,0c0.6-1,1.3-1.8,2.1-2.4c0.8-0.5,1.6-0.8,2.4-0.9
		c0.8,0,1.6,0.2,2.4,0.7c0.7,0.4,1.2,0.9,1.5,1.6c0.3,0.6,0.4,1.3,0.3,2.1l0.1,0l3-5l2.6,1.6l-7.8,12.9l-2.6-1.6l1-1.6l-0.1,0
		c-0.6,0.4-1.3,0.6-2,0.6c-0.7,0-1.4-0.2-2.1-0.6C39.2,84.2,38.6,83.6,38.3,82.8z M43.5,83.4c0.5,0,0.9-0.2,1.3-0.5
		c0.4-0.3,0.8-0.8,1.2-1.3l0,0c0.3-0.6,0.6-1.1,0.6-1.7c0.1-0.5,0-1-0.2-1.4c-0.2-0.4-0.5-0.8-0.9-1c-0.4-0.3-0.9-0.4-1.3-0.3
		c-0.5,0-0.9,0.2-1.3,0.5c-0.4,0.3-0.8,0.8-1.2,1.3l0,0c-0.3,0.6-0.6,1.1-0.7,1.7c-0.1,0.5,0,1,0.1,1.4c0.2,0.4,0.5,0.8,0.9,1
		C42.6,83.3,43,83.4,43.5,83.4z"/>
	<path d="M47.9,88.8c-0.1-0.5,0-0.9,0.2-1.3c0.2-0.4,0.6-0.7,1-0.8c0.5-0.1,0.9,0,1.3,0.2c0.4,0.2,0.7,0.6,0.8,1
		c0.1,0.4,0,0.9-0.2,1.3c-0.2,0.4-0.6,0.7-1,0.8c-0.4,0.1-0.9,0-1.3-0.2C48.3,89.6,48,89.3,47.9,88.8z"/>
	<g>
		<path d="M53.9,91c-0.6-1.1-0.9-2.3-0.9-3.5c0-1.2,0.3-2.4,1-3.5c0.6-1.1,1.5-1.9,2.6-2.5c1.1-0.6,2.3-0.9,3.5-0.8
			c1.3,0,2.4,0.4,3.6,1.1c1.1,0.7,2,1.5,2.6,2.6c0.6,1.1,0.9,2.3,0.9,3.5c0,1.2-0.3,2.4-1,3.5c-0.6,1.1-1.5,1.9-2.6,2.5
			c-1.1,0.6-2.3,0.9-3.5,0.8c-1.3,0-2.4-0.4-3.6-1.1C55.4,93,54.5,92.1,53.9,91z M60.1,93.5c1,0,2-0.2,2.9-0.7
			c0.9-0.5,1.6-1.2,2.2-2.1c0.5-0.9,0.8-1.9,0.8-2.9c0-1-0.3-2-0.8-2.9S64,83.3,63,82.8c-0.9-0.6-1.9-0.8-3-0.9c-1,0-2,0.2-2.9,0.7
			c-0.9,0.5-1.6,1.2-2.2,2.1c-0.5,0.9-0.8,1.9-0.8,2.9c0,1,0.3,2,0.8,2.9c0.5,0.9,1.2,1.6,2.2,2.2C58,93.2,59,93.5,60.1,93.5z
			 M61.6,91.6c-0.5,0.2-1,0.3-1.6,0.3c-0.6,0-1.3-0.3-1.9-0.7c-1-0.6-1.6-1.4-1.9-2.4c-0.3-1,0-2,0.6-3.1c0.7-1.1,1.5-1.8,2.4-2
			c1-0.2,2,0,3,0.6c0.6,0.4,1.1,0.8,1.5,1.3c0.3,0.5,0.5,1,0.5,1.5c0,0.5,0,0.9-0.3,1.4l-1.6-0.9c0.3-0.8,0-1.4-0.9-2
			c-0.5-0.3-1.1-0.4-1.6-0.2c-0.5,0.2-1,0.6-1.5,1.4c-0.5,0.8-0.6,1.4-0.5,2c0.1,0.6,0.4,1,1,1.3c1,0.6,1.8,0.5,2.4-0.4l1.6,0.9
			C62.5,91,62.1,91.3,61.6,91.6z"/>
	</g>
</g>
</svg>
