<?xml version="1.0" encoding="utf-8"?>
<!-- Generator: Adobe Illustrator 26.1.0, SVG Export Plug-In . SVG Version: 6.00 Build 0)  -->
<svg version="1.1" id="Layer_1" xmlns="http://www.w3.org/2000/svg" xmlns:xlink="http://www.w3.org/1999/xlink" x="0px" y="0px"
	 viewBox="0 0 400 63.1" style="enable-background:new 0 0 400 63.1;" xml:space="preserve">
<g>
	<path d="M23.2,30c1.4-5.3,4.4-8.5,10.3-10.5c5.8-2,14.5-2.7,27.2-2.7c24.4,0,34.1,4,34.1,15.4v18.5c0,2.9,1.1,4.7,2.2,6H72.5
		c-0.5-1.1-0.8-2.4-0.9-3.8c-5.4,3.6-13.5,5.3-26.2,5.3c-16.1,0-26.2-3.2-26.2-13c0-7,6.8-11.5,24.5-12l20.2-0.7
		c4.8-0.2,6.4-1.1,6.4-3.2c0-2.5-4.3-3.7-11.1-3.7c-5.5,0-10.9,0.6-12.1,4.3H23.2z M70.9,39.2c-4,0.6-10.8,1.1-19.3,1.6
		c-4.4,0.3-6.5,1.3-6.5,3.8c0,2.7,3,4.3,8.9,4.3c8,0,16.9-1.5,16.9-8.1V39.2z"/>
	<path d="M87.1,18.3h12V6h25.8v12.3h13.9v10.9h-13.9v13.5c0,3.6,2.2,3.8,7.7,3.8c2.1,0,4.4-0.1,6.9-0.1v10.2
		c-4.5,0.4-10.7,0.8-18.8,0.8C105,57.5,99,55.5,99,45V29.3h-12V18.3z"/>
	<path d="M215.1,45.2c-2,4-6.3,7.3-12.9,9.5c-6.6,2.2-15.5,3.5-27.3,3.5c-27.1,0-42.6-6.7-42.6-20.7c0-13.2,14.9-20.7,40.2-20.7
		c25,0,43.3,5.7,42.9,24.8h-56.7c0,2.7,4.2,6.9,15.6,6.9c6.7,0,10.6-1,13.4-3.4H215.1z M189.4,32.8c-0.5-4.1-6.4-6.7-15.3-6.7
		c-9,0-14.1,1.9-15.5,6.7H189.4z"/>
	<path d="M210.7,4.9h25.8v51.8h-25.8V4.9z"/>
	<path d="M238.5,4.9h25.8v9.7h-25.8V4.9z M238.5,18.3h25.8v38.3h-25.8V18.3z"/>
	<path d="M342,45.2c-2,4-6.3,7.3-12.9,9.5c-6.6,2.2-15.5,3.5-27.3,3.5c-27.1,0-42.6-6.7-42.6-20.7c0-13.2,14.9-20.7,40.2-20.7
		c25,0,43.3,5.7,42.9,24.8h-56.7c0,2.7,4.2,6.9,15.6,6.9c6.7,0,10.6-1,13.4-3.4H342z M316.3,32.8c-0.5-4.1-6.4-6.7-15.3-6.7
		c-9,0-14.1,1.9-15.5,6.7H316.3z"/>
	<path d="M337.6,18.3h25v7.4h0.2c6.7-6,15.2-8.4,24-8.4c2.8,0,5.7,0.1,8.5,0.4v15.7c-4.5-0.8-8.4-1.4-12.9-1.4c-9.2,0-19,2-19,10.3
		v14.4h-25.8V18.3z"/>
	<g>
		<path d="M13.7,17.9c5,0,9,4,9,9c0,5-4,9-9,9c-5,0-9-4-9-9C4.7,21.9,8.8,17.9,13.7,17.9z M13.7,33.5c3.8,0,6.4-2.6,6.4-6.7
			c0-4.1-2.6-6.7-6.4-6.7s-6.4,2.6-6.4,6.7C7.4,31,9.9,33.5,13.7,33.5z M10.1,22H14c2.6,0,3.8,1.1,3.8,3.1c0,1.7-1.1,2.6-2.5,2.8
			l2.5,4h-2.3l-2.2-3.9h-0.8v3.9h-2.2V22z M12.3,26.1H14c1,0,1.6-0.2,1.6-1.2c0-1.1-1.1-1.2-1.8-1.2h-1.4V26.1z"/>
	</g>
</g>
</svg>
