<?xml version="1.0" encoding="utf-8"?>
<!-- Generator: Adobe Illustrator 26.0.3, SVG Export Plug-In . SVG Version: 6.00 Build 0)  -->
<svg version="1.1" id="Layer_1" xmlns="http://www.w3.org/2000/svg" xmlns:xlink="http://www.w3.org/1999/xlink" x="0px" y="0px"
	 viewBox="0 0 69.5 40" style="enable-background:new 0 0 69.5 40;" xml:space="preserve">
<style type="text/css">
	.st0{fill:#2176FF;}
	.st1{fill:#FFFFFF;}
</style>
<g>
	<path class="st0" d="M41.4,19.1c0.2-0.2,0.4-0.3,0.6-0.3c0.8-0.3,1.7-0.3,2.6-0.3c1.1,0.1,2.2,0.3,3.3,0.3c0.3,0,0.4,0.1,0.2,0.4
		c-0.6,1-1.5,1.7-2.6,2.2c-1,0.4-2.1,0.6-3.1,0.6c-1.4,0.1-2.9,0-4.3,0c-1.2,0-2.3,0-3.5,0.1c-0.7,0.1-1.1,0.4-1.3,1.1
		c-0.2,0.8-0.6,1.3-1.2,1.8c-0.9,0.8-2,1.4-3.1,1.9c-0.9,0.4-1.8,0.8-2.7,1.2c-0.1,0.1-0.3,0.1-0.4,0.1c-0.5,0-0.8,0.2-1.1,0.5
		c-0.3,0.3-0.6,0.6-0.9,0.9c-0.3,0.3-0.6,0.4-1,0.4c-0.2,0-0.3,0-0.3-0.3c0-0.2-0.1-0.4-0.2-0.6c-0.1-0.3-0.2-0.6,0.1-0.9
		c0.3-0.3,0.4-0.7,0.4-1.1c0-0.3-0.1-0.4-0.4-0.4c-0.1,0-0.3,0-0.4,0.1c-0.4,0.2-0.9,0.4-1.3,0.6c-0.4,0.2-0.7,0.3-1.1,0.3
		c-0.3,0-0.5-0.1-0.6-0.4c-0.2-0.4-0.3-0.7-0.4-1.2c-0.1-0.5,0-1,0.1-1.5c0-0.3,0.3-0.5,0.5-0.7c0.2-0.2,0.4-0.4,0.6-0.6
		c0.3-0.4,0.2-0.7-0.3-0.8c-0.3-0.1-0.6-0.1-0.9-0.1c-0.4,0-0.8,0.2-1.3,0.1c0.1-0.2,0.2-0.4,0.4-0.5c0.3-0.3,0.5-0.6,0.5-1.1
		c-0.1-0.7,0.1-1.3,0.3-2c0.1-0.3,0.2-0.6-0.1-0.9c-0.2-0.2-0.1-0.4,0.1-0.6c0.4-0.4,0.7-0.8,0.8-1.3c0-0.3,0-0.5-0.2-0.7
		c-0.2-0.1-0.2-0.3,0-0.5c0.2-0.2,0.5-0.5,0.6-0.8c0.2-0.3,0.2-0.7,0-1.1c-0.3-0.5-0.6-0.7-1.2-0.5c-0.8,0.3-1.5,0.6-2.1,1.3
		c-0.2,0.2-0.4,0.4-0.5,0.6c-0.3,0.5-0.2,0.8,0.2,1.2c0.3,0.3,0.3,0.4,0,0.6c-0.2,0.2-0.5,0.3-0.8,0.5c-0.3,0.2-0.6,0.3-0.9,0.5
		c-0.2,0.2-0.4,0.4-0.5,0.7c-0.1,0.3-0.1,0.6,0.2,0.9c0.2,0.2,0.2,0.3,0,0.5c-0.2,0.1-0.3,0.2-0.5,0.3c-0.6,0.3-0.8,0.7-0.8,1.3
		c0,0.3,0,0.5,0,0.8c0,0.3-0.1,0.5-0.2,0.8c-0.1,0.3-0.4,0.6-0.7,0.6c-0.6,0.1-1.1,0.2-1.7,0.3c-0.2,0-0.4,0-0.6,0
		c-0.4-0.1-0.6-0.3-0.8-0.7c-0.2-0.7-0.2-1.3,0-2c0.2-0.6,0.4-1.1,0.7-1.6c0.2-0.5,0.5-1,0.6-1.6c0-0.1,0.1-0.3,0.1-0.4
		c-0.1-0.5,0.2-0.9,0.4-1.2c1.3-1.7,1.9-3.7,1.8-5.9c0-0.3,0-0.5-0.2-0.8C12,9,11.9,8.9,12,8.7c0.2-0.5,0.3-0.9,0.6-1.4
		c0.4-0.5,0.9-0.8,1.5-0.9c0.7-0.1,1.4,0.1,2,0.1c1.3,0.1,2.6,0.4,3.7,1.1c0.4,0.3,0.8,0.5,1.2,0.9c0.1,0.1,0.3,0.2,0.4,0.4
		c-0.3,0.2-0.6,0.2-0.9,0.4c-0.3,0.1-0.6,0.3-0.8,0.6c-0.2,0.3-0.1,0.4,0.2,0.5c0.3,0.1,0.5,0,0.8-0.1c0.2-0.1,0.4-0.3,0.6-0.4
		c0.6-0.4,1.1-0.4,1.5,0.2c0.8,1,1.4,2.1,1.8,3.3c0.6,1.5,1,3.1,1.5,4.6c0.1,0.4,0.3,0.8,0.4,1.2c0.3,0.7,0.7,0.9,1.4,0.7
		c0.3-0.1,0.5-0.2,0.8-0.3c0.4-0.1,0.8-0.3,1.2-0.3c0.2,0,0.4-0.1,0.5-0.2c1.7-0.9,3.2-2,4.8-3.1c1.7-1.3,3.3-2.7,5.1-3.9
		c4.1-2.8,8-5.6,12.4-7.9c0.9-0.5,1.9-0.9,2.9-1.4c1-0.5,2.1-0.6,3.1-0.8c0.7-0.2,1.4-0.3,2.1-0.4c0.2,0,0.4-0.1,0.5-0.2
		c0.5-0.3,1.4-0.2,1.8,0.2c0.1,0.1,0.1,0.2,0.1,0.4c-0.1,0.4-0.2,0.7-0.4,1.1c-0.3,0.5-0.6,0.9-1,1.2c-0.8,0.8-1.7,1.5-2.7,2.1
		c-0.7,0.4-1.2,0.9-1.8,1.4c-0.6,0.6-1.2,1.3-1.8,1.9c-0.7,0.8-1.4,1.5-2.3,2.1c-0.5,0.3-0.8,0.8-1.2,1.2c-0.2,0.2-0.4,0.3-0.7,0.3
		c-1.2,0.1-2.4,0.3-3.5,1c-0.3,0.2-0.5,0.1-0.6-0.3c-0.1-0.3-0.1-0.6-0.3-0.8c-0.1-0.2,0-0.4,0.1-0.5c0.3-0.3,0.5-0.5,0.8-0.7
		c0.4-0.3,0.8-0.6,1.3-0.9c0.4-0.3,0.6-0.6,0.8-1c0.1-0.3,0-0.4-0.3-0.4c-0.3,0-0.6,0.1-0.9,0.2c-0.5,0.4-1.1,0.6-1.7,0.9
		c-1,0.5-1.9,1.2-2.8,1.9c-0.3,0.2-0.6,0.5-0.9,0.7c-0.3,0.3-0.6,0.5-0.8,0.9c-0.2,0.4-0.6,0.6-0.9,0.9c-0.4,0.3-0.7,0.5-1.1,0.8
		c-0.4,0.3-0.8,0.7-1,1.2c-0.1,0.3-0.3,0.4-0.5,0.5c-0.3,0.2-0.7,0.3-1,0.5c-0.3,0.2-0.3,0.4,0,0.6c0.2,0.1,0.3,0.1,0.5,0.2
		c0.3,0.1,0.3,0.2,0,0.4c-0.3,0.2-0.5,0.3-0.8,0.4c-0.4,0.1-0.7,0.2-1.1,0.3c-0.4,0.1-0.7,0.4-0.8,0.7c-0.1,0.3-0.1,0.4,0.2,0.5
		c0.5,0.2,0.9,0.3,1.4,0.3c1.1,0.1,2.2-0.1,3.3-0.3c0.3-0.1,0.6-0.1,0.9-0.1c0.5,0,1-0.3,1.5-0.5c0.1-0.1,0.2-0.1,0.3-0.3
		c0.2-0.3,0.1-0.4-0.1-0.6c-0.3-0.2-0.7-0.2-1-0.3C42,19.4,41.7,19.4,41.4,19.1z M50.2,7.8c1,0,1.8-0.5,2.6-1.1
		C51.7,6.8,50.9,7.1,50.2,7.8z M51.6,6c-0.9,0.1-1.6,0.4-2.2,1C50.3,6.9,51,6.5,51.6,6z"/>
	<path class="st0" d="M22.3,35.4c0-0.5,0.1-0.9,0.3-1.3c0.2-0.6,0.5-1.1,0.7-1.7c0-0.1,0.1-0.2,0.1-0.2c0.3-0.3,0.5-0.7,0.7-1
		c0.1-0.2,0.3-0.4,0.5-0.6c0.2-0.1,0.3-0.2,0.6-0.1c0.8,0.3,1.6,0.2,2.4-0.2c0.5-0.2,0.9-0.5,1.4-0.7c0.8-0.4,1.6-0.8,2.5-0.6
		c0.1,0,0.2,0,0.3-0.1c0.8-0.4,1.6-0.6,2.4-0.9c0.9-0.3,1.8-0.7,2.6-1.4c0.5-0.5,0.9-0.9,1.6-1.1c0.5-0.2,1-0.6,1.3-1.1
		c0.2-0.2,0.2-0.5,0.3-0.8c0-0.2,0.2-0.3,0.4-0.3c0.5,0.1,1,0.3,1.5,0.5c0.1,0.1,0.2,0.1,0.2,0.2c0.4,0.7,0.8,1.4,0.9,2.1
		c0.1,0.7,0,1.3-0.6,1.8c-0.4,0.3-0.7,0.7-0.9,1.2c-0.1,0.1-0.2,0.3-0.2,0.4c-0.5,1.1-1.2,2-2.2,2.6c-0.8,0.5-1.4,1.1-2.1,1.7
		c-0.6,0.5-1.3,1-2.1,1.3c-0.1,0.1-0.2,0.1-0.3,0.2c-0.5,0.5-1.2,0.9-1.9,1.1c-0.5,0.2-1,0.3-1.4,0.5c-0.6,0.2-1.2,0.4-1.7,0.8
		C29,38,28.6,38,28.2,38.1c-0.4,0.1-0.8,0.1-1.3,0.2c-0.6,0.1-1.1,0.2-1.6,0.5c-0.2,0.1-0.3,0.1-0.5,0c-0.4-0.1-0.7-0.3-0.9-0.5
		c-0.8-0.7-1.3-1.6-1.5-2.6C22.3,35.6,22.3,35.5,22.3,35.4z"/>
	<path class="st0" d="M18,33c-0.1,0.3-0.3,0.6-0.6,0.8c-1.4,1.3-3.1,2.2-5,2.6c-0.3,0.1-0.6,0.2-0.8,0.4c-1,0.6-1.9,1.2-2.8,1.9
		c-0.5,0.4-0.9,0.4-1.4,0c-0.4-0.2-0.7-0.5-1.2-0.5c-0.2,0-0.2-0.2-0.3-0.3c-0.3-0.4-0.5-0.7-0.9-1.1c-0.2-0.2-0.5-0.3-0.6-0.5
		c-0.1-0.2,0.1-0.5,0-0.8c-0.1-0.4-0.1-0.8-0.2-1.1c0-0.2-0.1-0.5-0.1-0.7c0-0.3,0-0.6,0.2-0.9c0.3-0.4,0.4-0.8,0.5-1.2
		C4.7,31,5,30.6,5.3,30.2c0.5-0.7,1.1-1.4,1.7-2c0.6-0.6,1.2-1.3,1.7-1.9c0.4-0.5,0.9-1,1.4-1.5c0.5-0.4,1.1-0.8,1.7-1
		c0.4-0.1,0.4-0.1,0.6,0.3c0.1,0.2,0.1,0.4,0.1,0.6c0.1,0.5,0.1,1,0.5,1.3c0.1,0.1,0.1,0.3,0.1,0.5c0,0.5-0.1,0.9-0.2,1.4
		c-0.1,0.5-0.1,0.9,0.2,1.3c0.2,0.2,0.3,0.5,0.4,0.8c0.5,0.8,1,1.1,1.9,1c0.2,0,0.4-0.1,0.6,0c0.3,0.1,0.4,0.2,0.2,0.5
		c-0.1,0.1-0.2,0.3-0.3,0.4c-0.1,0.1-0.2,0.2-0.2,0.3c-0.2,0.4-0.1,0.6,0.4,0.6c0.4,0,0.7,0.1,1.1,0.1C17.6,32.9,17.8,32.9,18,33z"
		/>
	<path class="st0" d="M51.4,13.9c-0.3,0.9-0.7,1.5-1.4,1.9c-0.6,0.3-1.2,0.5-1.8,0.6c-0.9,0.2-1.7,0.3-2.6,0.5c-0.1,0-0.2,0-0.4,0
		c-0.6-0.1-1.2-0.2-1.8-0.4c0-0.1,0.1-0.1,0.1-0.1c1-0.5,2.1-1,3.2-1.4c0.3-0.1,0.5-0.1,0.6,0.1c0.3,0.4,0.7,0.3,1,0.1
		c0.6-0.3,1.1-0.6,1.6-0.9C50.4,14.2,50.8,14,51.4,13.9z"/>
</g>
<g>
	<path class="st1" d="M65.6,12.3c0,0.5-0.1,1-0.3,1.5c-0.2,0.5-0.5,0.9-0.8,1.2c-0.4,0.4-0.8,0.6-1.2,0.8c-0.5,0.2-1,0.3-1.5,0.3
		h-0.1c-0.5,0-1.1-0.1-1.5-0.3c-0.5-0.2-0.9-0.5-1.2-0.8c-0.4-0.4-0.6-0.8-0.8-1.2c-0.2-0.5-0.3-1-0.3-1.5v-0.1c0-0.5,0.1-1,0.3-1.5
		s0.5-0.9,0.8-1.2c0.4-0.4,0.8-0.6,1.2-0.8c0.5-0.2,1-0.3,1.5-0.3h0.1c0.5,0,1,0.1,1.5,0.3c0.5,0.2,0.9,0.5,1.2,0.8
		c0.4,0.4,0.6,0.8,0.8,1.2S65.6,11.7,65.6,12.3L65.6,12.3z M64.4,10.6c-0.3-0.5-0.7-0.9-1.1-1.1c-0.5-0.3-1-0.4-1.6-0.4h-0.1
		c-0.6,0-1.1,0.1-1.6,0.4c-0.5,0.3-0.9,0.7-1.1,1.1c-0.3,0.5-0.4,1-0.4,1.6v0.1c0,0.6,0.1,1.1,0.4,1.6c0.3,0.5,0.7,0.9,1.1,1.1
		c0.5,0.3,1,0.4,1.6,0.4h0.1c0.6,0,1.1-0.1,1.6-0.4c0.5-0.3,0.9-0.7,1.1-1.1s0.4-1,0.4-1.6v-0.1C64.9,11.6,64.7,11.1,64.4,10.6z
		 M60.2,10.2h1.7c0.5,0,0.9,0.1,1.1,0.3c0.3,0.2,0.4,0.5,0.4,1c0,0.3-0.1,0.5-0.2,0.7c-0.1,0.2-0.3,0.4-0.6,0.4l0.9,1.6h-0.9
		l-0.8-1.5c0,0,0,0,0,0c0,0,0,0,0,0h-0.8v1.5h-0.7V10.2z M61.8,12.2c0.3,0,0.4-0.1,0.6-0.2c0.1-0.1,0.2-0.3,0.2-0.5v0
		c0-0.2-0.1-0.4-0.2-0.5c-0.1-0.1-0.3-0.2-0.6-0.2h-0.8v1.3H61.8z"/>
</g>
</svg>
