<?xml version="1.0" encoding="utf-8"?>
<!-- Generator: Adobe Illustrator 25.4.1, SVG Export Plug-In . SVG Version: 6.00 Build 0)  -->
<svg version="1.1" id="Layer_1" xmlns="http://www.w3.org/2000/svg" xmlns:xlink="http://www.w3.org/1999/xlink" x="0px" y="0px"
	 viewBox="0 0 100 28.4" style="enable-background:new 0 0 100 28.4;" xml:space="preserve">
<style type="text/css">
	.st0{fill:#231f20;}
</style>
<g>
	<path class="st0" d="M58.9,0.6h-5.1c-0.2,0-0.3,0.2-0.3,0.3l0.1,13.2l0,1.3c-1-5.1-4.4-8.2-9.9-8.2c-3.8,0-6.7,1.5-8.4,4.1V8
		c0-0.2-0.2-0.3-0.3-0.3h-4.5l0-4.7c0-0.2-0.2-0.3-0.3-0.3h-5.2c-0.2,0-0.3,0.2-0.3,0.3l0,4.7h-2.3c-0.2,0-0.3,0.2-0.3,0.3v3.5
		c0,0.2,0.2,0.3,0.3,0.3h2.3l0,9.9c0,0.1,0,0.1,0,0.2l-7.1-21c-0.1-0.2-0.2-0.3-0.4-0.3H9.9c-0.2,0-0.3,0.1-0.4,0.3L0.4,27.2
		c-0.1,0.2,0,0.3,0.2,0.3h5.3c0.2,0,0.3-0.1,0.4-0.3l2-6.5h10.1l2.1,6.5c0,0.2,0.2,0.3,0.4,0.3h2h3.4H34v0c0,0,0,0,0,0
		c0.3-0.1,0.6-0.2,0.9-0.3c0.2-0.1,0.3-0.2,0.3-0.4v-3c1.7,2.6,4.5,4.2,8.5,4.2c5.6,0,9-3.2,9.5-6.9c0-0.2-0.1-0.3-0.3-0.3h-4.9
		c-0.2,0-0.3,0.1-0.4,0.3c-0.5,2.2-1.9,3-3.8,3c-2.8,0-4.2-1.7-4.5-5.4h14.2l-0.1,8.4c0,0.2,0.2,0.3,0.3,0.3h5.1
		c0.2,0,0.3-0.2,0.3-0.3L59,14.1l0.1-13.2C59.2,0.8,59,0.6,58.9,0.6z M9.8,16l3.5-11.5L17,16H9.8z M34.9,23.5
		c-0.6,0.2-1.3,0.3-2.3,0.3c-1.3,0-2.1-0.5-2.1-2.2l0-9.8H35c0,0,0,0,0,0c-0.9,1.6-1.4,3.6-1.4,5.9C33.6,19.9,34,21.8,34.9,23.5
		C34.9,23.5,34.9,23.5,34.9,23.5z M39.5,15.2c0.5-2.7,1.8-4.1,4.2-4.1c2.5,0,3.7,2,4,4.1H39.5z"/>
	<path class="st0" d="M60.3,5.8h5.2c0.2,0,0.3-0.2,0.3-0.3V0.9c0-0.2-0.2-0.3-0.3-0.3h-5.2c-0.2,0-0.3,0.2-0.3,0.3v4.6
		C60,5.7,60.2,5.8,60.3,5.8z"/>
	<path class="st0" d="M97.9,11.9c0.2,0,0.5,0,0.8,0c0.2,0,0.3-0.1,0.3-0.3V8c0-0.2-0.2-0.3-0.3-0.4c-0.3,0-0.6-0.1-0.9-0.1
		c-2.9,0-5.5,1.2-7.1,3.5l0.2-3c0-0.2-0.2-0.3-0.3-0.3h-5.1c-0.2,0-0.3,0.2-0.3,0.3l0.1,6.4c-1.2-4.5-4.5-7.2-9.7-7.2
		c-5,0-8.5,2.6-9.6,6.9l0-6.1c0-0.2-0.2-0.3-0.3-0.3h-5.2C60.2,7.7,60,7.9,60,8l0.1,9.6L60,27.2c0,0.2,0.2,0.3,0.3,0.3h5.2
		c0.2,0,0.3-0.2,0.3-0.3l0-6.1c1.2,4.1,4.5,6.9,9.7,6.9c5.6,0,9-3.2,9.5-6.9c0-0.2-0.1-0.3-0.3-0.3h-4.9c-0.2,0-0.3,0.1-0.4,0.3
		c-0.5,2.2-1.9,3-3.8,3c-2.8,0-4.2-1.7-4.5-5.4h14l-0.1,8.4c0,0.2,0.2,0.3,0.3,0.3h5.1c0.2,0,0.3-0.2,0.3-0.3v-8.5
		C90.8,14.2,93.8,11.9,97.9,11.9z M71.3,15.2c0.5-2.7,1.8-4.1,4.2-4.1c2.5,0,3.7,2,4,4.1H71.3z"/>
	<path class="st0" d="M95.9,19.7c-2.3,0-3.7,1.5-3.7,3.9c0,2.3,1.5,3.8,3.7,3.8c2.3,0,3.7-1.6,3.7-3.8
		C99.6,21.2,98.1,19.7,95.9,19.7z M95.9,26.6c-1.8,0-2.9-1.2-2.9-3c0-1.9,1-3.1,2.9-3.1c1.8,0,2.9,1.2,2.9,3.1
		C98.8,25.5,97.7,26.6,95.9,26.6z"/>
	<path class="st0" d="M96.7,24c0.6-0.2,0.9-0.6,0.9-1.2c0-0.9-0.7-1.3-1.8-1.3h-1.6c-0.1,0-0.2,0.1-0.2,0.2v3.9
		c0,0.1,0.1,0.2,0.2,0.2H95c0.1,0,0.2-0.1,0.2-0.2v-1.4h0.4l0.4,0.6l0.5,0.8c0,0.1,0.2,0.2,0.3,0.2h0.9c0.1,0,0.1-0.1,0.1-0.2
		L96.7,24z M95.9,23.3h-0.7v-1.1h0.7c0.5,0,0.7,0.2,0.7,0.6S96.3,23.3,95.9,23.3z"/>
</g>
</svg>
