<?xml version="1.0" encoding="utf-8"?>
<!-- Generator: Adobe Illustrator 26.0.3, SVG Export Plug-In . SVG Version: 6.00 Build 0)  -->
<svg version="1.1" id="Layer_1" xmlns="http://www.w3.org/2000/svg" xmlns:xlink="http://www.w3.org/1999/xlink" x="0px" y="0px"
	 viewBox="0 0 61.4 40" style="enable-background:new 0 0 61.4 40;" xml:space="preserve">
<style type="text/css">
	.st0{fill:#EC008C;}
</style>
<g>
	<g>
		<path class="st0" d="M37.1,19.2c0.1-0.2,0.4-0.2,0.5-0.3c0.8-0.3,1.7-0.3,2.5-0.3c1.1,0.1,2.1,0.3,3.2,0.2c0.3,0,0.4,0.1,0.2,0.4
			c-0.6,1-1.5,1.6-2.5,2.1c-1,0.4-2,0.5-3,0.6c-1.4,0.1-2.7,0-4.1,0c-1.1,0-2.2,0-3.4,0.1c-0.7,0.1-1.1,0.4-1.2,1
			c-0.2,0.7-0.6,1.2-1.2,1.7c-0.9,0.7-1.9,1.3-3,1.8c-0.9,0.4-1.8,0.8-2.6,1.2c-0.1,0.1-0.3,0.1-0.4,0.1c-0.4,0-0.8,0.2-1.1,0.5
			c-0.3,0.3-0.6,0.5-0.9,0.8c-0.3,0.2-0.6,0.4-1,0.4c-0.2,0-0.3,0-0.3-0.3c0-0.2-0.1-0.4-0.2-0.6c-0.1-0.3-0.1-0.6,0.1-0.9
			c0.3-0.3,0.4-0.7,0.4-1.1c0-0.3-0.1-0.4-0.4-0.4c-0.1,0-0.3,0-0.4,0.1c-0.4,0.2-0.9,0.4-1.3,0.6c-0.3,0.2-0.7,0.3-1.1,0.2
			c-0.3,0-0.5-0.1-0.6-0.4c-0.2-0.3-0.3-0.7-0.4-1.1c0-0.5,0-0.9,0.1-1.4c0-0.3,0.2-0.5,0.5-0.7c0.2-0.2,0.4-0.3,0.5-0.6
			c0.2-0.4,0.2-0.6-0.3-0.8c-0.3-0.1-0.6-0.1-0.9-0.1c-0.4,0-0.8,0.2-1.2,0.1c0.1-0.2,0.2-0.3,0.4-0.5c0.3-0.3,0.5-0.6,0.4-1
			c-0.1-0.7,0.1-1.3,0.3-1.9c0.1-0.3,0.2-0.6-0.1-0.9c-0.2-0.2-0.1-0.4,0.1-0.6c0.4-0.3,0.7-0.8,0.7-1.3c0-0.3,0-0.5-0.2-0.6
			c-0.2-0.1-0.2-0.3,0-0.4c0.2-0.2,0.4-0.5,0.6-0.8c0.2-0.3,0.2-0.7,0-1c-0.3-0.5-0.6-0.6-1.1-0.4c-0.7,0.3-1.5,0.6-2,1.2
			c-0.2,0.2-0.3,0.4-0.4,0.6c-0.2,0.5-0.2,0.7,0.2,1.1c0.3,0.3,0.3,0.4,0,0.6c-0.2,0.2-0.5,0.3-0.8,0.4c-0.3,0.2-0.6,0.3-0.9,0.5
			c-0.2,0.2-0.4,0.4-0.5,0.7c-0.1,0.3-0.1,0.6,0.2,0.9c0.2,0.2,0.2,0.3,0,0.5c-0.1,0.1-0.3,0.2-0.5,0.3c-0.5,0.3-0.8,0.7-0.8,1.2
			c0,0.2,0,0.5,0,0.7c0,0.3-0.1,0.5-0.2,0.8c-0.1,0.3-0.4,0.6-0.7,0.6C8,23,7.5,23.2,6.9,23.3c-0.2,0-0.4,0-0.6,0
			c-0.4-0.1-0.6-0.3-0.7-0.7c-0.2-0.6-0.2-1.3,0-1.9c0.2-0.5,0.4-1,0.6-1.5c0.2-0.5,0.5-1,0.6-1.5c0-0.1,0.1-0.3,0.1-0.4
			c-0.1-0.5,0.2-0.8,0.4-1.2c1.2-1.7,1.9-3.5,1.7-5.6c0-0.3,0-0.5-0.2-0.8c-0.1-0.2-0.1-0.3,0-0.5C9,8.7,9.1,8.3,9.4,7.9
			c0.3-0.5,0.8-0.8,1.5-0.9c0.7-0.1,1.3,0.1,1.9,0.1c1.3,0.1,2.5,0.4,3.6,1.1c0.4,0.2,0.8,0.5,1.1,0.8c0.1,0.1,0.3,0.2,0.4,0.4
			c-0.3,0.2-0.6,0.2-0.9,0.3c-0.3,0.1-0.6,0.3-0.7,0.5c-0.2,0.3-0.1,0.4,0.2,0.4c0.3,0.1,0.5,0,0.7-0.1c0.2-0.1,0.4-0.3,0.6-0.4
			c0.6-0.4,1-0.4,1.5,0.2c0.8,1,1.3,2,1.8,3.2c0.6,1.4,1,2.9,1.4,4.4c0.1,0.4,0.3,0.8,0.4,1.2c0.2,0.7,0.7,0.9,1.4,0.7
			c0.2-0.1,0.5-0.2,0.7-0.3c0.4-0.1,0.7-0.3,1.1-0.3c0.2,0,0.3-0.1,0.5-0.2c1.6-0.8,3.1-1.9,4.6-3c1.6-1.2,3.2-2.6,4.9-3.8
			c3.9-2.6,7.7-5.4,11.9-7.6c0.9-0.5,1.8-0.9,2.8-1.3c1-0.5,2-0.6,3-0.8c0.7-0.2,1.3-0.3,2-0.4c0.2,0,0.3-0.1,0.5-0.2
			c0.5-0.3,1.3-0.2,1.7,0.2C58,2.3,58,2.4,57.9,2.6c-0.1,0.4-0.2,0.7-0.4,1C57.3,4,57,4.4,56.6,4.8c-0.8,0.8-1.6,1.5-2.6,2
			c-0.6,0.4-1.2,0.8-1.7,1.4c-0.6,0.6-1.1,1.2-1.7,1.8c-0.7,0.7-1.4,1.4-2.2,2c-0.4,0.3-0.8,0.8-1.2,1.2c-0.2,0.2-0.4,0.3-0.6,0.3
			c-1.2,0.1-2.3,0.3-3.4,0.9c-0.3,0.2-0.5,0.1-0.6-0.3c-0.1-0.3-0.1-0.6-0.3-0.8c-0.1-0.2,0-0.3,0.1-0.5c0.2-0.2,0.5-0.4,0.8-0.6
			c0.4-0.3,0.8-0.5,1.2-0.8c0.3-0.3,0.6-0.6,0.7-1c0.1-0.3,0-0.4-0.3-0.4c-0.3,0-0.6,0-0.9,0.2c-0.5,0.3-1.1,0.6-1.6,0.9
			c-1,0.5-1.8,1.2-2.7,1.8c-0.3,0.2-0.5,0.5-0.8,0.7c-0.3,0.3-0.6,0.5-0.8,0.9c-0.2,0.4-0.5,0.6-0.9,0.8c-0.3,0.2-0.7,0.5-1,0.7
			c-0.4,0.3-0.8,0.7-0.9,1.2c-0.1,0.3-0.3,0.4-0.5,0.5c-0.3,0.2-0.7,0.3-1,0.5c-0.3,0.2-0.3,0.4,0,0.6c0.2,0.1,0.3,0.1,0.5,0.2
			c0.2,0.1,0.2,0.2,0,0.4c-0.2,0.2-0.5,0.3-0.8,0.3c-0.3,0.1-0.7,0.2-1,0.3c-0.3,0.1-0.6,0.3-0.8,0.7c-0.1,0.3-0.1,0.4,0.2,0.5
			c0.4,0.2,0.9,0.3,1.4,0.3c1.1,0.1,2.1-0.1,3.2-0.2c0.3,0,0.6-0.1,0.9-0.1c0.5,0,1-0.3,1.4-0.5c0.1-0.1,0.2-0.1,0.3-0.2
			c0.2-0.2,0.1-0.4-0.1-0.6c-0.3-0.2-0.6-0.2-1-0.3C37.6,19.4,37.3,19.4,37.1,19.2z M45.5,8.3c1,0,1.7-0.5,2.4-1.1
			C47,7.4,46.1,7.7,45.5,8.3z M46.9,6.6C46,6.6,45.3,7,44.7,7.5C45.6,7.4,46.3,7.1,46.9,6.6z"/>
		<path class="st0" d="M18.7,34.7c0-0.5,0.1-0.9,0.3-1.2c0.2-0.5,0.5-1.1,0.6-1.6c0-0.1,0.1-0.2,0.1-0.2c0.3-0.3,0.5-0.6,0.7-1
			c0.1-0.2,0.3-0.4,0.5-0.6c0.2-0.1,0.3-0.2,0.5-0.1c0.8,0.3,1.5,0.2,2.3-0.2c0.5-0.2,0.9-0.5,1.3-0.7c0.8-0.4,1.5-0.7,2.4-0.6
			c0.1,0,0.2,0,0.3-0.1c0.7-0.4,1.5-0.6,2.3-0.9c0.9-0.3,1.8-0.7,2.5-1.4c0.5-0.4,0.9-0.8,1.5-1c0.5-0.2,0.9-0.6,1.3-1
			c0.2-0.2,0.2-0.5,0.3-0.8c0-0.2,0.1-0.3,0.4-0.3c0.5,0.1,1,0.3,1.4,0.5c0.1,0.1,0.2,0.1,0.2,0.2c0.4,0.7,0.8,1.3,0.9,2.1
			c0.1,0.7,0,1.3-0.6,1.8c-0.4,0.3-0.6,0.7-0.9,1.1c-0.1,0.1-0.2,0.2-0.2,0.4c-0.4,1.1-1.1,1.9-2.1,2.5c-0.7,0.5-1.4,1.1-2,1.7
			c-0.6,0.5-1.3,1-2,1.3c-0.1,0.1-0.2,0.1-0.3,0.2c-0.5,0.5-1.2,0.8-1.8,1.1c-0.5,0.2-0.9,0.3-1.4,0.5c-0.6,0.2-1.1,0.4-1.6,0.8
			c-0.3,0.2-0.7,0.2-1.1,0.3c-0.4,0.1-0.8,0.1-1.2,0.2c-0.6,0.1-1.1,0.2-1.6,0.5c-0.2,0.1-0.3,0.1-0.5,0c-0.3-0.1-0.6-0.2-0.9-0.5
			c-0.8-0.7-1.2-1.5-1.5-2.5C18.7,35,18.7,34.8,18.7,34.7z"/>
		<path class="st0" d="M14.6,32.4c-0.1,0.3-0.3,0.6-0.6,0.8c-1.4,1.2-3,2.1-4.8,2.5c-0.3,0.1-0.5,0.2-0.8,0.3
			c-1,0.5-1.8,1.2-2.7,1.8c-0.5,0.4-0.9,0.3-1.4,0c-0.4-0.2-0.7-0.5-1.2-0.5c-0.2,0-0.2-0.2-0.3-0.3c-0.3-0.3-0.5-0.7-0.8-1
			c-0.2-0.2-0.5-0.3-0.6-0.5c-0.1-0.2,0.1-0.5,0-0.8c-0.1-0.4-0.1-0.7-0.2-1.1c0-0.2-0.1-0.4-0.1-0.7c0-0.3,0-0.6,0.2-0.8
			c0.3-0.4,0.4-0.8,0.5-1.2c0.1-0.5,0.4-0.9,0.7-1.3c0.5-0.7,1-1.3,1.7-1.9c0.6-0.6,1.1-1.2,1.6-1.9c0.4-0.5,0.8-1,1.3-1.4
			c0.5-0.4,1-0.8,1.6-1c0.3-0.1,0.4-0.1,0.5,0.3c0.1,0.2,0.1,0.4,0.1,0.6c0.1,0.5,0.1,0.9,0.5,1.2C10,25.8,10,26,10,26.2
			c0,0.4-0.1,0.9-0.2,1.3c-0.1,0.4-0.1,0.8,0.1,1.2c0.2,0.2,0.3,0.5,0.4,0.8c0.5,0.8,0.9,1,1.9,0.9c0.2,0,0.4-0.1,0.6,0
			c0.3,0.1,0.4,0.2,0.2,0.5c-0.1,0.1-0.2,0.2-0.2,0.4c-0.1,0.1-0.2,0.2-0.2,0.3c-0.2,0.4-0.1,0.5,0.3,0.6c0.4,0,0.7,0.1,1.1,0.1
			C14.2,32.3,14.4,32.4,14.6,32.4z"/>
		<path class="st0" d="M46.7,14.2C46.4,15,46,15.6,45.3,16c-0.5,0.3-1.1,0.5-1.7,0.6c-0.8,0.2-1.7,0.3-2.5,0.5c-0.1,0-0.2,0-0.3,0
			c-0.6,0-1.2-0.2-1.8-0.4c0-0.1,0.1-0.1,0.1-0.1c1-0.5,2-1,3-1.3c0.3-0.1,0.4-0.1,0.6,0.1c0.3,0.3,0.6,0.3,1,0.1
			c0.5-0.3,1-0.6,1.5-0.9C45.6,14.4,46.1,14.2,46.7,14.2z"/>
	</g>
	<g>
		<path class="st0" d="M60.2,12.6c0,0.5-0.1,1-0.3,1.5c-0.2,0.5-0.5,0.8-0.8,1.2c-0.3,0.3-0.7,0.6-1.2,0.8c-0.4,0.2-0.9,0.3-1.5,0.3
			h-0.1c-0.5,0-1-0.1-1.5-0.3c-0.5-0.2-0.8-0.5-1.2-0.8c-0.3-0.3-0.6-0.7-0.8-1.2c-0.2-0.5-0.3-0.9-0.3-1.5v0c0-0.5,0.1-1,0.3-1.5
			c0.2-0.4,0.5-0.8,0.8-1.2c0.3-0.3,0.7-0.6,1.2-0.8c0.5-0.2,0.9-0.3,1.5-0.3h0.1c0.5,0,1,0.1,1.5,0.3c0.4,0.2,0.8,0.5,1.2,0.8
			c0.3,0.3,0.6,0.7,0.8,1.2C60.2,11.5,60.2,12,60.2,12.6L60.2,12.6z M59.2,11c-0.3-0.5-0.6-0.8-1.1-1.1c-0.5-0.3-1-0.4-1.5-0.4h-0.1
			c-0.6,0-1.1,0.1-1.5,0.4c-0.5,0.3-0.8,0.6-1.1,1.1c-0.3,0.5-0.4,1-0.4,1.5v0c0,0.6,0.1,1.1,0.4,1.5c0.3,0.5,0.6,0.8,1.1,1.1
			c0.5,0.3,1,0.4,1.5,0.4h0.1c0.6,0,1.1-0.1,1.5-0.4c0.5-0.3,0.8-0.6,1.1-1.1c0.3-0.5,0.4-1,0.4-1.5v0C59.6,12,59.4,11.4,59.2,11z
			 M55,10.6h1.6c0.5,0,0.8,0.1,1.1,0.3c0.2,0.2,0.4,0.5,0.4,0.9c0,0.2-0.1,0.5-0.2,0.7c-0.1,0.2-0.3,0.3-0.6,0.4l0.9,1.6h-0.8
			l-0.8-1.4c0,0,0,0,0,0c0,0,0,0,0,0h-0.7v1.4H55V10.6z M56.6,12.5c0.2,0,0.4-0.1,0.6-0.2c0.1-0.1,0.2-0.3,0.2-0.5v0
			c0-0.2-0.1-0.3-0.2-0.5c-0.1-0.1-0.3-0.2-0.6-0.2h-0.8v1.3H56.6z"/>
	</g>
</g>
</svg>
