<?xml version="1.0" encoding="utf-8"?>
<!-- Generator: Adobe Illustrator 26.0.1, SVG Export Plug-In . SVG Version: 6.00 Build 0)  -->
<svg version="1.1" id="Layer_1" xmlns="http://www.w3.org/2000/svg" xmlns:xlink="http://www.w3.org/1999/xlink" x="0px" y="0px"
	 viewBox="0 0 40 9.2" style="enable-background:new 0 0 40 9.2;" xml:space="preserve">
<style type="text/css">
	.st0{fill:#231f20;}
</style>
<g>
	<path class="st0" d="M13.7,2h1.1c0.1,0,0.1,0,0.1-0.1l0.2-0.9c0-0.1,0-0.1-0.1-0.1H14c-0.1,0-0.1,0-0.1,0.1l-0.2,0.9
		C13.6,1.9,13.7,2,13.7,2z"/>
	<path class="st0" d="M19.1,2.5c0-0.1,0-0.1-0.1-0.1h-1c-0.1,0-0.1,0.1-0.1,0.1L17.8,3c-0.3-0.5-0.7-0.7-1.4-0.7c-1,0-1.6,0.7-2,1.4
		l0.3-1.3c0-0.1,0-0.1-0.1-0.1h-1.1c-0.1,0-0.1,0-0.1,0.1L13,4.5l-0.2,0.7c-0.1-1.4-2.4-1-2.4-1.7c0-0.3,0.2-0.5,0.7-0.5
		c0.5,0,0.7,0.2,0.8,0.6c0,0.1,0.1,0.1,0.1,0.1h1c0.1,0,0.1-0.1,0.1-0.1c0-0.9-0.9-1.3-1.9-1.3c-1.3,0-1.9,0.6-2,1.3
		C9.1,2.7,8.4,2.3,7.4,2.3c-1.2,0-1.9,0.6-2.3,1.4l0.7-2.7c0-0.1,0-0.1-0.1-0.1H4.6c-0.1,0-0.1,0-0.1,0.1L4,3
		C3.7,2.5,3.3,2.3,2.7,2.3c-1.2,0-1.8,0.9-2.1,1.9C0.2,5.7,0.9,6.8,2.1,6.8c0.4,0,0.8-0.2,1.1-0.4L3.2,6.6c0,0.1,0,0.1,0.1,0.1h1.1
		c0.1,0,0.1,0,0.1-0.1L4.8,5c0,1,0.7,1.8,2,1.8c1.1,0,1.7-0.4,2.1-1c0.2,0.6,1,1,2.1,1c0.9,0,1.5-0.3,1.8-0.8l-0.2,0.6
		c0,0.1,0,0.1,0.1,0.1h1.1c0.1,0,0.1,0,0.1-0.1l0.4-2l0-0.1c-0.2,1.3,0.5,2.2,1.6,2.2c0.5,0,0.9-0.2,1.2-0.5L17,6.6
		c-0.2,0.7-0.5,1-1.1,1c-0.4,0-0.7-0.2-0.8-0.5c0-0.1-0.1-0.1-0.1-0.1h-1c-0.1,0-0.1,0-0.1,0.1c0,0.9,0.9,1.4,1.9,1.4
		c1.4,0,2.2-0.7,2.4-1.8l0.4-2L19.1,2.5z M3.7,4.8C3.5,5.5,3.1,6,2.6,5.9c-0.6,0-1-0.6-0.7-1.6c0.2-0.8,0.5-1.2,1-1.2
		c0,0,0.2,0,0.2,0C3.6,3.2,3.9,3.8,3.7,4.8z M7.3,3.1C7.8,3.1,8.1,3.5,8,4H6.2C6.4,3.5,6.7,3.1,7.3,3.1z M10.9,6
		c-0.6,0-0.9-0.2-1-0.7c0-0.1-0.1-0.1-0.1-0.1H8.9c0,0,0,0,0,0h-1c-0.1,0-0.1,0-0.2,0.1C7.6,5.8,7.3,6,6.8,6C6.3,6,6,5.6,6,5
		c0-0.1,0-0.1,0-0.2h3.1c0.1,0,0.1,0,0.1-0.1c0.1-0.3,0.1-0.5,0.1-0.7c0.3,1.2,2.3,0.9,2.3,1.6C11.6,5.8,11.4,6,10.9,6z M17.4,4.5
		c0,0.1-0.1,0.2-0.1,0.3c-0.2,0.6-0.5,1-1,0.9c-0.7,0-1-0.5-0.7-1.5c0.2-0.7,0.5-1.1,1-1.2c0.1,0,0.2,0,0.3,0
		C17.3,3.2,17.6,3.7,17.4,4.5z"/>
	<path class="st0" d="M21.8,2.3c-0.5,0-1,0.3-1.4,0.6l0.1-0.4c0-0.1,0-0.1-0.1-0.1h-1c-0.1,0-0.1,0-0.1,0.1l-0.5,2.1l-0.5,2
		c0,0.1,0,0.1,0.1,0.1h1.1c0.1,0,0.1,0,0.1-0.1l0.4-1.7l0.1-0.3c0.2-0.9,0.7-1.3,1.2-1.3c0.4,0,0.7,0.3,0.6,0.8l-0.2,0.9l-0.4,1.7
		c0,0.1,0,0.1,0.1,0.1h1.1c0.1,0,0.1,0,0.1-0.1l0.4-1.7L23.1,4C23.3,2.9,22.8,2.3,21.8,2.3z"/>
	<path class="st0" d="M28.3,2h1.1c0.1,0,0.1,0,0.1-0.1l0.2-0.9c0-0.1,0-0.1-0.1-0.1h-1.1c-0.1,0-0.1,0-0.1,0.1l-0.2,0.9
		C28.2,1.9,28.3,2,28.3,2z"/>
	<path class="st0" d="M35.1,0.9c0-0.1,0-0.1-0.1-0.1H34c-0.1,0-0.1,0-0.1,0.1l-0.6,2.7c-0.2-0.9-0.8-1.4-1.9-1.4
		c-1.3,0-2,0.7-2.4,1.6l0.3-1.3c0-0.1,0-0.1-0.1-0.1h-1h-0.1h-1c-0.1,0-0.1,0-0.2,0.1l-1.4,2.7l-0.3-2.7c0-0.1-0.1-0.1-0.1-0.1h-1
		C24,2.4,24,2.4,24,2.5l0.7,4.1L23.9,8c0,0,0,0.1,0.1,0.1H25c0.1,0,0.1,0,0.2-0.1l2.7-4.7l-0.3,1.2l-0.5,2c0,0.1,0,0.1,0.1,0.1h1.1
		c0.1,0,0.1,0,0.1-0.1l0.4-2c0,0.1,0,0.2,0,0.4c0,1.1,0.6,1.8,2,1.8c0.9,0,1.6-0.4,1.9-0.8l-0.2,0.6c0,0.1,0,0.1,0.1,0.1h1.1
		c0.1,0,0.1,0,0.1-0.1l0.6-2.8L35.1,0.9z M31.3,3.1c0.6,0,0.8,0.4,0.8,0.9h-1.8C30.4,3.5,30.8,3.1,31.3,3.1z M32,5.2
		c-0.1,0-0.1,0-0.2,0.1c-0.2,0.4-0.5,0.6-1,0.6c-0.5,0-0.8-0.3-0.8-1c0-0.1,0-0.1,0-0.2H33l-0.1,0.4H32z"/>
	<path class="st0" d="M39.4,0.8h-1.1c-0.1,0-0.1,0-0.1,0.1L37.8,3c-0.3-0.5-0.7-0.7-1.3-0.7c-1.2,0-1.8,0.9-2.1,1.9
		c-0.4,1.5,0.3,2.6,1.5,2.6c0.4,0,0.8-0.2,1.1-0.4l-0.1,0.2c0,0.1,0,0.1,0.1,0.1h1.1c0.1,0,0.1,0,0.1-0.1l0.6-2.8l0.7-2.8
		C39.5,0.9,39.5,0.8,39.4,0.8z M37.4,4.8c-0.2,0.8-0.6,1.2-1.1,1.2c-0.6,0-1-0.6-0.7-1.6c0.2-0.8,0.5-1.2,1-1.2c0,0,0.2,0,0.2,0
		C37.4,3.2,37.6,3.8,37.4,4.8z"/>
</g>
</svg>
