<?xml version="1.0" encoding="utf-8"?>
<!-- Generator: Adobe Illustrator 26.0.0, SVG Export Plug-In . SVG Version: 6.00 Build 0)  -->
<svg version="1.1" id="Layer_1" xmlns="http://www.w3.org/2000/svg" xmlns:xlink="http://www.w3.org/1999/xlink" x="0px" y="0px"
	 viewBox="0 0 20 20" style="enable-background:new 0 0 20 20;" xml:space="preserve">
<style type="text/css">
	.st0{fill:#5D737E;}
</style>
<g>
	<path class="st0" d="M12.6,9.7c0.1-0.1,0.1-0.1,0.2-0.1c0.3-0.1,0.6-0.1,0.9-0.1c0.4,0,0.7,0.1,1.1,0.1c0.1,0,0.1,0,0.1,0.1
		c-0.2,0.3-0.5,0.6-0.9,0.7c-0.3,0.1-0.7,0.2-1.1,0.2c-0.5,0-1,0-1.4,0c-0.4,0-0.8,0-1.2,0c-0.2,0-0.4,0.1-0.4,0.4
		c-0.1,0.3-0.2,0.4-0.4,0.6c-0.3,0.3-0.7,0.5-1,0.6c-0.3,0.1-0.6,0.3-0.9,0.4c0,0-0.1,0-0.1,0c-0.2,0-0.3,0.1-0.4,0.2
		c-0.1,0.1-0.2,0.2-0.3,0.3c-0.1,0.1-0.2,0.1-0.3,0.1c-0.1,0-0.1,0-0.1-0.1c0-0.1,0-0.1-0.1-0.2c0-0.1-0.1-0.2,0-0.3
		c0.1-0.1,0.1-0.2,0.1-0.4c0-0.1,0-0.1-0.1-0.1c0,0-0.1,0-0.1,0c-0.2,0.1-0.3,0.1-0.5,0.2c-0.1,0.1-0.2,0.1-0.4,0.1
		c-0.1,0-0.2,0-0.2-0.1C5,12.2,4.9,12.1,4.9,12c0-0.2,0-0.3,0-0.5c0-0.1,0.1-0.2,0.2-0.2c0.1-0.1,0.1-0.1,0.2-0.2
		c0.1-0.1,0.1-0.2-0.1-0.3c-0.1,0-0.2,0-0.3,0c-0.1,0-0.3,0.1-0.4,0c0-0.1,0.1-0.1,0.1-0.2c0.1-0.1,0.2-0.2,0.2-0.4
		c0-0.2,0-0.5,0.1-0.7c0-0.1,0.1-0.2,0-0.3c-0.1-0.1,0-0.1,0-0.2C5,9,5.1,8.8,5.1,8.6c0-0.1,0-0.2-0.1-0.2C5,8.4,5,8.3,5,8.3
		C5.1,8.2,5.2,8.1,5.3,8c0.1-0.1,0.1-0.2,0-0.4C5.2,7.5,5.1,7.4,4.9,7.5C4.6,7.6,4.4,7.7,4.2,7.9C4.1,8,4,8,4,8.1
		C3.9,8.3,3.9,8.4,4.1,8.5c0.1,0.1,0.1,0.1,0,0.2C4,8.8,3.9,8.8,3.8,8.9C3.7,8.9,3.6,9,3.5,9C3.4,9.1,3.3,9.2,3.3,9.3
		c0,0.1,0,0.2,0.1,0.3c0.1,0.1,0.1,0.1,0,0.2c-0.1,0-0.1,0.1-0.2,0.1C3,10,2.9,10.1,2.9,10.3c0,0.1,0,0.2,0,0.3c0,0.1,0,0.2-0.1,0.3
		c0,0.1-0.1,0.2-0.2,0.2c-0.2,0-0.4,0.1-0.6,0.1c-0.1,0-0.1,0-0.2,0c-0.1,0-0.2-0.1-0.3-0.2c-0.1-0.2-0.1-0.4,0-0.7
		C1.6,10,1.7,9.9,1.8,9.7C1.9,9.5,2,9.3,2,9.2c0,0,0-0.1,0-0.1c0-0.2,0.1-0.3,0.2-0.4c0.4-0.6,0.7-1.2,0.6-2c0-0.1,0-0.2-0.1-0.3
		c0-0.1,0-0.1,0-0.2C2.8,6,2.8,5.9,2.9,5.7C3,5.6,3.2,5.4,3.4,5.4c0.2,0,0.5,0,0.7,0c0.4,0,0.9,0.1,1.3,0.4C5.5,5.9,5.6,6,5.8,6.1
		c0,0,0.1,0.1,0.1,0.1C5.8,6.3,5.7,6.4,5.6,6.4c-0.1,0-0.2,0.1-0.3,0.2c-0.1,0.1,0,0.1,0.1,0.2c0.1,0,0.2,0,0.3,0
		c0.1,0,0.1-0.1,0.2-0.1c0.2-0.1,0.4-0.1,0.5,0.1C6.6,7,6.8,7.3,7,7.7c0.2,0.5,0.3,1,0.5,1.5c0,0.1,0.1,0.3,0.1,0.4
		C7.7,9.9,7.9,10,8.1,9.9c0.1,0,0.2-0.1,0.3-0.1c0.1,0,0.3-0.1,0.4-0.1c0.1,0,0.1,0,0.2-0.1C9.5,9.4,10,9,10.6,8.6
		c0.6-0.4,1.1-0.9,1.7-1.3c1.4-0.9,2.7-1.9,4.2-2.7c0.3-0.2,0.6-0.3,1-0.5C17.7,4,18.1,4,18.5,3.9c0.2-0.1,0.5-0.1,0.7-0.1
		c0.1,0,0.1,0,0.2-0.1c0.2-0.1,0.5-0.1,0.6,0.1c0,0,0,0.1,0,0.1c0,0.1-0.1,0.3-0.1,0.4c-0.1,0.2-0.2,0.3-0.3,0.4
		c-0.3,0.3-0.6,0.5-0.9,0.7c-0.2,0.1-0.4,0.3-0.6,0.5c-0.2,0.2-0.4,0.4-0.6,0.6c-0.2,0.3-0.5,0.5-0.8,0.7c-0.2,0.1-0.3,0.3-0.4,0.4
		c-0.1,0.1-0.1,0.1-0.2,0.1c-0.4,0-0.8,0.1-1.2,0.3c-0.1,0.1-0.2,0-0.2-0.1c0-0.1,0-0.2-0.1-0.3c0-0.1,0-0.1,0-0.2
		c0.1-0.1,0.2-0.2,0.3-0.2C15,7.2,15.1,7.1,15.3,7c0.1-0.1,0.2-0.2,0.3-0.4c0-0.1,0-0.1-0.1-0.1c-0.1,0-0.2,0-0.3,0.1
		c-0.2,0.1-0.4,0.2-0.6,0.3c-0.3,0.2-0.6,0.4-0.9,0.6c-0.1,0.1-0.2,0.2-0.3,0.2C13.2,7.8,13.1,7.9,13,8c-0.1,0.1-0.2,0.2-0.3,0.3
		c-0.1,0.1-0.2,0.2-0.4,0.3C12.2,8.7,12.1,8.8,12,9c0,0.1-0.1,0.1-0.2,0.2c-0.1,0.1-0.2,0.1-0.3,0.2c-0.1,0.1-0.1,0.1,0,0.2
		c0.1,0,0.1,0,0.2,0.1c0.1,0,0.1,0.1,0,0.1c-0.1,0.1-0.2,0.1-0.3,0.1c-0.1,0-0.2,0.1-0.4,0.1c-0.1,0-0.2,0.1-0.3,0.2
		c0,0.1,0,0.1,0.1,0.2c0.2,0.1,0.3,0.1,0.5,0.1c0.4,0,0.7,0,1.1-0.1c0.1,0,0.2,0,0.3-0.1c0.2,0,0.3-0.1,0.5-0.2c0,0,0.1,0,0.1-0.1
		c0.1-0.1,0-0.1-0.1-0.2c-0.1-0.1-0.2-0.1-0.3-0.1C12.8,9.8,12.7,9.8,12.6,9.7z M15.6,5.9c0.3,0,0.6-0.2,0.9-0.4
		C16.1,5.6,15.8,5.7,15.6,5.9z M16.1,5.3c-0.3,0-0.5,0.1-0.8,0.3C15.6,5.6,15.9,5.5,16.1,5.3z"/>
	<path class="st0" d="M6.2,15.2c0-0.2,0-0.3,0.1-0.4c0.1-0.2,0.2-0.4,0.2-0.6c0,0,0-0.1,0-0.1c0.1-0.1,0.2-0.2,0.2-0.3
		c0-0.1,0.1-0.1,0.2-0.2c0.1,0,0.1-0.1,0.2,0c0.3,0.1,0.5,0.1,0.8-0.1c0.2-0.1,0.3-0.2,0.5-0.3c0.3-0.1,0.5-0.3,0.8-0.2
		c0,0,0.1,0,0.1,0c0.3-0.1,0.5-0.2,0.8-0.3c0.3-0.1,0.6-0.2,0.9-0.5c0.2-0.2,0.3-0.3,0.5-0.4c0.2-0.1,0.3-0.2,0.5-0.4
		c0.1-0.1,0.1-0.2,0.1-0.3c0-0.1,0.1-0.1,0.1-0.1c0.2,0,0.3,0.1,0.5,0.2c0,0,0.1,0,0.1,0.1c0.1,0.2,0.3,0.5,0.3,0.7
		c0,0.2,0,0.5-0.2,0.6c-0.1,0.1-0.2,0.2-0.3,0.4c0,0-0.1,0.1-0.1,0.1c-0.2,0.4-0.4,0.7-0.7,0.9c-0.3,0.2-0.5,0.4-0.7,0.6
		c-0.2,0.2-0.4,0.3-0.7,0.5c0,0-0.1,0-0.1,0.1c-0.2,0.2-0.4,0.3-0.6,0.4c-0.2,0.1-0.3,0.1-0.5,0.2c-0.2,0.1-0.4,0.1-0.6,0.3
		c-0.1,0.1-0.3,0.1-0.4,0.1c-0.1,0-0.3,0-0.4,0.1c-0.2,0-0.4,0.1-0.6,0.2c-0.1,0-0.1,0-0.2,0c-0.1,0-0.2-0.1-0.3-0.2
		c-0.3-0.2-0.4-0.5-0.5-0.9C6.2,15.3,6.2,15.2,6.2,15.2z"/>
	<path class="st0" d="M4.7,14.4c0,0.1-0.1,0.2-0.2,0.3c-0.5,0.4-1,0.7-1.7,0.9c-0.1,0-0.2,0.1-0.3,0.1c-0.3,0.2-0.6,0.4-1,0.6
		c-0.2,0.1-0.3,0.1-0.5,0c-0.1-0.1-0.3-0.2-0.4-0.2c-0.1,0-0.1-0.1-0.1-0.1c-0.1-0.1-0.2-0.3-0.3-0.4c-0.1-0.1-0.2-0.1-0.2-0.2
		c0-0.1,0-0.2,0-0.3c0-0.1,0-0.3-0.1-0.4c0-0.1,0-0.2,0-0.2c0-0.1,0-0.2,0.1-0.3c0.1-0.1,0.1-0.3,0.2-0.4c0-0.2,0.1-0.3,0.2-0.5
		C0.6,13.2,0.8,13,1,12.8c0.2-0.2,0.4-0.4,0.6-0.7c0.1-0.2,0.3-0.4,0.5-0.5c0.2-0.1,0.4-0.3,0.6-0.3c0.1,0,0.1,0,0.2,0.1
		c0,0.1,0,0.1,0,0.2c0,0.2,0,0.3,0.2,0.4c0,0,0,0.1,0.1,0.2c0,0.2,0,0.3-0.1,0.5c0,0.2,0,0.3,0.1,0.4c0.1,0.1,0.1,0.2,0.1,0.3
		c0.2,0.3,0.3,0.4,0.7,0.3c0.1,0,0.1,0,0.2,0c0.1,0,0.1,0.1,0.1,0.2c0,0-0.1,0.1-0.1,0.1c0,0-0.1,0.1-0.1,0.1
		c-0.1,0.1,0,0.2,0.1,0.2c0.1,0,0.2,0,0.4,0C4.6,14.3,4.7,14.3,4.7,14.4z"/>
	<path class="st0" d="M16,8c-0.1,0.3-0.2,0.5-0.5,0.6c-0.2,0.1-0.4,0.2-0.6,0.2c-0.3,0.1-0.6,0.1-0.9,0.2c0,0-0.1,0-0.1,0
		c-0.2,0-0.4-0.1-0.6-0.1c0,0,0,0,0,0c0.3-0.2,0.7-0.3,1.1-0.5c0.1,0,0.2,0,0.2,0c0.1,0.1,0.2,0.1,0.4,0c0.2-0.1,0.4-0.2,0.5-0.3
		C15.7,8,15.8,8,16,8z"/>
</g>
<g>
	<path class="st0" d="M17.8,13.5c0,0.3-0.1,0.5-0.2,0.8c-0.1,0.2-0.2,0.5-0.4,0.6c-0.2,0.2-0.4,0.3-0.6,0.4
		c-0.2,0.1-0.5,0.2-0.8,0.2h0c-0.3,0-0.6-0.1-0.8-0.2c-0.2-0.1-0.5-0.2-0.6-0.4c-0.2-0.2-0.3-0.4-0.4-0.6c-0.1-0.2-0.2-0.5-0.2-0.8
		v0c0-0.3,0.1-0.5,0.2-0.8c0.1-0.2,0.2-0.5,0.4-0.6c0.2-0.2,0.4-0.3,0.6-0.4c0.2-0.1,0.5-0.2,0.8-0.2h0c0.3,0,0.5,0.1,0.8,0.2
		c0.2,0.1,0.5,0.2,0.6,0.4c0.2,0.2,0.3,0.4,0.4,0.6C17.7,12.9,17.8,13.1,17.8,13.5L17.8,13.5z M17.2,12.6c-0.1-0.2-0.3-0.4-0.6-0.6
		c-0.2-0.1-0.5-0.2-0.8-0.2h0c-0.3,0-0.6,0.1-0.8,0.2c-0.3,0.1-0.5,0.3-0.6,0.6c-0.1,0.2-0.2,0.5-0.2,0.8v0c0,0.3,0.1,0.6,0.2,0.8
		c0.1,0.3,0.3,0.5,0.6,0.6c0.3,0.1,0.5,0.2,0.8,0.2h0c0.3,0,0.6-0.1,0.8-0.2c0.2-0.1,0.4-0.3,0.6-0.6c0.1-0.3,0.2-0.5,0.2-0.8v0
		C17.4,13.1,17.3,12.8,17.2,12.6z M14.9,12.4h0.9c0.3,0,0.4,0.1,0.6,0.2c0.1,0.1,0.2,0.3,0.2,0.5c0,0.1,0,0.3-0.1,0.4
		c-0.1,0.1-0.2,0.2-0.3,0.2l0.5,0.8h-0.4l-0.4-0.8c0,0,0,0,0,0c0,0,0,0,0,0h-0.4v0.8h-0.4V12.4z M15.8,13.4c0.1,0,0.2,0,0.3-0.1
		c0.1-0.1,0.1-0.1,0.1-0.3v0c0-0.1,0-0.2-0.1-0.3c-0.1-0.1-0.2-0.1-0.3-0.1h-0.4v0.7H15.8z"/>
</g>
</svg>
