<?xml version="1.0" encoding="utf-8"?>
<!-- Generator: Adobe Illustrator 25.4.1, SVG Export Plug-In . SVG Version: 6.00 Build 0)  -->
<svg version="1.1" id="Layer_1" xmlns="http://www.w3.org/2000/svg" xmlns:xlink="http://www.w3.org/1999/xlink" x="0px" y="0px"
	 viewBox="0 0 45 45" style="enable-background:new 0 0 45 45;" xml:space="preserve">
<g>
	<path d="M28.4,21.6c0-0.3,0.3-0.3,0.3-0.3c0.6-0.3,1.4-0.3,2-0.3c0.8,0,1.7,0.3,2.5,0.3c0.3,0,0.3,0,0.3,0.3
		c-0.6,0.8-1.1,1.4-2,1.7c-0.8,0.3-1.4,0.6-2.2,0.6c-1.1,0-2.2,0-3.1,0c-0.8,0-1.7,0-2.5,0c-0.6,0-0.8,0.3-0.8,0.8
		c0,0.6-0.6,1.1-0.8,1.4c-1.1,1.1-2,1.4-2.8,2c-0.6,0.3-1.4,0.6-2,1.1h-0.3c-0.3,0-0.6,0.3-0.8,0.3c-0.3,0.3-0.6,0.6-0.8,0.8
		c-0.3,0.3-0.6,0.3-0.8,0.3c0,0-0.3,0-0.3-0.3c0-0.3,0-0.3,0-0.6c0-0.3,0-0.6,0-0.8c0.3-0.3,0.3-0.6,0.3-0.8c0-0.3,0-0.3-0.3-0.3
		h-0.3c0,0.3-0.6,0.3-0.8,0.6c-0.3,0.3-0.6,0.3-0.8,0.3c-0.3,0-0.3,0-0.6-0.3c0-0.3,0-0.8,0-1.1c0-0.3,0-0.8,0-1.1
		c0-0.3,0.3-0.6,0.3-0.6c0.3-0.3,0.3-0.3,0.6-0.6c0.3-0.3,0-0.6-0.3-0.6c-0.3,0-0.6,0-0.6,0c-0.3,0-0.6,0.3-0.8,0
		c0-0.3,0.3-0.3,0.3-0.3c0.3-0.3,0.3-0.6,0.3-0.8c0-0.6,0-1.1,0.3-1.7c0-0.3,0-0.6,0-0.8c0-0.3,0-0.3,0-0.6c0-0.3,0.3-0.6,0.3-1.1
		c0-0.3,0-0.3-0.3-0.6c-0.3,0-0.3-0.3,0-0.3c0.3-0.3,0.3-0.3,0.6-0.6c0.3-0.3,0.3-0.6,0-0.8c-0.3-0.3-0.6-0.6-0.8-0.3
		c-0.6,0.3-1.1,0.6-1.7,1.1c0,0.3-0.3,0.3-0.3,0.6C9,18.5,9,18.8,9.6,19.1c0.3,0.3,0.3,0.3,0,0.6c-0.3-0.3-0.3,0-0.6,0
		s-0.6,0.3-0.6,0.6c-0.3,0.3-0.3,0.3-0.3,0.6c0,0.3,0,0.6,0.3,0.8c0.3,0.3,0.3,0.3,0,0.3l-0.3,0.3c-0.3,0.3-0.6,0.6-0.6,1.1
		c0,0.3,0,0.6,0,0.6c0,0.3,0,0.6,0,0.6C7.6,24.7,7.3,25,7,25c-1.1,0-1.7,0.3-2,0.3c-0.3,0-0.3,0-0.6,0S4,25,4,24.7
		c-0.3-0.6-0.3-1.1,0-1.7c0-0.6,0.3-0.8,0.6-1.4c0.3-0.6,0.3-0.8,0.6-1.4v-0.3c0-0.3,0-0.8,0.3-1.1c0.8-1.4,1.4-3.1,1.4-4.8
		c0-0.3,0-0.6,0-0.6v-0.3c0-0.3,0.3-0.8,0.6-1.1c0-0.6,0.3-0.8,0.8-0.8s1.1,0,1.4,0c1.1,0,2,0.3,2.8,0.8c0.3,0.3,0.6,0.6,0.8,0.8
		l0.3,0.3c-0.3,0.3-0.6,0.3-0.6,0.3c-0.3,0-0.6,0.3-0.6,0.6s0,0.3,0,0.3c0.3,0,0.3,0,0.6,0s0.3-0.3,0.6-0.3c0.6-0.6,0.8-0.3,1.1,0
		c0.6,0.8,1.1,1.7,1.4,2.8c0.6,1.1,0.8,2.5,1.1,3.9c0,0.3,0.3,0.6,0.3,1.1c0.3,0.6,0.6,0.8,1.1,0.6c0.3,0,0.3-0.3,0.6-0.3
		s0.6-0.3,0.8-0.3s0.3,0,0.3-0.3c1.4-0.8,2.5-1.7,3.7-2.5c1.4-1.1,2.5-2.2,3.7-3.4c3.1-2.2,5.9-4.8,9.3-6.5c0.8-0.3,1.4-0.8,2.2-1.1
		c0.8-0.3,1.7-0.6,2.2-0.6s1.1-0.3,1.7-0.3c0,0,0.3,0,0.3-0.3c0.3-0.3,1.1-0.3,1.4,0.3v0.3c0,0.3-0.3,0.6-0.3,0.8
		c-0.3,0.3-0.6,0.8-0.8,1.1c-0.6,0.6-1.1,1.4-2,1.7c-0.6,0.3-0.8,0.8-1.4,1.1c-0.6,0.6-0.8,1.1-1.4,1.7c-0.6,0.6-1.1,1.1-1.7,1.7
		c-0.3,0.3-0.6,0.6-0.8,1.1c0,0,0,0-0.3,0c-0.8,0-1.7,0.3-2.5,0.8c-0.3,0.3-0.3,0-0.6-0.3c0-0.3,0-0.6-0.3-0.8v-0.3
		c0.3-0.3,0.3-0.3,0.6-0.6s0.6-0.6,0.8-0.8c0.3-0.3,0.6-0.6,0.6-0.8c0-0.3,0-0.3-0.3-0.3c-0.3,0-0.6,0-0.6,0.3
		c-0.3,0.3-0.8,0.6-1.4,0.8c-0.8,0.3-1.4,1.1-2,1.7c-0.3,0.3-0.6,0.3-0.6,0.6c-0.3,0.3-0.6,0.6-0.6,0.8c-0.3,0.3-0.3,0.6-0.6,0.8
		c-0.3,0.3-0.6,0.3-0.8,0.6c-0.3,0.3-0.6,0.6-0.8,1.1c0,0.3-0.3,0.3-0.3,0.6c-0.3,0.3-0.6,0.3-0.8,0.6c-0.3,0.3-0.3,0.3,0,0.6
		c0,0,0.3,0,0.3,0.3c0.3,0,0.3,0.3,0,0.3C25.9,23,25.9,23,25.6,23c0-0.8-0.3-0.6-0.6-0.6c-0.3,0-0.6,0.3-0.6,0.6c0,0.3,0,0.3,0,0.3
		c0.3,0.3,0.8,0.3,1.1,0.3c0.8,0,1.7,0,2.5-0.3c0.3,0,0.6,0,0.6,0c0.3,0,0.8-0.3,1.1-0.3c0,0,0.3,0,0.3-0.3c0-0.3,0-0.3,0-0.6
		c-0.3,0-0.6-0.3-0.8-0.3C29,21.9,28.7,21.9,28.4,21.6z M35.1,12.3c0.8,0,1.4-0.3,2-0.8C36.3,11.5,35.7,11.8,35.1,12.3z M36.3,10.9
		c-0.6,0-1.1,0.3-1.7,0.8C35.1,11.5,35.7,11.2,36.3,10.9z"/>
	<path d="M14.4,35.1c0-0.3,0-0.8,0.3-1.1c0.3-0.6,0.3-0.8,0.6-1.4c0,0,0,0,0-0.3c0.3-0.3,0.3-0.6,0.6-0.8c0-0.3,0.3-0.3,0.3-0.6
		c0,0,0.3-0.3,0.3,0c0.6,0.3,1.1,0,1.7-0.3c0.3-0.3,0.6-0.3,1.1-0.6c0.6-0.3,1.1-0.6,2-0.6h0.3c0.6-0.3,1.1-0.6,1.7-0.8
		c0.6-0.3,1.4-0.6,2-1.1c0.3-0.3,0.6-0.8,1.1-0.8c0.3-0.3,0.8-0.6,1.1-0.8c0.3-0.3,0.3-0.6,0.3-0.6c0-0.3,0-0.3,0.3-0.3
		c0.3,0,0.8,0.3,1.1,0.6c0,0,0,0,0.3,0.3c0.3,0.6,0.6,1.1,0.6,1.7s0,1.1-0.6,1.4c-0.3,0.3-0.6,0.6-0.6,0.8c0,0,0,0.3-0.3,0.3
		c-0.3,0.8-0.8,1.7-1.7,2.2c-0.6,0.3-1.1,0.8-1.7,1.4c-0.6,0.6-1.1,0.8-1.7,1.1c0,0-0.3,0-0.3,0.3c-0.3,0.6-0.8,0.8-1.4,0.8
		c-0.3,0.3-0.6,0.6-0.8,0.6c-0.6,0.3-0.8,0.3-1.1,0.6c-0.3,0.3-0.6,0.3-0.8,0.3c-0.3,0-0.6,0-0.8,0.3c-0.6,0-0.8,0.3-1.1,0.6h-0.3
		c-0.3,0-0.6-0.3-0.6-0.3c-1.1-0.8-1.7-1.4-1.7-2.2C14.4,35.4,14.4,35.4,14.4,35.1z"/>
	<path d="M11,33.1c0,0.3-0.3,0.6-0.6,0.6c-1.1,1.1-2.2,2-3.7,2.2c-0.3,0-0.6,0.3-0.6,0.3c-0.8,0.6-1.4,1.1-2.2,1.7
		c-0.3,0.3-0.8,0.3-1.1,0S2.3,37.6,2,37.6c0,0-0.3,0-0.3-0.3c-0.3-0.3-0.3-0.6-0.6-0.8c-0.3-0.3-0.3-0.3-0.6-0.6c0-0.3,0-0.6,0-0.6
		c0-0.3,0-0.6-0.3-0.8c0-0.3,0-0.3,0-0.6c0-0.3,0-0.6,0-0.8c0.3-0.3,0.3-0.6,0.3-1.1c0-0.3,0.3-0.8,0.6-1.1c0.3-0.6,0.8-1.1,1.4-1.7
		s0.8-1.1,1.4-1.7c0.3-0.6,0.6-0.8,1.1-1.1c0.3-0.3,0.8-0.6,1.4-0.8c0.3,0,0.3,0,0.6,0.3c0,0.3,0,0.3,0,0.6c0,0.3,0,0.8,0.3,1.1v0.3
		c0,0.3,0,0.8,0,1.1c0,0.3,0,0.8,0,1.1c0,0.3,0.3,0.6,0.3,0.6c0.3,0.6,0.8,0.8,1.4,0.8c0.3,0,0.3,0,0.6,0s0.3,0.3,0.3,0.3
		s0,0.3-0.3,0.3c0,0,0,0.3-0.3,0.3c0,0.3,0,0.6,0.3,0.6c0.3,0,0.6,0,0.8,0C10.7,33.1,11,33.1,11,33.1z"/>
	<path d="M36,17.4c-0.3,0.8-0.6,1.1-1.1,1.7c-0.6,0.3-0.8,0.3-1.4,0.6c-0.6,0-1.4,0.3-2,0.6h-0.3c-0.6,0-0.8-0.3-1.4-0.3l0,0
		c0.8-0.6,1.4-0.8,2.2-1.1c0.3,0,0.3,0,0.6,0c0.3,0.3,0.6,0.3,0.8,0c0.3-0.3,0.8-0.6,1.1-0.8C35.1,17.7,35.4,17.4,36,17.4z"/>
</g>
</svg>
