<?xml version="1.0" encoding="utf-8"?>
<!-- Generator: Adobe Illustrator 25.4.1, SVG Export Plug-In . SVG Version: 6.00 Build 0)  -->
<svg version="1.1" id="Layer_1" xmlns="http://www.w3.org/2000/svg" xmlns:xlink="http://www.w3.org/1999/xlink" x="0px" y="0px"
	 viewBox="0 0 45 45" style="enable-background:new 0 0 45 45;" xml:space="preserve">
<style type="text/css">
	.st0{fill:#FFFFFF;}
</style>
<g>
	<g>
		<path class="st0" d="M27.1,21.9c0.1-0.1,0.3-0.2,0.4-0.2c0.6-0.2,1.2-0.2,1.8-0.2c0.8,0.1,1.5,0.2,2.3,0.2c0.2,0,0.3,0.1,0.1,0.3
			c-0.4,0.7-1.1,1.2-1.8,1.5c-0.7,0.3-1.4,0.4-2.2,0.4c-1,0-2,0-3,0c-0.8,0-1.6,0-2.5,0.1c-0.5,0.1-0.8,0.3-0.9,0.7
			c-0.1,0.5-0.4,0.9-0.8,1.2c-0.7,0.5-1.4,1-2.2,1.3c-0.6,0.3-1.3,0.6-1.9,0.9c-0.1,0-0.2,0.1-0.3,0.1c-0.3,0-0.6,0.1-0.8,0.3
			c-0.2,0.2-0.4,0.4-0.7,0.6c-0.2,0.2-0.4,0.3-0.7,0.3c-0.1,0-0.2,0-0.2-0.2c0-0.2-0.1-0.3-0.1-0.4c-0.1-0.2-0.1-0.4,0.1-0.7
			c0.2-0.2,0.3-0.5,0.3-0.8c0-0.2-0.1-0.3-0.3-0.3c-0.1,0-0.2,0-0.3,0.1c-0.3,0.1-0.6,0.3-0.9,0.4c-0.3,0.1-0.5,0.2-0.8,0.2
			c-0.2,0-0.3-0.1-0.4-0.3c-0.2-0.2-0.2-0.5-0.3-0.8c0-0.3,0-0.7,0.1-1c0-0.2,0.2-0.4,0.3-0.5c0.1-0.1,0.3-0.3,0.4-0.4
			c0.2-0.3,0.1-0.5-0.2-0.6c-0.2-0.1-0.4-0.1-0.6,0c-0.3,0-0.6,0.1-0.9,0.1c0.1-0.2,0.2-0.2,0.3-0.3c0.2-0.2,0.4-0.4,0.3-0.7
			c0-0.5,0.1-0.9,0.2-1.4c0.1-0.2,0.1-0.4-0.1-0.6c-0.1-0.1-0.1-0.3,0.1-0.4c0.3-0.2,0.5-0.6,0.5-0.9c0-0.2,0-0.4-0.2-0.5
			c-0.1-0.1-0.1-0.2,0-0.3c0.2-0.2,0.3-0.3,0.4-0.6c0.1-0.2,0.2-0.5,0-0.7c-0.2-0.4-0.5-0.5-0.8-0.3c-0.5,0.2-1.1,0.4-1.5,0.9
			c-0.1,0.1-0.2,0.3-0.3,0.4c-0.2,0.4-0.1,0.5,0.1,0.8c0.2,0.2,0.2,0.3,0,0.4C9.2,19.9,9,20,8.8,20.1c-0.2,0.1-0.4,0.2-0.6,0.4
			C8,20.7,7.9,20.8,7.8,21c-0.1,0.2-0.1,0.4,0.1,0.6c0.2,0.1,0.2,0.2,0,0.3c-0.1,0.1-0.2,0.2-0.4,0.2C7.2,22.4,7,22.7,7,23.1
			c0,0.2,0,0.4,0,0.5c0,0.2,0,0.4-0.1,0.6c-0.1,0.2-0.3,0.4-0.5,0.4c-0.4,0-0.8,0.2-1.2,0.2c-0.1,0-0.3,0-0.4,0
			c-0.3-0.1-0.4-0.2-0.5-0.5C4,23.9,4,23.5,4.2,23c0.1-0.4,0.3-0.7,0.5-1.1c0.2-0.4,0.4-0.7,0.4-1.1c0-0.1,0.1-0.2,0-0.3
			c0-0.3,0.1-0.6,0.3-0.9c0.9-1.2,1.4-2.6,1.3-4.1c0-0.2,0-0.4-0.1-0.6c-0.1-0.1-0.1-0.2,0-0.3c0.1-0.3,0.2-0.7,0.4-0.9
			C7.2,13.3,7.6,13.1,8,13c0.5-0.1,0.9,0.1,1.4,0.1c0.9,0.1,1.8,0.3,2.6,0.8c0.3,0.2,0.6,0.4,0.8,0.6c0.1,0.1,0.2,0.2,0.3,0.3
			c-0.2,0.1-0.4,0.2-0.7,0.3c-0.2,0.1-0.4,0.2-0.5,0.4c-0.1,0.2-0.1,0.3,0.1,0.3c0.2,0.1,0.4,0,0.5-0.1c0.1-0.1,0.3-0.2,0.4-0.3
			c0.4-0.3,0.7-0.3,1.1,0.1c0.6,0.7,1,1.5,1.3,2.3c0.4,1,0.7,2.1,1.1,3.2c0.1,0.3,0.2,0.6,0.3,0.8c0.2,0.5,0.5,0.6,1,0.5
			c0.2-0.1,0.4-0.1,0.5-0.2c0.3-0.1,0.5-0.2,0.8-0.2c0.1,0,0.2-0.1,0.4-0.1c1.2-0.6,2.3-1.4,3.3-2.2c1.2-0.9,2.3-1.9,3.5-2.8
			C29.2,15,32,13,35,11.4c0.7-0.4,1.3-0.7,2-1c0.7-0.3,1.5-0.4,2.2-0.6c0.5-0.1,1-0.2,1.5-0.3c0.1,0,0.2-0.1,0.4-0.1
			c0.4-0.2,1-0.1,1.3,0.1c0.1,0.1,0.1,0.2,0.1,0.3c-0.1,0.3-0.2,0.5-0.3,0.8c-0.2,0.3-0.4,0.6-0.7,0.9c-0.6,0.6-1.2,1.1-1.9,1.5
			c-0.5,0.3-0.9,0.6-1.3,1c-0.4,0.4-0.8,0.9-1.2,1.3c-0.5,0.5-1,1-1.6,1.5c-0.3,0.2-0.6,0.6-0.9,0.8c-0.1,0.1-0.3,0.2-0.5,0.2
			c-0.9,0.1-1.7,0.2-2.4,0.7c-0.2,0.1-0.4,0.1-0.4-0.2c-0.1-0.2-0.1-0.4-0.2-0.6c-0.1-0.1,0-0.2,0.1-0.4c0.2-0.2,0.4-0.3,0.6-0.5
			c0.3-0.2,0.6-0.4,0.9-0.6c0.3-0.2,0.4-0.4,0.5-0.7c0.1-0.2,0-0.3-0.2-0.3c-0.2,0-0.5,0-0.6,0.2c-0.4,0.2-0.8,0.4-1.2,0.6
			c-0.7,0.3-1.3,0.8-2,1.3c-0.2,0.2-0.4,0.3-0.6,0.5c-0.2,0.2-0.5,0.4-0.6,0.7c-0.1,0.3-0.4,0.4-0.6,0.6c-0.3,0.2-0.5,0.3-0.8,0.5
			c-0.3,0.2-0.6,0.5-0.7,0.9c-0.1,0.2-0.2,0.3-0.4,0.4c-0.2,0.1-0.5,0.2-0.7,0.4c-0.2,0.2-0.2,0.3,0,0.4c0.1,0.1,0.2,0.1,0.4,0.2
			c0.2,0.1,0.2,0.2,0,0.3c-0.2,0.1-0.4,0.2-0.6,0.2c-0.3,0.1-0.5,0.1-0.7,0.2c-0.3,0.1-0.5,0.2-0.6,0.5c-0.1,0.2-0.1,0.3,0.1,0.3
			c0.3,0.1,0.7,0.2,1,0.2c0.8,0.1,1.5,0,2.3-0.2c0.2,0,0.4-0.1,0.6-0.1c0.4,0,0.7-0.2,1-0.3c0.1,0,0.2-0.1,0.2-0.2
			c0.1-0.2,0.1-0.3-0.1-0.4c-0.2-0.1-0.5-0.2-0.7-0.2C27.6,22.1,27.3,22.1,27.1,21.9z M33.3,14c0.7,0,1.3-0.3,1.8-0.8
			C34.4,13.3,33.8,13.5,33.3,14z M34.3,12.7c-0.6,0-1.1,0.3-1.6,0.7C33.4,13.3,33.9,13.1,34.3,12.7z"/>
		<path class="st0" d="M13.7,33.3c0-0.3,0.1-0.6,0.2-0.9c0.1-0.4,0.3-0.8,0.5-1.2c0-0.1,0-0.1,0.1-0.2c0.2-0.2,0.3-0.5,0.5-0.7
			c0.1-0.2,0.2-0.3,0.3-0.4c0.1-0.1,0.2-0.1,0.4-0.1c0.6,0.2,1.1,0.1,1.7-0.2c0.3-0.2,0.7-0.3,1-0.5c0.5-0.3,1.1-0.5,1.8-0.4
			c0.1,0,0.2,0,0.2-0.1c0.5-0.3,1.1-0.4,1.7-0.7c0.6-0.2,1.3-0.5,1.8-1c0.3-0.3,0.7-0.6,1.1-0.8c0.4-0.1,0.7-0.4,0.9-0.7
			c0.1-0.2,0.2-0.4,0.2-0.6c0-0.2,0.1-0.2,0.3-0.2c0.4,0.1,0.7,0.2,1,0.4c0.1,0,0.1,0.1,0.2,0.1c0.3,0.5,0.6,0.9,0.6,1.5
			c0.1,0.5,0,0.9-0.4,1.3c-0.3,0.2-0.5,0.5-0.6,0.8C27.1,28.9,27,29,27,29.1c-0.3,0.8-0.8,1.4-1.5,1.8c-0.5,0.3-1,0.8-1.5,1.2
			c-0.5,0.4-0.9,0.7-1.5,0.9c-0.1,0-0.2,0.1-0.2,0.2c-0.4,0.4-0.8,0.6-1.3,0.8c-0.3,0.1-0.7,0.2-1,0.3c-0.4,0.1-0.8,0.3-1.2,0.6
			c-0.2,0.2-0.5,0.2-0.8,0.2c-0.3,0.1-0.6,0.1-0.9,0.1c-0.4,0.1-0.8,0.1-1.1,0.4c-0.1,0.1-0.2,0.1-0.3,0c-0.2-0.1-0.5-0.2-0.7-0.3
			c-0.6-0.5-0.9-1.1-1.1-1.8C13.7,33.4,13.8,33.3,13.7,33.3z"/>
		<path class="st0" d="M10.8,31.6c-0.1,0.2-0.2,0.4-0.4,0.6c-1,0.9-2.2,1.5-3.5,1.8c-0.2,0-0.4,0.1-0.6,0.3c-0.7,0.4-1.3,0.8-2,1.3
			c-0.4,0.3-0.7,0.2-1,0c-0.3-0.2-0.5-0.3-0.8-0.3c-0.1,0-0.2-0.1-0.2-0.2c-0.2-0.3-0.4-0.5-0.6-0.7c-0.1-0.1-0.3-0.2-0.4-0.4
			c-0.1-0.2,0.1-0.4,0-0.6c-0.1-0.3-0.1-0.5-0.2-0.8c0-0.2-0.1-0.3-0.1-0.5c0-0.2,0-0.5,0.1-0.6c0.2-0.3,0.3-0.6,0.3-0.9
			c0.1-0.4,0.3-0.7,0.5-0.9c0.4-0.5,0.8-1,1.2-1.4c0.4-0.4,0.8-0.9,1.2-1.4c0.3-0.4,0.6-0.7,1-1c0.4-0.3,0.7-0.6,1.2-0.7
			c0.2-0.1,0.3,0,0.4,0.2c0.1,0.1,0.1,0.3,0.1,0.5c0,0.3,0,0.7,0.4,0.9c0.1,0.1,0.1,0.2,0.1,0.3c0,0.3,0,0.6-0.1,0.9
			c-0.1,0.3-0.1,0.6,0.1,0.9c0.1,0.2,0.2,0.4,0.3,0.6C8,30,8.4,30.2,9,30.1c0.1,0,0.3-0.1,0.4,0c0.2,0.1,0.3,0.1,0.2,0.4
			c-0.1,0.1-0.1,0.2-0.2,0.3c-0.1,0.1-0.1,0.2-0.1,0.2c-0.1,0.3,0,0.4,0.3,0.4c0.3,0,0.5,0.1,0.8,0.1C10.5,31.5,10.6,31.5,10.8,31.6
			z"/>
		<path class="st0" d="M34.2,18.3c-0.2,0.6-0.5,1-1,1.3c-0.4,0.2-0.8,0.3-1.3,0.4c-0.6,0.1-1.2,0.2-1.8,0.4c-0.1,0-0.2,0-0.2,0
			c-0.4,0-0.9-0.1-1.3-0.3c0,0,0-0.1,0.1-0.1c0.7-0.4,1.4-0.7,2.2-1c0.2-0.1,0.3,0,0.4,0.1c0.2,0.2,0.5,0.2,0.7,0.1
			c0.4-0.2,0.7-0.4,1.1-0.6C33.4,18.4,33.7,18.3,34.2,18.3z"/>
	</g>
	<g>
		<path class="st0" d="M44.1,17.1c0,0.4-0.1,0.7-0.2,1.1c-0.1,0.3-0.3,0.6-0.6,0.9c-0.2,0.2-0.5,0.4-0.9,0.6
			c-0.3,0.1-0.7,0.2-1.1,0.2h0c-0.4,0-0.7-0.1-1.1-0.2c-0.3-0.1-0.6-0.3-0.9-0.6c-0.2-0.2-0.4-0.5-0.6-0.9c-0.1-0.3-0.2-0.7-0.2-1.1
			v0c0-0.4,0.1-0.7,0.2-1.1c0.1-0.3,0.3-0.6,0.6-0.9c0.2-0.2,0.5-0.4,0.9-0.6c0.3-0.1,0.7-0.2,1.1-0.2h0c0.4,0,0.7,0.1,1.1,0.2
			s0.6,0.3,0.9,0.6c0.2,0.2,0.4,0.5,0.6,0.9C44,16.3,44.1,16.7,44.1,17.1L44.1,17.1z M43.3,15.9c-0.2-0.3-0.5-0.6-0.8-0.8
			c-0.3-0.2-0.7-0.3-1.1-0.3h0c-0.4,0-0.8,0.1-1.1,0.3c-0.3,0.2-0.6,0.5-0.8,0.8c-0.2,0.3-0.3,0.7-0.3,1.1v0c0,0.4,0.1,0.8,0.3,1.1
			c0.2,0.3,0.5,0.6,0.8,0.8c0.3,0.2,0.7,0.3,1.1,0.3h0c0.4,0,0.8-0.1,1.1-0.3c0.3-0.2,0.6-0.5,0.8-0.8c0.2-0.3,0.3-0.7,0.3-1.1v0
			C43.6,16.6,43.5,16.3,43.3,15.9z M40.3,15.6h1.2c0.3,0,0.6,0.1,0.8,0.2c0.2,0.2,0.3,0.4,0.3,0.7c0,0.2-0.1,0.3-0.2,0.5
			c-0.1,0.1-0.2,0.2-0.4,0.3l0.7,1.1H42l-0.6-1c0,0,0,0,0,0c0,0,0,0,0,0h-0.5v1h-0.5V15.6z M41.4,17c0.2,0,0.3,0,0.4-0.1
			c0.1-0.1,0.1-0.2,0.1-0.3v0c0-0.1-0.1-0.3-0.2-0.3c-0.1-0.1-0.2-0.1-0.4-0.1h-0.6V17H41.4z"/>
	</g>
</g>
</svg>
