<?xml version="1.0" encoding="utf-8"?>
<!-- Generator: Adobe Illustrator 25.4.1, SVG Export Plug-In . SVG Version: 6.00 Build 0)  -->
<svg version="1.1" id="Layer_1" xmlns="http://www.w3.org/2000/svg" xmlns:xlink="http://www.w3.org/1999/xlink" x="0px" y="0px"
	 viewBox="0 0 45 45" style="enable-background:new 0 0 45 45;" xml:space="preserve">
<style type="text/css">
	.st0{fill:#FFFFFF;}
</style>
<g>
	<path class="st0" d="M28.6,22c0-0.3,0.3-0.3,0.3-0.3c0.6-0.3,1.4-0.3,2-0.3c0.8,0,1.7,0.3,2.5,0.3c0.3,0,0.3,0,0.3,0.3
		c-0.6,0.8-1.1,1.4-2,1.7c-0.8,0.3-1.4,0.6-2.2,0.6c-1.1,0-2.2,0-3.1,0c-0.8,0-1.7,0-2.5,0c-0.6,0-0.8,0.3-0.8,0.8
		c0,0.6-0.6,1.1-0.8,1.4c-1.1,1.1-2,1.4-2.8,2c-0.6,0.3-1.4,0.6-2,1.1h-0.3c-0.3,0-0.6,0.3-0.8,0.3c-0.3,0.3-0.6,0.6-0.8,0.8
		C15.3,31,15,31,14.8,31c0,0-0.3,0-0.3-0.3c0-0.3,0-0.3,0-0.6s0-0.6,0-0.8c0.3-0.3,0.3-0.6,0.3-0.8c0-0.3,0-0.3-0.3-0.3h-0.3
		c0,0.3-0.6,0.3-0.8,0.6c-0.3,0.3-0.6,0.3-0.8,0.3c-0.3,0-0.3,0-0.6-0.3c0-0.3,0-0.8,0-1.1s0-0.8,0-1.1c0-0.3,0.3-0.6,0.3-0.6
		c0.3-0.3,0.3-0.3,0.6-0.6c0.3-0.3,0-0.6-0.3-0.6s-0.6,0-0.6,0c-0.3,0-0.6,0.3-0.8,0c0-0.3,0.3-0.3,0.3-0.3c0.3-0.3,0.3-0.6,0.3-0.8
		c0-0.6,0-1.1,0.3-1.7c0-0.3,0-0.6,0-0.8c0-0.3,0-0.3,0-0.6c0-0.3,0.3-0.6,0.3-1.1c0-0.3,0-0.3-0.3-0.6c-0.3,0-0.3-0.3,0-0.3
		c0.3-0.3,0.3-0.3,0.6-0.6c0.3-0.3,0.3-0.6,0-0.8c-0.3-0.3-0.6-0.6-0.8-0.3c-0.6,0.3-1.1,0.6-1.7,1.1c0,0.3-0.3,0.3-0.3,0.6
		c-0.7,0.3-0.7,0.6-0.1,0.9c0.3,0.3,0.3,0.3,0,0.6c-0.3-0.3-0.3,0-0.6,0s-0.6,0.3-0.6,0.6C8.4,21,8.4,21,8.4,21.3
		c0,0.3,0,0.6,0.3,0.8c0.3,0.3,0.3,0.3,0,0.3l-0.3,0.3c-0.3,0.3-0.6,0.6-0.6,1.1c0,0.3,0,0.6,0,0.6c0,0.3,0,0.6,0,0.6
		c0.1,0.1-0.2,0.4-0.5,0.4c-1.1,0-1.7,0.3-2,0.3s-0.3,0-0.6,0s-0.4-0.3-0.4-0.6C4,24.5,4,24,4.3,23.4c0-0.6,0.3-0.8,0.6-1.4
		c0.3-0.6,0.3-0.8,0.6-1.4v-0.3c0-0.3,0-0.8,0.3-1.1c0.8-1.4,1.4-3.1,1.4-4.8c0-0.3,0-0.6,0-0.6v-0.3c0-0.3,0.3-0.8,0.6-1.1
		c0-0.6,0.3-0.8,0.8-0.8c0.5,0,1.1,0,1.4,0c1.1,0,2,0.3,2.8,0.8c0.3,0.3,0.6,0.6,0.8,0.8l0.3,0.3c-0.3,0.3-0.6,0.3-0.6,0.3
		c-0.3,0-0.6,0.3-0.6,0.6s0,0.3,0,0.3c0.3,0,0.3,0,0.6,0s0.3-0.3,0.6-0.3c0.6-0.6,0.8-0.3,1.1,0c0.6,0.8,1.1,1.7,1.4,2.8
		c0.6,1.1,0.8,2.5,1.1,3.9c0,0.3,0.3,0.6,0.3,1.1c0.3,0.6,0.6,0.8,1.1,0.6c0.3,0,0.3-0.3,0.6-0.3c0.3,0,0.6-0.3,0.8-0.3
		s0.3,0,0.3-0.3c1.4-0.8,2.5-1.7,3.7-2.5c1.4-1.1,2.5-2.2,3.7-3.4c3.1-2.2,5.9-4.8,9.3-6.5c0.8-0.3,1.4-0.8,2.2-1.1
		c0.8-0.3,1.7-0.6,2.2-0.6c0.5,0,1.1-0.3,1.7-0.3c0,0,0.3,0,0.3-0.3c0.3-0.3,1.1-0.3,1.4,0.3v0.3c0,0.3-0.3,0.6-0.3,0.8
		c-0.3,0.3-0.6,0.8-0.8,1.1c-0.6,0.6-1.1,1.4-2,1.7c-0.6,0.3-0.8,0.8-1.4,1.1c-0.6,0.6-0.8,1.1-1.4,1.7c-0.6,0.6-1.1,1.1-1.7,1.7
		c-0.3,0.3-0.6,0.6-0.8,1.1c0,0,0,0-0.3,0c-0.8,0-1.7,0.3-2.5,0.8c-0.3,0.3-0.3,0-0.6-0.3c0-0.3,0-0.6-0.3-0.8v-0.3
		c0.3-0.3,0.3-0.3,0.6-0.6c0.3-0.3,0.6-0.6,0.8-0.8c0.3-0.3,0.6-0.6,0.6-0.8c0-0.3,0-0.3-0.3-0.3c-0.3,0-0.6,0-0.6,0.3
		c-0.3,0.3-0.8,0.6-1.4,0.8c-0.8,0.3-1.4,1.1-2,1.7C30.3,17,30,17,30,17.3c-0.3,0.3-0.6,0.6-0.6,0.8c-0.3,0.3-0.3,0.6-0.6,0.8
		c-0.3,0.3-0.6,0.3-0.8,0.6c-0.3,0.3-0.6,0.6-0.8,1.1c0,0.3-0.3,0.3-0.3,0.6c-0.3,0.3-0.6,0.3-0.8,0.6c-0.3,0.3-0.3,0.3,0,0.6
		c0,0,0.3,0,0.3,0.3c0.3,0,0.3,0.3,0,0.3c-0.3,0.4-0.3,0.4-0.6,0.4c0-0.8-0.3-0.6-0.6-0.6c-0.3,0-0.6,0.3-0.6,0.6c0,0.3,0,0.3,0,0.3
		c0.3,0.3,0.8,0.3,1.1,0.3c0.8,0,1.7,0,2.5-0.3c0.3,0,0.6,0,0.6,0c0.3,0,0.8-0.3,1.1-0.3c0,0,0.3,0,0.3-0.3c0-0.3,0-0.3,0-0.6
		c-0.3,0-0.6-0.3-0.8-0.3C29.2,22.3,28.9,22.3,28.6,22z M35.3,12.7c0.8,0,1.4-0.3,2-0.8C36.5,11.9,35.9,12.2,35.3,12.7z M36.5,11.3
		c-0.6,0-1.1,0.3-1.7,0.8C35.3,11.9,35.9,11.6,36.5,11.3z"/>
	<path class="st0" d="M14.6,35.5c0-0.3,0-0.8,0.3-1.1c0.3-0.6,0.3-0.8,0.6-1.4c0,0,0,0,0-0.3c0.3-0.3,0.3-0.6,0.6-0.8
		c0-0.3,0.3-0.3,0.3-0.6c0,0,0.3-0.3,0.3,0c0.6,0.3,1.1,0,1.7-0.3c0.3-0.3,0.6-0.3,1.1-0.6c0.6-0.3,1.1-0.6,2-0.6h0.3
		c0.6-0.3,1.1-0.6,1.7-0.8c0.6-0.3,1.4-0.6,2-1.1c0.3-0.3,0.6-0.8,1.1-0.8c0.3-0.3,0.8-0.6,1.1-0.8C28,26,28,25.7,28,25.7
		c0-0.3,0-0.3,0.3-0.3s0.8,0.3,1.1,0.6c0,0,0,0,0.3,0.3c0.3,0.6,0.6,1.1,0.6,1.7s0,1.1-0.6,1.4c-0.3,0.3-0.6,0.6-0.6,0.8
		c0,0,0,0.3-0.3,0.3c-0.3,0.8-0.8,1.7-1.7,2.2c-0.6,0.3-1.1,0.8-1.7,1.4c-0.6,0.6-1.1,0.8-1.7,1.1c0,0-0.3,0-0.3,0.3
		c-0.3,0.6-0.8,0.8-1.4,0.8c-0.3,0.3-0.6,0.6-0.8,0.6c-0.6,0.3-0.8,0.3-1.1,0.6c-0.3,0.3-0.6,0.3-0.8,0.3c-0.3,0-0.6,0-0.8,0.3
		c-0.6,0-0.8,0.3-1.1,0.6h-0.3c-0.3,0-0.6-0.3-0.6-0.3c-1.1-0.8-1.7-1.4-1.7-2.2C14.6,35.8,14.6,35.8,14.6,35.5z"/>
	<path class="st0" d="M11.2,33.5c0,0.3-0.3,0.6-0.6,0.6c-1.1,1.1-2.2,2-3.7,2.2c-0.3,0-0.6,0.3-0.6,0.3c-0.8,0.6-1.4,1.1-2.2,1.7
		c-0.3,0.3-0.8,0.3-1.1,0S2.6,38,2.3,38c0,0-0.3,0-0.3-0.3c-0.3-0.3-0.3-0.6-0.6-0.8c-0.3-0.3-0.3-0.3-0.6-0.6c0-0.3,0-0.6,0-0.6
		c0-0.3,0-0.6-0.3-0.8c0-0.3,0-0.3,0-0.6s0-0.6,0-0.8c0.3-0.3,0.3-0.6,0.3-1.1c0-0.3,0.3-0.8,0.6-1.1c0.3-0.6,0.8-1.1,1.4-1.7
		s0.8-1.1,1.4-1.7c0.3-0.6,0.6-0.8,1.1-1.1c0.3-0.3,0.8-0.6,1.4-0.8C7,26,7,26,7.3,26.3c0,0.3,0,0.3,0,0.6c0,0.3,0,0.8,0.3,1.1v0.3
		c0,0.3,0,0.8,0,1.1c0,0.3,0,0.8,0,1.1s0.3,0.6,0.3,0.6c0.3,0.6,0.8,0.8,1.4,0.8c0.3,0,0.3,0,0.6,0s0.3,0.3,0.3,0.3s0,0.3-0.3,0.3
		c0,0,0,0.3-0.3,0.3c0,0.3,0,0.6,0.3,0.6s0.6,0,0.8,0C10.9,33.5,11.2,33.5,11.2,33.5z"/>
	<path class="st0" d="M36.2,17.8c-0.3,0.8-0.6,1.1-1.1,1.7c-0.6,0.3-0.8,0.3-1.4,0.6c-0.6,0-1.4,0.3-2,0.6h-0.3
		c-0.6,0-0.8-0.3-1.4-0.3l0,0c0.8-0.6,1.4-0.8,2.2-1.1c0.3,0,0.3,0,0.6,0c0.3,0.3,0.6,0.3,0.8,0c0.3-0.3,0.8-0.6,1.1-0.8
		C35.3,18.1,35.6,17.8,36.2,17.8z"/>
</g>
</svg>
