<?xml version="1.0" encoding="utf-8"?>
<!-- Generator: Adobe Illustrator 25.4.1, SVG Export Plug-In . SVG Version: 6.00 Build 0)  -->
<svg version="1.1" id="Layer_1" xmlns="http://www.w3.org/2000/svg" xmlns:xlink="http://www.w3.org/1999/xlink" x="0px" y="0px"
	 viewBox="0 0 45 45" style="enable-background:new 0 0 45 45;" xml:space="preserve">
<style type="text/css">
	.st0{fill:#FFFFFF;}
</style>
<g>
	<path class="st0" d="M28,22c0-0.3,0.3-0.3,0.3-0.3c0.6-0.3,1.4-0.3,2-0.3c0.8,0,1.7,0.3,2.5,0.3c0.3,0,0.3,0,0.3,0.3
		c-0.6,0.8-1.1,1.4-2,1.7c-0.8,0.3-1.4,0.6-2.2,0.6c-1.1,0-2.2,0-3.1,0c-0.8,0-1.7,0-2.5,0c-0.6,0-0.8,0.3-0.8,0.8
		c0,0.6-0.6,1.1-0.8,1.4c-1.1,1.1-2,1.4-2.8,2c-0.6,0.3-1.4,0.6-2,1.1h-0.3c-0.3,0-0.6,0.3-0.8,0.3c-0.3,0.3-0.6,0.6-0.8,0.8
		C14.7,31,14.4,31,14.2,31c0,0-0.3,0-0.3-0.3s0-0.3,0-0.6c0-0.3,0-0.6,0-0.8c0.3-0.3,0.3-0.6,0.3-0.8c0-0.3,0-0.3-0.3-0.3h-0.3
		c0,0.3-0.6,0.3-0.8,0.6c-0.3,0.3-0.6,0.3-0.8,0.3c-0.3,0-0.3,0-0.6-0.3c0-0.3,0-0.8,0-1.1c0-0.3,0-0.8,0-1.1c0-0.3,0.3-0.6,0.3-0.6
		c0.3-0.3,0.3-0.3,0.6-0.6c0.3-0.3,0-0.6-0.3-0.6s-0.6,0-0.6,0c-0.3,0-0.6,0.3-0.8,0c0-0.3,0.3-0.3,0.3-0.3c0.3-0.3,0.3-0.6,0.3-0.8
		c0-0.6,0-1.1,0.3-1.7c0-0.3,0-0.6,0-0.8c0-0.3,0-0.3,0-0.6c0-0.3,0.3-0.6,0.3-1.1c0-0.3,0-0.3-0.3-0.6c-0.3,0-0.3-0.3,0-0.3
		c0.3-0.3,0.3-0.3,0.6-0.6c0.3-0.3,0.3-0.6,0-0.8c-0.3-0.3-0.6-0.6-0.8-0.3c-0.6,0.3-1.1,0.6-1.7,1.1c0,0.3-0.3,0.3-0.3,0.6
		c-0.7,0.3-0.7,0.6-0.1,0.9c0.3,0.3,0.3,0.3,0,0.6c-0.3-0.3-0.3,0-0.6,0S8,20.4,8,20.7C7.7,21,7.7,21,7.7,21.3c0,0.3,0,0.6,0.3,0.8
		c0.3,0.3,0.3,0.3,0,0.3l-0.3,0.3c-0.3,0.3-0.6,0.6-0.6,1.1c0,0.3,0,0.6,0,0.6c0,0.3,0,0.6,0,0.6c0.1,0.1-0.2,0.4-0.5,0.4
		c-1.1,0-1.7,0.3-2,0.3s-0.3,0-0.6,0s-0.4-0.3-0.4-0.6c-0.3-0.6-0.3-1.1,0-1.7c0-0.6,0.3-0.8,0.6-1.4c0.3-0.6,0.3-0.8,0.6-1.4v-0.3
		c0-0.3,0-0.8,0.3-1.1c0.8-1.4,1.4-3.1,1.4-4.8c0-0.3,0-0.6,0-0.6v-0.3c0-0.3,0.3-0.8,0.6-1.1c0-0.6,0.3-0.8,0.8-0.8s1.1,0,1.4,0
		c1.1,0,2,0.3,2.8,0.8c0.3,0.3,0.6,0.6,0.8,0.8l0.3,0.3c-0.3,0.3-0.6,0.3-0.6,0.3c-0.3,0-0.6,0.3-0.6,0.6s0,0.3,0,0.3
		c0.3,0,0.3,0,0.6,0s0.3-0.3,0.6-0.3c0.6-0.6,0.8-0.3,1.1,0c0.6,0.8,1.1,1.7,1.4,2.8c0.6,1.1,0.8,2.5,1.1,3.9c0,0.3,0.3,0.6,0.3,1.1
		c0.3,0.6,0.6,0.8,1.1,0.6c0.3,0,0.3-0.3,0.6-0.3s0.6-0.3,0.8-0.3s0.3,0,0.3-0.3c1.4-0.8,2.5-1.7,3.7-2.5c1.4-1.1,2.5-2.2,3.7-3.4
		c3.1-2.2,5.9-4.8,9.3-6.5c0.8-0.3,1.4-0.8,2.2-1.1s1.7-0.6,2.2-0.6s1.1-0.3,1.7-0.3c0,0,0.3,0,0.3-0.3c0.3-0.3,1.1-0.3,1.4,0.3v0.3
		c0,0.3-0.3,0.6-0.3,0.8c-0.3,0.3-0.6,0.8-0.8,1.1c-0.6,0.6-1.1,1.4-2,1.7c-0.6,0.3-0.8,0.8-1.4,1.1c-0.6,0.6-0.8,1.1-1.4,1.7
		c-0.6,0.6-1.1,1.1-1.7,1.7c-0.3,0.3-0.6,0.6-0.8,1.1c0,0,0,0-0.3,0c-0.8,0-1.7,0.3-2.5,0.8c-0.3,0.3-0.3,0-0.6-0.3
		c0-0.3,0-0.6-0.3-0.8v-0.3c0.3-0.3,0.3-0.3,0.6-0.6c0.3-0.3,0.6-0.6,0.8-0.8c0.3-0.3,0.6-0.6,0.6-0.8c0-0.3,0-0.3-0.3-0.3
		s-0.6,0-0.6,0.3c-0.3,0.3-0.8,0.6-1.4,0.8c-0.8,0.3-1.4,1.1-2,1.7c-0.3,0.3-0.6,0.3-0.6,0.6c-0.3,0.3-0.6,0.6-0.6,0.8
		c-0.3,0.3-0.3,0.6-0.6,0.8c-0.3,0.3-0.6,0.3-0.8,0.6c-0.3,0.3-0.6,0.6-0.8,1.1c0,0.3-0.3,0.3-0.3,0.6c-0.3,0.3-0.6,0.3-0.8,0.6
		c-0.3,0.3-0.3,0.3,0,0.6c0,0,0.3,0,0.3,0.3c0.3,0,0.3,0.3,0,0.3c-0.3,0.4-0.3,0.4-0.6,0.4c0-0.8-0.3-0.6-0.6-0.6
		c-0.3,0-0.6,0.3-0.6,0.6c0,0.3,0,0.3,0,0.3c0.3,0.3,0.8,0.3,1.1,0.3c0.8,0,1.7,0,2.5-0.3c0.3,0,0.6,0,0.6,0c0.3,0,0.8-0.3,1.1-0.3
		c0,0,0.3,0,0.3-0.3s0-0.3,0-0.6c-0.3,0-0.6-0.3-0.8-0.3C28.6,22.3,28.3,22.3,28,22z M34.7,12.7c0.8,0,1.4-0.3,2-0.8
		C35.9,11.9,35.3,12.2,34.7,12.7z M35.9,11.3c-0.6,0-1.1,0.3-1.7,0.8C34.7,11.9,35.3,11.6,35.9,11.3z"/>
	<path class="st0" d="M14,35.5c0-0.3,0-0.8,0.3-1.1c0.3-0.6,0.3-0.8,0.6-1.4c0,0,0,0,0-0.3c0.3-0.3,0.3-0.6,0.6-0.8
		c0-0.3,0.3-0.3,0.3-0.6c0,0,0.3-0.3,0.3,0c0.6,0.3,1.1,0,1.7-0.3c0.3-0.3,0.6-0.3,1.1-0.6c0.6-0.3,1.1-0.6,2-0.6h0.3
		c0.6-0.3,1.1-0.6,1.7-0.8c0.6-0.3,1.4-0.6,2-1.1c0.3-0.3,0.6-0.8,1.1-0.8c0.3-0.3,0.8-0.6,1.1-0.8c0.3-0.3,0.3-0.6,0.3-0.6
		c0-0.3,0-0.3,0.3-0.3s0.8,0.3,1.1,0.6c0,0,0,0,0.3,0.3c0.3,0.6,0.6,1.1,0.6,1.7s0,1.1-0.6,1.4c-0.3,0.3-0.6,0.6-0.6,0.8
		c0,0,0,0.3-0.3,0.3c-0.3,0.8-0.8,1.7-1.7,2.2c-0.6,0.3-1.1,0.8-1.7,1.4c-0.6,0.6-1.1,0.8-1.7,1.1c0,0-0.3,0-0.3,0.3
		c-0.3,0.6-0.8,0.8-1.4,0.8c-0.3,0.3-0.6,0.6-0.8,0.6c-0.6,0.3-0.8,0.3-1.1,0.6c-0.3,0.3-0.6,0.3-0.8,0.3c-0.3,0-0.6,0-0.8,0.3
		c-0.6,0-0.8,0.3-1.1,0.6h-0.3c-0.3,0-0.6-0.3-0.6-0.3c-1.1-0.8-1.7-1.4-1.7-2.2C14,35.8,14,35.8,14,35.5z"/>
	<path class="st0" d="M10.6,33.5c0,0.3-0.3,0.6-0.6,0.6c-1.1,1.1-2.2,2-3.7,2.2c-0.3,0-0.6,0.3-0.6,0.3c-0.8,0.6-1.4,1.1-2.2,1.7
		c-0.3,0.3-0.8,0.3-1.1,0S1.9,38,1.6,38c0,0-0.3,0-0.3-0.3C1,37.4,1,37.1,0.7,36.9c-0.3-0.3-0.3-0.3-0.6-0.6c0-0.3,0-0.6,0-0.6
		c0-0.3,0-0.6-0.3-0.8c0-0.3,0-0.3,0-0.6s0-0.6,0-0.8c0.3-0.3,0.3-0.6,0.3-1.1c0-0.3,0.3-0.8,0.6-1.1c0.3-0.6,0.8-1.1,1.4-1.7
		s0.8-1.1,1.4-1.7c0.3-0.6,0.6-0.8,1.1-1.1C4.9,26.5,5.4,26.2,6,26c0.3,0,0.3,0,0.6,0.3c0,0.3,0,0.3,0,0.6c0,0.3,0,0.8,0.3,1.1v0.3
		c0,0.3,0,0.8,0,1.1c0,0.3,0,0.8,0,1.1c0,0.3,0.3,0.6,0.3,0.6c0.3,0.6,0.8,0.8,1.4,0.8c0.3,0,0.3,0,0.6,0s0.3,0.3,0.3,0.3
		s0,0.3-0.3,0.3c0,0,0,0.3-0.3,0.3c0,0.3,0,0.6,0.3,0.6s0.6,0,0.8,0C10.3,33.5,10.6,33.5,10.6,33.5z"/>
	<path class="st0" d="M35.6,17.8c-0.3,0.8-0.6,1.1-1.1,1.7c-0.6,0.3-0.8,0.3-1.4,0.6c-0.6,0-1.4,0.3-2,0.6h-0.3
		c-0.6,0-0.8-0.3-1.4-0.3l0,0c0.8-0.6,1.4-0.8,2.2-1.1c0.3,0,0.3,0,0.6,0c0.3,0.3,0.6,0.3,0.8,0c0.3-0.3,0.8-0.6,1.1-0.8
		C34.7,18.1,35,17.8,35.6,17.8z"/>
</g>
</svg>
