<?xml version="1.0" encoding="utf-8"?>
<!-- Generator: Adobe Illustrator 25.4.1, SVG Export Plug-In . SVG Version: 6.00 Build 0)  -->
<svg version="1.1" id="Layer_1" xmlns="http://www.w3.org/2000/svg" xmlns:xlink="http://www.w3.org/1999/xlink" x="0px" y="0px"
	 viewBox="0 0 45 45" style="enable-background:new 0 0 45 45;" xml:space="preserve">
<style type="text/css">
	.st0{fill:#FFFFFF;}
</style>
<g>
	<path class="st0" d="M39,30H6c-0.5,0-0.9-0.4-0.9-0.9v-0.9c0-0.5,0.4-0.9,0.9-0.9H39c0.5,0,0.9,0.4,0.9,0.9v0.9
		C39.9,29.6,39.5,30,39,30z"/>
	<path class="st0" d="M39,17.7H6c-0.5,0-0.9-0.4-0.9-0.9v-0.9C5.1,15.4,5.5,15,6,15H39c0.5,0,0.9,0.4,0.9,0.9v0.9
		C39.9,17.3,39.5,17.7,39,17.7z"/>
</g>
</svg>
