<?xml version="1.0" encoding="utf-8"?>
<!-- Generator: Adobe Illustrator 25.4.1, SVG Export Plug-In . SVG Version: 6.00 Build 0)  -->
<svg version="1.1" id="Layer_1" xmlns="http://www.w3.org/2000/svg" xmlns:xlink="http://www.w3.org/1999/xlink" x="0px" y="0px"
	 viewBox="0 0 45 45" style="enable-background:new 0 0 45 45;" xml:space="preserve">
<style type="text/css">
	.st0{fill:#231f20;}
</style>
<g>
	<path class="st0" d="M39,31.4H6c-0.5,0-0.9-0.4-0.9-0.9v-0.9c0-0.5,0.4-0.9,0.9-0.9h33c0.5,0,0.9,0.4,0.9,0.9v0.9
		C39.9,31,39.5,31.4,39,31.4z"/>
	<path class="st0" d="M39,19.1H6c-0.5,0-0.9-0.4-0.9-0.9v-0.9c0-0.5,0.4-0.9,0.9-0.9h33c0.5,0,0.9,0.4,0.9,0.9v0.9
		C39.9,18.6,39.5,19.1,39,19.1z"/>
</g>
</svg>
