<?xml version="1.0" encoding="utf-8"?>
<!-- Generator: Adobe Illustrator 25.4.1, SVG Export Plug-In . SVG Version: 6.00 Build 0)  -->
<svg version="1.1" id="Layer_1" xmlns="http://www.w3.org/2000/svg" xmlns:xlink="http://www.w3.org/1999/xlink" x="0px" y="0px"
	 viewBox="0 0 100 50" style="enable-background:new 0 0 100 50;" xml:space="preserve">
<style type="text/css">
	.st0{fill:#231F20;}
</style>
<g>
	<g>
		<path class="st0" d="M36.7,28.9l0-0.2h2.5l0,0.1c0.2,1.3,1.5,2,3.3,2c1.8,0,3-0.8,3-2.1v0c0-1.1-0.8-1.7-2.7-2.1l-1.6-0.3
			c-2.9-0.6-4.3-1.9-4.3-4.1v0c0-2.6,2.3-4.3,5.4-4.3c3.2,0,5.3,1.7,5.4,4.2l0,0.2h-2.5l0-0.1c-0.2-1.3-1.3-2-2.9-2
			c-1.7,0-2.8,0.8-2.8,2v0c0,1,0.8,1.6,2.6,2l1.6,0.3c3,0.6,4.4,1.9,4.4,4.2v0c0,2.7-2.2,4.5-5.7,4.5C39.1,33.1,36.9,31.5,36.7,28.9
			z"/>
		<path class="st0" d="M49.1,27.5L49.1,27.5c0-3.5,2.1-5.6,5.2-5.6c3.1,0,5.2,2.1,5.2,5.6v0c0,3.5-2.1,5.6-5.2,5.6
			C51.1,33.1,49.1,31,49.1,27.5z M56.9,27.5L56.9,27.5c0-2.3-1-3.6-2.6-3.6c-1.6,0-2.6,1.3-2.6,3.5v0c0,2.3,1,3.6,2.6,3.6
			C55.9,31,56.9,29.7,56.9,27.5z"/>
		<path class="st0" d="M60.6,29.1v-7h2.5v6.5c0,1.5,0.7,2.4,2.2,2.4c1.5,0,2.4-1,2.4-2.6v-6.2h2.5v10.8h-2.5v-1.7h-0.1
			c-0.6,1.1-1.7,1.9-3.3,1.9C62,33.1,60.6,31.6,60.6,29.1z"/>
		<path class="st0" d="M71.9,22.1h2.5v1.7h0.1c0.6-1.2,1.7-1.9,3.3-1.9c2.4,0,3.7,1.5,3.7,4v7H79v-6.5c0-1.5-0.7-2.4-2.2-2.4
			c-1.5,0-2.4,1.1-2.4,2.6v6.2h-2.5V22.1z"/>
		<path class="st0" d="M82.7,27.5L82.7,27.5c0-3.5,1.7-5.6,4.4-5.6c1.5,0,2.8,0.8,3.4,2.1h0.1v-5.7h2.5v14.7h-2.5V31h-0.1
			c-0.6,1.3-1.8,2-3.4,2C84.4,33.1,82.7,31,82.7,27.5z M90.5,27.5L90.5,27.5c0-2.1-1.1-3.5-2.7-3.5c-1.6,0-2.6,1.3-2.6,3.5v0
			c0,2.1,1,3.5,2.6,3.5C89.4,31,90.5,29.6,90.5,27.5z"/>
	</g>
	<g>
		<path class="st0" d="M9.2,25.1H6.9c0,0,0.5-5.4,1.1-5.4S9.2,25.1,9.2,25.1z"/>
		<path class="st0" d="M12.5,11.3c-0.6,0-1.1,13.8-1.1,13.8h2.2C13.6,25.1,13.1,11.3,12.5,11.3z"/>
		<path class="st0" d="M9.2,25.1c0,0,0.5,7.6,1.1,7.6c0.6,0,1.1-7.6,1.1-7.6H9.2z"/>
		<path class="st0" d="M18.1,25h2.2c0,0-0.5,5.4-1.1,5.4C18.6,30.3,18.1,25,18.1,25z"/>
		<path class="st0" d="M14.8,38.8c0.6,0,1.1-13.8,1.1-13.8h-2.2C13.6,25,14.1,38.8,14.8,38.8z"/>
		<path class="st0" d="M18.1,25c0,0-0.5-7.6-1.1-7.6c-0.6,0-1.1,7.6-1.1,7.6H18.1z"/>
		<path class="st0" d="M22.6,25h-2.2c0,0,0.5-5.4,1.1-5.4C22.1,19.7,22.6,25,22.6,25z"/>
		<path class="st0" d="M25.9,11.2c-0.6,0-1.1,13.8-1.1,13.8H27C27,25,26.5,11.2,25.9,11.2z"/>
		<path class="st0" d="M22.6,25c0,0,0.5,7.6,1.1,7.6c0.6,0,1.1-7.6,1.1-7.6H22.6z"/>
		<path class="st0" d="M31.5,24.9h2.2c0,0-0.5,5.4-1.1,5.4S31.5,24.9,31.5,24.9z"/>
		<path class="st0" d="M28.1,38.7c0.6,0,1.1-13.8,1.1-13.8H27C27,24.9,27.5,38.7,28.1,38.7z"/>
		<path class="st0" d="M31.5,24.9c0,0-0.5-7.6-1.1-7.6c-0.6,0-1.1,7.6-1.1,7.6H31.5z"/>
	</g>
</g>
</svg>
