<?xml version="1.0" encoding="utf-8"?>
<!-- Generator: Adobe Illustrator 25.4.1, SVG Export Plug-In . SVG Version: 6.00 Build 0)  -->
<svg version="1.1" id="Layer_1" xmlns="http://www.w3.org/2000/svg" xmlns:xlink="http://www.w3.org/1999/xlink" x="0px" y="0px"
	 viewBox="0 0 100 33.2" style="enable-background:new 0 0 100 33.2;" xml:space="preserve">
<style type="text/css">
	.st0{fill:#A7BFC3;}
	.st1{fill:#231F20;}
</style>
<g>
	<path class="st0" d="M21.7,16.1c0.1-0.1,0.2-0.1,0.3-0.2c0.5-0.2,1-0.2,1.5-0.2c0.6,0.1,1.3,0.2,1.9,0.1c0.2,0,0.2,0.1,0.1,0.2
		c-0.4,0.6-0.9,1-1.5,1.2c-0.6,0.2-1.2,0.3-1.8,0.3c-0.8,0-1.6,0-2.5,0c-0.7,0-1.3,0-2,0.1c-0.4,0-0.6,0.2-0.7,0.6
		c-0.1,0.4-0.4,0.7-0.7,1c-0.5,0.4-1.1,0.8-1.8,1.1c-0.5,0.2-1.1,0.5-1.6,0.7c-0.1,0-0.2,0.1-0.3,0.1c-0.3,0-0.5,0.1-0.7,0.3
		c-0.2,0.2-0.4,0.3-0.5,0.5c-0.2,0.1-0.4,0.2-0.6,0.3c-0.1,0-0.2,0-0.2-0.2c0-0.1-0.1-0.2-0.1-0.4c-0.1-0.2-0.1-0.4,0.1-0.5
		c0.2-0.2,0.2-0.4,0.2-0.6c0-0.2-0.1-0.2-0.2-0.3c-0.1,0-0.2,0-0.2,0c-0.3,0.1-0.5,0.2-0.8,0.3c-0.2,0.1-0.4,0.2-0.6,0.1
		c-0.2,0-0.3-0.1-0.4-0.2c-0.1-0.2-0.2-0.4-0.2-0.7c0-0.3,0-0.6,0.1-0.8c0-0.2,0.1-0.3,0.3-0.4c0.1-0.1,0.2-0.2,0.3-0.3
		C9.3,18.1,9.3,18,9,17.9c-0.2,0-0.3-0.1-0.5,0c-0.2,0-0.5,0.1-0.7,0.1c0-0.1,0.1-0.2,0.2-0.3c0.2-0.2,0.3-0.3,0.3-0.6
		c0-0.4,0.1-0.8,0.2-1.2c0-0.2,0.1-0.3-0.1-0.5c-0.1-0.1-0.1-0.2,0.1-0.4c0.2-0.2,0.4-0.5,0.4-0.8c0-0.2,0-0.3-0.1-0.4
		c-0.1-0.1-0.1-0.2,0-0.3c0.1-0.1,0.3-0.3,0.4-0.5c0.1-0.2,0.1-0.4,0-0.6c-0.2-0.3-0.4-0.4-0.7-0.3C8,12.5,7.6,12.7,7.2,13
		C7.1,13.1,7,13.2,7,13.4c-0.1,0.3-0.1,0.4,0.1,0.7c0.2,0.2,0.2,0.2,0,0.4c-0.1,0.1-0.3,0.2-0.5,0.3c-0.2,0.1-0.4,0.2-0.5,0.3
		c-0.1,0.1-0.3,0.2-0.3,0.4c0,0.2,0,0.4,0.1,0.5C6,16,6,16.1,5.9,16.2c-0.1,0.1-0.2,0.1-0.3,0.2c-0.3,0.2-0.5,0.4-0.5,0.7
		c0,0.1,0,0.3,0,0.4c0,0.2,0,0.3-0.1,0.5c-0.1,0.2-0.2,0.3-0.4,0.4c-0.3,0-0.6,0.1-1,0.2c-0.1,0-0.2,0-0.3,0
		c-0.2-0.1-0.4-0.2-0.4-0.4c-0.1-0.4-0.1-0.8,0-1.2c0.1-0.3,0.2-0.6,0.4-0.9c0.1-0.3,0.3-0.6,0.4-0.9c0-0.1,0-0.2,0-0.2
		c0-0.3,0.1-0.5,0.3-0.7c0.7-1,1.1-2.1,1-3.4c0-0.2,0-0.3-0.1-0.5c0-0.1-0.1-0.2,0-0.3c0.1-0.3,0.2-0.5,0.3-0.8C5.3,9,5.6,8.8,6,8.8
		c0.4,0,0.8,0,1.2,0.1c0.8,0,1.5,0.2,2.1,0.6C9.5,9.6,9.7,9.8,10,10c0.1,0.1,0.2,0.1,0.2,0.2c-0.2,0.1-0.4,0.1-0.5,0.2
		c-0.2,0.1-0.3,0.2-0.4,0.3C9.1,10.9,9.1,11,9.3,11c0.2,0,0.3,0,0.4-0.1c0.1-0.1,0.2-0.2,0.4-0.3c0.4-0.3,0.6-0.2,0.9,0.1
		c0.5,0.6,0.8,1.2,1.1,1.9c0.3,0.9,0.6,1.8,0.9,2.6c0.1,0.2,0.2,0.5,0.2,0.7c0.1,0.4,0.4,0.5,0.8,0.4c0.1,0,0.3-0.1,0.4-0.2
		c0.2-0.1,0.4-0.2,0.7-0.2c0.1,0,0.2-0.1,0.3-0.1c1-0.5,1.9-1.1,2.7-1.8c1-0.7,1.9-1.6,2.9-2.3c2.3-1.6,4.6-3.2,7.1-4.6
		c0.5-0.3,1.1-0.5,1.7-0.8c0.6-0.3,1.2-0.3,1.8-0.5C32,6.1,32.4,6,32.8,5.9c0.1,0,0.2-0.1,0.3-0.1c0.3-0.2,0.8-0.1,1,0.1
		c0.1,0.1,0.1,0.1,0,0.2c0,0.2-0.1,0.4-0.2,0.6c-0.2,0.3-0.3,0.5-0.6,0.7c-0.5,0.5-1,0.9-1.5,1.2c-0.4,0.2-0.7,0.5-1,0.8
		c-0.4,0.3-0.7,0.7-1,1.1c-0.4,0.4-0.8,0.9-1.3,1.2c-0.3,0.2-0.5,0.5-0.7,0.7c-0.1,0.1-0.2,0.2-0.4,0.2c-0.7,0.1-1.4,0.2-2,0.6
		c-0.2,0.1-0.3,0.1-0.4-0.2c0-0.2-0.1-0.3-0.2-0.5c-0.1-0.1,0-0.2,0.1-0.3c0.1-0.1,0.3-0.3,0.5-0.4c0.2-0.2,0.5-0.3,0.7-0.5
		c0.2-0.2,0.4-0.4,0.4-0.6c0.1-0.2,0-0.2-0.2-0.3c-0.2,0-0.4,0-0.5,0.1c-0.3,0.2-0.6,0.4-1,0.5c-0.6,0.3-1.1,0.7-1.6,1.1
		c-0.2,0.1-0.3,0.3-0.5,0.4c-0.2,0.2-0.4,0.3-0.5,0.5c-0.1,0.2-0.3,0.4-0.5,0.5c-0.2,0.1-0.4,0.3-0.6,0.4c-0.2,0.2-0.5,0.4-0.6,0.7
		c0,0.2-0.2,0.2-0.3,0.3c-0.2,0.1-0.4,0.2-0.6,0.3c-0.2,0.1-0.2,0.2,0,0.3c0.1,0.1,0.2,0.1,0.3,0.1c0.1,0.1,0.1,0.1,0,0.2
		c-0.1,0.1-0.3,0.2-0.5,0.2c-0.2,0.1-0.4,0.1-0.6,0.2c-0.2,0.1-0.4,0.2-0.5,0.4c-0.1,0.2-0.1,0.2,0.1,0.3c0.3,0.1,0.5,0.2,0.8,0.2
		c0.6,0,1.3,0,1.9-0.1c0.2,0,0.3-0.1,0.5-0.1c0.3,0,0.6-0.2,0.9-0.3c0.1,0,0.1-0.1,0.2-0.1c0.1-0.1,0.1-0.3-0.1-0.3
		c-0.2-0.1-0.4-0.1-0.6-0.2C22,16.3,21.8,16.2,21.7,16.1z M26.7,9.6c0.6,0,1-0.3,1.5-0.6C27.6,9,27.1,9.2,26.7,9.6z M27.6,8.5
		c-0.5,0-0.9,0.2-1.3,0.6C26.8,9.1,27.2,8.9,27.6,8.5z"/>
	<path class="st0" d="M10.7,25.4c0-0.3,0.1-0.5,0.2-0.7c0.1-0.3,0.3-0.6,0.4-1c0,0,0-0.1,0.1-0.1c0.2-0.2,0.3-0.4,0.4-0.6
		c0.1-0.1,0.2-0.2,0.3-0.3c0.1-0.1,0.2-0.1,0.3-0.1c0.5,0.2,0.9,0.1,1.4-0.1c0.3-0.1,0.5-0.3,0.8-0.4c0.5-0.2,0.9-0.4,1.4-0.4
		c0.1,0,0.1,0,0.2,0c0.4-0.2,0.9-0.4,1.4-0.5c0.5-0.2,1.1-0.4,1.5-0.8c0.3-0.3,0.5-0.5,0.9-0.6c0.3-0.1,0.6-0.4,0.8-0.6
		c0.1-0.1,0.1-0.3,0.2-0.5c0-0.1,0.1-0.2,0.2-0.2c0.3,0,0.6,0.2,0.8,0.3c0.1,0,0.1,0.1,0.1,0.1c0.2,0.4,0.5,0.8,0.5,1.2
		c0.1,0.4,0,0.8-0.3,1.1c-0.2,0.2-0.4,0.4-0.5,0.7c0,0.1-0.1,0.1-0.1,0.2c-0.3,0.6-0.7,1.1-1.3,1.5c-0.4,0.3-0.8,0.7-1.2,1
		c-0.4,0.3-0.8,0.6-1.2,0.8c-0.1,0-0.1,0.1-0.2,0.1c-0.3,0.3-0.7,0.5-1.1,0.6c-0.3,0.1-0.6,0.2-0.8,0.3c-0.3,0.1-0.7,0.3-1,0.5
		C14.6,27,14.3,27,14.1,27c-0.2,0-0.5,0.1-0.7,0.1c-0.3,0-0.7,0.1-0.9,0.3c-0.1,0.1-0.2,0-0.3,0c-0.2-0.1-0.4-0.1-0.5-0.3
		c-0.5-0.4-0.7-0.9-0.9-1.5C10.7,25.6,10.7,25.5,10.7,25.4z"/>
	<path class="st0" d="M8.2,24.1c-0.1,0.2-0.2,0.3-0.3,0.5C7.1,25.3,6.1,25.8,5,26c-0.2,0-0.3,0.1-0.5,0.2c-0.6,0.3-1.1,0.7-1.6,1.1
		c-0.3,0.2-0.5,0.2-0.8,0c-0.2-0.1-0.4-0.3-0.7-0.3c-0.1,0-0.1-0.1-0.2-0.2c-0.2-0.2-0.3-0.4-0.5-0.6c-0.1-0.1-0.3-0.2-0.4-0.3
		c-0.1-0.1,0-0.3,0-0.5c0-0.2-0.1-0.4-0.1-0.7c0-0.1-0.1-0.3-0.1-0.4c0-0.2,0-0.4,0.1-0.5c0.2-0.2,0.2-0.5,0.3-0.7
		c0.1-0.3,0.2-0.5,0.4-0.8c0.3-0.4,0.6-0.8,1-1.1c0.4-0.3,0.7-0.7,1-1.1c0.2-0.3,0.5-0.6,0.8-0.9c0.3-0.3,0.6-0.5,1-0.6
		c0.2-0.1,0.2,0,0.3,0.2c0,0.1,0,0.2,0.1,0.4c0,0.3,0,0.5,0.3,0.7c0.1,0.1,0.1,0.2,0.1,0.3c0,0.3,0,0.5-0.1,0.8
		c-0.1,0.3-0.1,0.5,0.1,0.7c0.1,0.1,0.2,0.3,0.2,0.5c0.3,0.5,0.6,0.6,1.1,0.6c0.1,0,0.2,0,0.3,0c0.2,0.1,0.2,0.1,0.1,0.3
		c0,0.1-0.1,0.1-0.1,0.2c0,0.1-0.1,0.1-0.1,0.2c-0.1,0.2,0,0.3,0.2,0.4c0.2,0,0.4,0.1,0.6,0.1C8,24,8.1,24,8.2,24.1z"/>
	<path class="st0" d="M27.5,13.1c-0.1,0.5-0.4,0.8-0.8,1.1c-0.3,0.2-0.7,0.3-1,0.3c-0.5,0.1-1,0.2-1.5,0.3c-0.1,0-0.1,0-0.2,0
		c-0.4,0-0.7-0.1-1.1-0.2c0,0,0-0.1,0.1-0.1c0.6-0.3,1.2-0.6,1.8-0.8c0.2,0,0.3,0,0.4,0.1c0.2,0.2,0.4,0.2,0.6,0.1
		c0.3-0.2,0.6-0.4,0.9-0.5C26.8,13.3,27.1,13.1,27.5,13.1z"/>
	<g>
		<path class="st1" d="M36.1,10.9h2.6v14.7h-2.6V10.9z"/>
		<path class="st1" d="M40.6,14.8h2.5v1.7h0.1c0.6-1.2,1.7-1.9,3.3-1.9c2.4,0,3.7,1.5,3.7,4v7h-2.5v-6.5c0-1.5-0.7-2.4-2.2-2.4
			c-1.5,0-2.4,1.1-2.4,2.6v6.3h-2.5V14.8z"/>
		<path class="st1" d="M52.5,22.7v-5.9H51v-2h1.5v-2.7h2.6v2.7h2v2h-2v5.7c0,1.1,0.5,1.4,1.4,1.4c0.2,0,0.4,0,0.6,0v1.9
			c-0.3,0-0.7,0.1-1.3,0.1C53.6,25.8,52.5,24.9,52.5,22.7z"/>
		<path class="st1" d="M57.7,20.2L57.7,20.2c0-3.4,2-5.6,5.1-5.6s5,2.2,5,5.4v0.8h-7.5c0,1.9,1.1,3,2.7,3c1.3,0,2.1-0.7,2.3-1.4
			l0-0.1h2.4l0,0.1c-0.3,1.7-1.9,3.3-4.7,3.3C59.7,25.8,57.7,23.7,57.7,20.2z M60.3,19.1h5.1c-0.2-1.7-1.2-2.6-2.5-2.6
			S60.5,17.5,60.3,19.1z"/>
		<path class="st1" d="M69,14.8h2.5v1.9h0.1c0.3-1.3,1.2-2.1,2.5-2.1c0.3,0,0.6,0.1,0.8,0.1V17c-0.2-0.1-0.6-0.1-1-0.1
			c-1.4,0-2.3,0.9-2.3,2.5v6.3H69V14.8z"/>
		<path class="st1" d="M75.7,14.8h2.7l2.5,8.4h0.1l2.5-8.4h2.6l-3.8,10.8h-2.8L75.7,14.8z"/>
		<path class="st1" d="M86.2,22.5L86.2,22.5c0-1.9,1.5-3.1,4.1-3.2l2.8-0.2v-0.7c0-1.1-0.7-1.8-2-1.8c-1.2,0-1.9,0.6-2.1,1.4l0,0.1
			h-2.4l0-0.1c0.2-1.9,1.8-3.3,4.5-3.3c2.7,0,4.4,1.4,4.4,3.6v7.4h-2.5v-1.7H93c-0.6,1.1-1.8,1.8-3.2,1.8
			C87.6,25.8,86.2,24.4,86.2,22.5z M90.5,23.8c1.5,0,2.6-1,2.6-2.2v-0.8l-2.5,0.2c-1.3,0.1-1.9,0.6-1.9,1.5v0
			C88.7,23.3,89.4,23.8,90.5,23.8z"/>
		<path class="st1" d="M97.3,10.9h2.5v14.7h-2.5V10.9z"/>
	</g>
</g>
</svg>
