<?xml version="1.0" encoding="utf-8"?>
<!-- Generator: Adobe Illustrator 25.4.1, SVG Export Plug-In . SVG Version: 6.00 Build 0)  -->
<svg version="1.1" id="Layer_1" xmlns="http://www.w3.org/2000/svg" xmlns:xlink="http://www.w3.org/1999/xlink" x="0px" y="0px"
	 viewBox="0 0 100 33.2" style="enable-background:new 0 0 100 33.2;" xml:space="preserve">
<g>
	<g>
		<path d="M39.8,27.6c-0.1,0-0.2-0.1-0.2-0.2l0.1-10.1l-0.1-7h-5.8c-0.1,0-0.2-0.1-0.2-0.2V7.2c0-0.1,0.1-0.2,0.2-0.2h16.1
			c0.1,0,0.2,0.1,0.2,0.2V10c0,0.1-0.1,0.2-0.2,0.2h-5.8l-0.1,7l0.1,10.1c0,0.1-0.1,0.2-0.2,0.2H39.8z"/>
		<path d="M51,10.9c-0.1,0-0.2-0.1-0.2-0.2V7.2c0-0.1,0.1-0.2,0.2-0.2h4c0.1,0,0.2,0.1,0.2,0.2v3.5c0,0.1-0.1,0.2-0.2,0.2H51z
			 M51,27.6c-0.1,0-0.2-0.1-0.2-0.2l0.1-7.4l-0.1-7.4c0-0.1,0.1-0.2,0.2-0.2h4c0.1,0,0.2,0.1,0.2,0.2L55.2,20l0.1,7.4
			c0,0.1-0.1,0.2-0.2,0.2H51z"/>
		<path d="M60.9,22.1l0.1,5.2c0,0.1-0.1,0.2-0.2,0.2h-4.1c-0.1,0-0.2-0.1-0.2-0.2l0.1-5.2v-9.5c0-0.1,0.1-0.2,0.2-0.2h3.8
			c0.1,0,0.2,0.1,0.2,0.2l-0.1,1.7c1.1-1.5,2.4-2.3,4.4-2.3c2.1,0,3.7,0.9,4.4,2.9c1.3-2.3,2.8-2.9,4.6-2.9c3.1,0,4.8,1.9,4.8,5.9
			v4.2l0.1,5.2c0,0.1-0.1,0.2-0.2,0.2h-4c-0.1,0-0.2-0.1-0.2-0.2l0.1-5.2V18c0-1.8-0.7-2.7-2-2.7c-1.2,0-2.7,1.6-2.7,4.7v2.1
			l0.1,5.2c0,0.1-0.1,0.2-0.2,0.2h-4c-0.1,0-0.2-0.1-0.2-0.2l0.1-5.2V18c0-1.8-0.7-2.7-2-2.7c-1.2,0-2.7,1.6-2.7,4.7V22.1z"/>
		<path d="M94.4,22.5c0.1,0,0.2,0.1,0.2,0.2c-0.4,2.8-3,5.3-7.3,5.3c-5.1,0-7.8-3.3-7.8-8c0-4.8,2.9-8,7.7-8c5,0,7.8,3.3,7.9,8.7
			c0,0.1-0.1,0.2-0.2,0.2H83.9c0.2,2.9,1.3,4.1,3.4,4.1c1.5,0,2.6-0.7,3-2.3c0-0.1,0.2-0.2,0.3-0.2H94.4z M87.2,14.9
			c-1.8,0-2.8,1.1-3.2,3.2h6.2C90.1,16.5,89.2,14.9,87.2,14.9z"/>
		<path d="M99.2,13.2c0,0.3-0.1,0.7-0.2,1c-0.1,0.3-0.3,0.6-0.5,0.8s-0.5,0.4-0.8,0.5c-0.3,0.1-0.6,0.2-1,0.2h0
			c-0.4,0-0.7-0.1-1-0.2c-0.3-0.1-0.6-0.3-0.8-0.5c-0.2-0.2-0.4-0.5-0.5-0.8c-0.1-0.3-0.2-0.6-0.2-1v0c0-0.3,0.1-0.7,0.2-1
			c0.1-0.3,0.3-0.6,0.5-0.8c0.2-0.2,0.5-0.4,0.8-0.5c0.3-0.1,0.6-0.2,1-0.2h0c0.3,0,0.7,0.1,1,0.2c0.3,0.1,0.6,0.3,0.8,0.5
			c0.2,0.2,0.4,0.5,0.5,0.8C99.1,12.5,99.2,12.9,99.2,13.2L99.2,13.2z M98.4,12.2c-0.2-0.3-0.4-0.5-0.7-0.7c-0.3-0.2-0.6-0.3-1-0.3
			h0c-0.4,0-0.7,0.1-1,0.3c-0.3,0.2-0.6,0.4-0.7,0.7c-0.2,0.3-0.3,0.6-0.3,1v0c0,0.4,0.1,0.7,0.3,1c0.2,0.3,0.4,0.6,0.7,0.7
			c0.3,0.2,0.7,0.3,1,0.3h0c0.4,0,0.7-0.1,1-0.3c0.3-0.2,0.5-0.4,0.7-0.7c0.2-0.3,0.3-0.7,0.3-1v0C98.7,12.8,98.6,12.5,98.4,12.2z
			 M95.7,11.9h1.1c0.3,0,0.5,0.1,0.7,0.2c0.2,0.1,0.3,0.4,0.3,0.6c0,0.2,0,0.3-0.1,0.4c-0.1,0.1-0.2,0.2-0.4,0.3l0.6,1h-0.6l-0.5-1
			c0,0,0,0,0,0c0,0,0,0,0,0h-0.5v1h-0.5V11.9z M96.7,13.2c0.2,0,0.3,0,0.4-0.1c0.1-0.1,0.1-0.2,0.1-0.3v0c0-0.1,0-0.2-0.1-0.3
			c-0.1-0.1-0.2-0.1-0.4-0.1h-0.5v0.9H96.7z"/>
	</g>
	<g>
		<g>
			<path d="M29.2,11.4c-0.2,0.2-0.4,0.4-0.6,0.6c-0.1,0.1-0.2,0.1-0.3,0.2c-0.6,0.1-1.2,0.2-1.8,0.5c-0.2,0.1-0.3,0.1-0.3-0.1
				c0-0.2-0.1-0.3-0.2-0.4c-0.1-0.1,0-0.2,0.1-0.3c0.1-0.1,0.3-0.2,0.4-0.3c0.2-0.1,0.4-0.3,0.6-0.5c0.2-0.1,0.3-0.3,0.4-0.5
				c0.1-0.2,0-0.2-0.1-0.2c-0.2,0-0.3,0-0.5,0.1c-0.3,0.2-0.6,0.3-0.9,0.5c-0.5,0.3-1,0.6-1.5,1c-0.1,0.1-0.3,0.2-0.4,0.4
				c-0.2,0.1-0.3,0.3-0.4,0.5c-0.1,0.2-0.3,0.3-0.5,0.5c-0.2,0.1-0.4,0.3-0.6,0.4c-0.2,0.2-0.4,0.4-0.5,0.6c0,0.1-0.2,0.2-0.3,0.3
				c-0.2,0.1-0.4,0.2-0.5,0.3c-0.2,0.1-0.2,0.2,0,0.3c0.1,0,0.2,0.1,0.3,0.1c0.1,0.1,0.1,0.1,0,0.2c-0.1,0.1-0.3,0.1-0.4,0.2
				c-0.2,0.1-0.4,0.1-0.6,0.2c-0.2,0.1-0.3,0.2-0.4,0.4c-0.1,0.2-0.1,0.2,0.1,0.2c0.2,0.1,0.5,0.1,0.7,0.2c0.6,0,1.1,0,1.7-0.1
				c0.2,0,0.3-0.1,0.5-0.1c0.3,0,0.5-0.1,0.8-0.3c0.1,0,0.1-0.1,0.2-0.1c0.1-0.1,0.1-0.2-0.1-0.3c-0.2-0.1-0.3-0.1-0.5-0.2
				c-0.2,0-0.3-0.1-0.5-0.2c0.1-0.1,0.2-0.1,0.3-0.2c0.4-0.2,0.9-0.2,1.3-0.1c0.6,0.1,1.1,0.2,1.7,0.1c0.2,0,0.2,0.1,0.1,0.2
				c-0.3,0.5-0.8,0.9-1.4,1.1c-0.5,0.2-1.1,0.3-1.6,0.3c-0.7,0-1.5,0-2.2,0c-0.6,0-1.2,0-1.8,0.1c-0.4,0-0.6,0.2-0.6,0.5
				c-0.1,0.4-0.3,0.7-0.6,0.9c-0.5,0.4-1,0.7-1.6,1c-0.5,0.2-0.9,0.4-1.4,0.6c-0.1,0-0.1,0.1-0.2,0.1c-0.2,0-0.4,0.1-0.6,0.2
				c-0.2,0.1-0.3,0.3-0.5,0.4c-0.1,0.1-0.3,0.2-0.5,0.2c-0.1,0-0.2,0-0.2-0.1c0-0.1,0-0.2-0.1-0.3c-0.1-0.2-0.1-0.3,0.1-0.5
				c0.2-0.2,0.2-0.4,0.2-0.6c0-0.2,0-0.2-0.2-0.2c-0.1,0-0.1,0-0.2,0c-0.2,0.1-0.5,0.2-0.7,0.3c-0.2,0.1-0.4,0.2-0.6,0.1
				c-0.1,0-0.2-0.1-0.3-0.2c-0.1-0.2-0.2-0.4-0.2-0.6c0-0.3,0-0.5,0.1-0.8c0-0.2,0.1-0.3,0.2-0.4c0.1-0.1,0.2-0.2,0.3-0.3
				c0.1-0.2,0.1-0.3-0.2-0.4c-0.2,0-0.3-0.1-0.5,0c-0.2,0-0.4,0.1-0.7,0.1c0-0.1,0.1-0.2,0.2-0.2c0.2-0.1,0.3-0.3,0.2-0.5
				c0-0.4,0.1-0.7,0.2-1c0-0.2,0.1-0.3,0-0.5c-0.1-0.1-0.1-0.2,0.1-0.3c0.2-0.2,0.4-0.4,0.4-0.7c0-0.1,0-0.3-0.1-0.3
				c-0.1-0.1-0.1-0.1,0-0.2c0.1-0.1,0.2-0.3,0.3-0.4c0.1-0.2,0.1-0.4,0-0.6c-0.1-0.3-0.3-0.3-0.6-0.2c-0.4,0.2-0.8,0.3-1.1,0.7
				c-0.1,0.1-0.2,0.2-0.2,0.3c-0.1,0.3-0.1,0.4,0.1,0.6c0.2,0.2,0.2,0.2,0,0.3c-0.1,0.1-0.3,0.2-0.4,0.2C9.3,14,9.2,14.1,9,14.2
				c-0.1,0.1-0.2,0.2-0.3,0.4c0,0.2,0,0.3,0.1,0.5c0.1,0.1,0.1,0.2,0,0.2c-0.1,0.1-0.2,0.1-0.3,0.2c-0.3,0.1-0.4,0.4-0.4,0.7
				c0,0.1,0,0.3,0,0.4c0,0.1,0,0.3-0.1,0.4c-0.1,0.2-0.2,0.3-0.4,0.3c-0.3,0-0.6,0.1-0.9,0.2c-0.1,0-0.2,0-0.3,0
				c-0.2-0.1-0.3-0.2-0.4-0.4c-0.1-0.3-0.1-0.7,0-1c0.1-0.3,0.2-0.6,0.3-0.8c0.1-0.3,0.3-0.5,0.3-0.8c0-0.1,0-0.1,0-0.2
				c0-0.3,0.1-0.4,0.2-0.6c0.6-0.9,1-1.9,0.9-3c0-0.1,0-0.3-0.1-0.4c0-0.1-0.1-0.2,0-0.3C7.9,9.6,8,9.4,8.1,9.1
				c0.2-0.3,0.5-0.4,0.8-0.5c0.4,0,0.7,0,1,0.1c0.7,0,1.3,0.2,1.9,0.6c0.2,0.1,0.4,0.3,0.6,0.5c0.1,0.1,0.2,0.1,0.2,0.2
				c-0.2,0.1-0.3,0.1-0.5,0.2c-0.2,0.1-0.3,0.1-0.4,0.3c-0.1,0.1-0.1,0.2,0.1,0.2c0.1,0,0.3,0,0.4-0.1c0.1-0.1,0.2-0.2,0.3-0.2
				c0.3-0.2,0.5-0.2,0.8,0.1c0.4,0.5,0.7,1.1,1,1.7c0.3,0.8,0.5,1.6,0.8,2.4c0.1,0.2,0.1,0.4,0.2,0.6c0.1,0.4,0.4,0.5,0.7,0.4
				c0.1,0,0.3-0.1,0.4-0.1c0.2-0.1,0.4-0.1,0.6-0.1c0.1,0,0.2-0.1,0.3-0.1c0.9-0.5,1.7-1,2.5-1.6c0.9-0.7,1.7-1.4,2.6-2
				c2.1-1.4,4.2-2.9,6.4-4.1c0.4-0.2,0.8-0.4,1.2-0.6c-1.1-2.7-3.7-4.6-6.8-4.6h-15c-4.1,0-7.4,3.3-7.4,7.4v13.9
				c0,4.1,3.3,7.4,7.4,7.4h15c4.1,0,7.4-3.3,7.4-7.4V10c-0.1,0.1-0.1,0.2-0.2,0.2C30,10.7,29.6,11,29.2,11.4z M10.7,22.8
				c-0.7,0.7-1.6,1.1-2.6,1.4c-0.2,0-0.3,0.1-0.4,0.2c-0.5,0.3-1,0.6-1.5,1c-0.3,0.2-0.5,0.2-0.7,0c-0.2-0.1-0.4-0.2-0.6-0.3
				c-0.1,0-0.1-0.1-0.2-0.1c-0.1-0.2-0.3-0.4-0.4-0.6c-0.1-0.1-0.2-0.2-0.3-0.3c-0.1-0.1,0-0.3,0-0.4c0-0.2-0.1-0.4-0.1-0.6
				c0-0.1-0.1-0.2-0.1-0.4c0-0.2,0-0.3,0.1-0.5C3.9,22.1,4,21.9,4,21.7c0.1-0.3,0.2-0.5,0.4-0.7c0.3-0.4,0.6-0.7,0.9-1
				c0.3-0.3,0.6-0.7,0.9-1c0.2-0.3,0.5-0.5,0.7-0.8c0.3-0.2,0.5-0.4,0.9-0.5c0.2-0.1,0.2,0,0.3,0.1c0,0.1,0,0.2,0.1,0.3
				c0,0.2,0,0.5,0.3,0.7c0.1,0,0.1,0.2,0.1,0.2c0,0.2,0,0.5-0.1,0.7c-0.1,0.2-0.1,0.5,0.1,0.7c0.1,0.1,0.1,0.3,0.2,0.4
				c0.2,0.4,0.5,0.6,1,0.5c0.1,0,0.2,0,0.3,0c0.2,0,0.2,0.1,0.1,0.3c0,0.1-0.1,0.1-0.1,0.2c0,0.1-0.1,0.1-0.1,0.2
				c-0.1,0.2,0,0.3,0.2,0.3c0.2,0,0.4,0,0.6,0.1c0.1,0,0.2,0,0.3,0.1C10.9,22.6,10.8,22.7,10.7,22.8z M23.5,19.8
				c-0.2,0.2-0.3,0.4-0.5,0.6c0,0.1-0.1,0.1-0.1,0.2c-0.2,0.6-0.6,1-1.1,1.4c-0.4,0.2-0.7,0.6-1.1,0.9c-0.3,0.3-0.7,0.5-1.1,0.7
				c-0.1,0-0.1,0.1-0.2,0.1c-0.3,0.3-0.6,0.5-1,0.6c-0.2,0.1-0.5,0.2-0.7,0.3c-0.3,0.1-0.6,0.2-0.9,0.4c-0.2,0.1-0.4,0.1-0.6,0.2
				c-0.2,0-0.4,0.1-0.7,0.1c-0.3,0-0.6,0.1-0.8,0.3c-0.1,0.1-0.2,0-0.3,0c-0.2,0-0.3-0.1-0.5-0.3c-0.4-0.4-0.6-0.8-0.8-1.3
				c0-0.1,0-0.2,0-0.2c0-0.3,0.1-0.5,0.1-0.7c0.1-0.3,0.3-0.6,0.3-0.9c0,0,0-0.1,0.1-0.1c0.1-0.2,0.2-0.3,0.4-0.5
				c0.1-0.1,0.1-0.2,0.3-0.3c0.1-0.1,0.2-0.1,0.3-0.1c0.4,0.1,0.8,0.1,1.2-0.1c0.2-0.1,0.5-0.3,0.7-0.4c0.4-0.2,0.8-0.4,1.3-0.3
				c0.1,0,0.1,0,0.2,0c0.4-0.2,0.8-0.3,1.3-0.5c0.5-0.2,1-0.4,1.3-0.7c0.2-0.2,0.5-0.5,0.8-0.6c0.3-0.1,0.5-0.3,0.7-0.5
				c0.1-0.1,0.1-0.3,0.2-0.4c0-0.1,0.1-0.2,0.2-0.1c0.3,0,0.5,0.1,0.8,0.3c0,0,0.1,0.1,0.1,0.1c0.2,0.4,0.4,0.7,0.5,1.1
				C23.9,19.2,23.8,19.5,23.5,19.8z M27.5,13.5c-0.3,0.2-0.6,0.2-0.9,0.3c-0.4,0.1-0.9,0.1-1.3,0.3c-0.1,0-0.1,0-0.2,0
				c-0.3,0-0.6-0.1-0.9-0.2c0,0,0-0.1,0-0.1c0.5-0.3,1.1-0.5,1.6-0.7c0.1,0,0.2,0,0.3,0.1c0.2,0.2,0.3,0.2,0.5,0.1
				c0.3-0.1,0.5-0.3,0.8-0.5c0.2-0.1,0.5-0.3,0.8-0.3C28.1,13,27.9,13.3,27.5,13.5z"/>
		</g>
		<g>
			<path d="M28.4,8.4c-0.4,0-0.8,0.2-1.2,0.5C27.6,8.9,28,8.7,28.4,8.4z"/>
		</g>
		<g>
			<path d="M27.6,9.4c0.5,0,0.9-0.2,1.3-0.6C28.4,8.9,28,9,27.6,9.4z"/>
		</g>
	</g>
</g>
</svg>
