<?xml version="1.0" encoding="utf-8"?>
<!-- Generator: Adobe Illustrator 26.0.0, SVG Export Plug-In . SVG Version: 6.00 Build 0)  -->
<svg version="1.1" className="we__are" id="Layer_1" xmlns="http://www.w3.org/2000/svg" xmlns:xlink="http://www.w3.org/1999/xlink" x="0px" y="0px"
	 viewBox="0 0 300 105" style="enable-background:new 0 0 300 105;" xml:space="preserve">
   <style type="text/css">
   	.st0{fill:#333333;}
   </style>
<g>
	<path d="M18.4,44.5C16.9,82,30.3,39,40.5,45.1c6.1,3.6,12,15.1,13.9,5.4c0.5-2.5,6.8-20.3,10.7-28.4c4-8.4,14.3-10,10.7,7.4
		c-3.2,15.8-9.5,41.7-14.4,56c-0.8,0.2-0.4,4.6-11.6,3.2c-8.2-1-11.4-15.3-15-21.3C31,61,24.1,78.5,21,82.9
		c-2.7,3.8-6.1,5.2-15.2,0.8c-5.9-2.9-2.2-47.2-0.1-47.6C8.5,29.9,19,31,18.4,44.5z"/>
	<path d="M79.3,56.9c1.5-14.6,21.4-29.9,35-22.9c7.8,4,11.1,13.7,5.5,20.7c-5.2,6.3-11.8,6.7-19.3,7.6c-6.3,0.8-4.7,4.7-1.1,8.4
		c2.7,2.8,6.6,3.1,9,7.1c3.1,5.1-7.2,4.1-9.5,3.5C87.1,78.1,77.9,70.1,79.3,56.9z M96.3,55.7c5.7,0.5,14.9-7.1,13.9-13
		c-0.6-3.6-11.8,5.3-14.8,9C94.2,53.2,95.3,55.6,96.3,55.7z"/>
	<path d="M203.4,42.8c-0.2,1.7-0.4,19.4-0.2,28.6c0.2,6.7,3.6,10.7-3.7,11c-4.1,0.2-6.4-2.9-7.8-6c-3.7-7.8-1.1-7.9-7.8-2.5
		c-7.4,6-21.5,15.4-28.2-0.1c-5.8-13.4,4.5-34.6,19.6-36.4c4.8-0.6,12,0.2,16.4,1.6C196.3,37.1,203.9,38,203.4,42.8z M184.2,43.4
		c-12.4,0-22.5,25.9-12.9,25.9c5.9,0,14.4-10.9,16.7-15.5C189.8,50,190.6,43.4,184.2,43.4z"/>
	<path d="M228.1,39.9c2.2,2.1,3.5,6.6,4.6,6.6c0.1,0,12.7-8.4,17.1-3.9c4.5,4.6-0.3,5.4-5.8,8.6c-12.4,7.1-13.5,16-14.8,29.2
		c-0.9,9.7-14.1,3.5-14.3-5.8c-0.2-8.3,2.6-15.8,2.1-25c-0.2-4.7-0.2-9.7,2.9-10.4C223.1,38.6,227,38.9,228.1,39.9z"/>
	<path d="M254.1,56.9c1.5-14.6,21.4-29.9,35-22.9c7.8,4,11.1,13.7,5.5,20.7c-5.2,6.3-11.8,6.7-19.3,7.6c-6.3,0.8-4.7,4.7-1.1,8.4
		c2.7,2.8,6.6,3.1,9,7.1c3.1,5.1-7.2,4.1-9.5,3.5C262,78.1,252.7,70.1,254.1,56.9z M271.1,55.7c5.7,0.5,14.9-7.1,13.9-13
		c-0.6-3.6-11.8,5.3-14.8,9C269,53.2,270.1,55.6,271.1,55.7z" />
</g>
</svg>
