{
    "asset" : {
        "copyright" : "Atelier Design Yield\u00ae",
        "generator" : "Khronos glTF Blender I/O v1.5.17",
        "version" : "2.0"
    },
    "scene" : 0,
    "scenes" : [
        {
            "extras" : {
                "blenderkitUI" : {
                    "assetbar_on" : 0,
                    "turn_off" : 0
                },
                "matlib" : {
                    "lib_index" : 0,
                    "filter" : 0,
                    "cat_index" : -1,
                    "categories" : [
                        {
                            "name" : "Misc"
                        },
                        {
                            "name" : "Ceramic"
                        },
                        {
                            "name" : "Earth"
                        },
                        {
                            "name" : "Glass"
                        },
                        {
                            "name" : "Organic"
                        },
                        {
                            "name" : "Wood"
                        },
                        {
                            "name" : "Metal"
                        },
                        {
                            "name" : "Paint"
                        }
                    ],
                    "all_materials" : [
                        {
                            "name" : "1970_tiles",
                            "category" : "Ceramic"
                        },
                        {
                            "name" : "Anodized",
                            "category" : "Metal"
                        },
                        {
                            "name" : "Basic Glass",
                            "category" : "Glass"
                        },
                        {
                            "name" : "Blaster Bolt (Blue)",
                            "category" : "Misc"
                        },
                        {
                            "name" : "Brushed Metal",
                            "category" : "Metal"
                        },
                        {
                            "name" : "Building",
                            "category" : "Misc"
                        },
                        {
                            "name" : "Car Paint",
                            "category" : "Paint"
                        },
                        {
                            "name" : "Ceramic",
                            "category" : "Ceramic"
                        },
                        {
                            "name" : "Ceramic Polished",
                            "category" : "Ceramic"
                        },
                        {
                            "name" : "Chocolate Swirl",
                            "category" : "Organic"
                        },
                        {
                            "name" : "Coated Glossy",
                            "category" : "Paint"
                        },
                        {
                            "name" : "Composite Rubber"
                        },
                        {
                            "name" : "Cranberry Juice",
                            "category" : "Glass"
                        },
                        {
                            "name" : "Crushed Velvet Eevee"
                        },
                        {
                            "name" : "Double  Sided"
                        },
                        {
                            "name" : "Facade_Glass",
                            "category" : "Glass"
                        },
                        {
                            "name" : "Fake Glass",
                            "category" : "Glass"
                        },
                        {
                            "name" : "Fake Shading",
                            "category" : "Misc"
                        },
                        {
                            "name" : "Flaky Tangelo",
                            "category" : "Paint"
                        },
                        {
                            "name" : "Fresnel",
                            "category" : "Misc"
                        },
                        {
                            "name" : "Galvanized Steel",
                            "category" : "Metal"
                        },
                        {
                            "name" : "Glow Glass"
                        },
                        {
                            "name" : "High Gloss Plastic",
                            "category" : "Paint"
                        },
                        {
                            "name" : "Jewelry",
                            "category" : "Metal"
                        },
                        {
                            "name" : "Lemon",
                            "category" : "Organic"
                        },
                        {
                            "name" : "Metalic Paint",
                            "category" : "Paint"
                        },
                        {
                            "name" : "Metallic Paint Clean",
                            "category" : "Paint"
                        },
                        {
                            "name" : "Molten",
                            "category" : "Earth"
                        },
                        {
                            "name" : "Polished Walnut",
                            "category" : "Wood"
                        },
                        {
                            "name" : "Soap Bubble",
                            "category" : "Glass"
                        },
                        {
                            "name" : "Stars",
                            "category" : "Earth"
                        },
                        {
                            "name" : "Wire Musgrave",
                            "category" : "Misc"
                        },
                        {
                            "name" : "WoodP",
                            "category" : "Wood"
                        },
                        {
                            "name" : "wood"
                        },
                        {
                            "name" : "wood boards"
                        }
                    ],
                    "materials" : [
                        {
                            "name" : "1970_tiles",
                            "category" : "Ceramic"
                        },
                        {
                            "name" : "Anodized",
                            "category" : "Metal"
                        },
                        {
                            "name" : "Basic Glass",
                            "category" : "Glass"
                        },
                        {
                            "name" : "Blaster Bolt (Blue)",
                            "category" : "Misc"
                        },
                        {
                            "name" : "Brushed Metal",
                            "category" : "Metal"
                        },
                        {
                            "name" : "Building",
                            "category" : "Misc"
                        },
                        {
                            "name" : "Car Paint",
                            "category" : "Paint"
                        },
                        {
                            "name" : "Ceramic",
                            "category" : "Ceramic"
                        },
                        {
                            "name" : "Ceramic Polished",
                            "category" : "Ceramic"
                        },
                        {
                            "name" : "Chocolate Swirl",
                            "category" : "Organic"
                        },
                        {
                            "name" : "Coated Glossy",
                            "category" : "Paint"
                        },
                        {
                            "name" : "Composite Rubber",
                            "category" : ""
                        },
                        {
                            "name" : "Cranberry Juice",
                            "category" : "Glass"
                        },
                        {
                            "name" : "Crushed Velvet Eevee",
                            "category" : ""
                        },
                        {
                            "name" : "Double  Sided",
                            "category" : ""
                        },
                        {
                            "name" : "Facade_Glass",
                            "category" : "Glass"
                        },
                        {
                            "name" : "Fake Glass",
                            "category" : "Glass"
                        },
                        {
                            "name" : "Fake Shading",
                            "category" : "Misc"
                        },
                        {
                            "name" : "Flaky Tangelo",
                            "category" : "Paint"
                        },
                        {
                            "name" : "Fresnel",
                            "category" : "Misc"
                        },
                        {
                            "name" : "Galvanized Steel",
                            "category" : "Metal"
                        },
                        {
                            "name" : "Glow Glass",
                            "category" : ""
                        },
                        {
                            "name" : "High Gloss Plastic",
                            "category" : "Paint"
                        },
                        {
                            "name" : "Jewelry",
                            "category" : "Metal"
                        },
                        {
                            "name" : "Lemon",
                            "category" : "Organic"
                        },
                        {
                            "name" : "Metalic Paint",
                            "category" : "Paint"
                        },
                        {
                            "name" : "Metallic Paint Clean",
                            "category" : "Paint"
                        },
                        {
                            "name" : "Molten",
                            "category" : "Earth"
                        },
                        {
                            "name" : "Polished Walnut",
                            "category" : "Wood"
                        },
                        {
                            "name" : "Soap Bubble",
                            "category" : "Glass"
                        },
                        {
                            "name" : "Stars",
                            "category" : "Earth"
                        },
                        {
                            "name" : "Wire Musgrave",
                            "category" : "Misc"
                        },
                        {
                            "name" : "WoodP",
                            "category" : "Wood"
                        },
                        {
                            "name" : "wood",
                            "category" : ""
                        },
                        {
                            "name" : "wood boards",
                            "category" : ""
                        }
                    ],
                    "mat_index" : 23
                },
                "uuid" : "22b04b9f-6027-4a7e-9a8a-bc5bfa1d99f4"
            },
            "name" : "Scene",
            "nodes" : [
                0,
                1,
                2,
                3
            ]
        }
    ],
    "nodes" : [
        {
            "name" : "Light",
            "rotation" : [
                0.16907575726509094,
                0.7558803558349609,
                -0.27217137813568115,
                0.570947527885437
            ],
            "translation" : [
                4.076245307922363,
                5.903861999511719,
                -1.0054539442062378
            ]
        },
        {
            "name" : "Camera",
            "rotation" : [
                0.483536034822464,
                0.33687159419059753,
                -0.20870360732078552,
                0.7804827094078064
            ],
            "translation" : [
                7.358891487121582,
                4.958309173583984,
                6.925790786743164
            ]
        },
        {
            "mesh" : 0,
            "name" : "Curve",
            "rotation" : [
                0.7071068286895752,
                0,
                0,
                0.7071068286895752
            ]
        },
        {
            "name" : "Material_Preview_Dummy"
        }
    ],
    "materials" : [
        {
            "doubleSided" : true,
            "extras" : {
                "category" : "Metal"
            },
            "name" : "Jewelry",
            "pbrMetallicRoughness" : {}
        }
    ],
    "meshes" : [
        {
            "name" : "Curve",
            "primitives" : [
                {
                    "attributes" : {
                        "POSITION" : 0,
                        "NORMAL" : 1,
                        "TEXCOORD_0" : 2
                    },
                    "indices" : 3,
                    "material" : 0
                }
            ]
        }
    ],
    "accessors" : [
        {
            "bufferView" : 0,
            "componentType" : 5126,
            "count" : 1900,
            "max" : [
                0.3651081323623657,
                0.009426165372133255,
                0.10286803543567657
            ],
            "min" : [
                -0.3537265360355377,
                -0.009426167234778404,
                -0.0840967446565628
            ],
            "type" : "VEC3"
        },
        {
            "bufferView" : 1,
            "componentType" : 5126,
            "count" : 1900,
            "type" : "VEC3"
        },
        {
            "bufferView" : 2,
            "componentType" : 5126,
            "count" : 1900,
            "type" : "VEC2"
        },
        {
            "bufferView" : 3,
            "componentType" : 5123,
            "count" : 2940,
            "type" : "SCALAR"
        }
    ],
    "bufferViews" : [
        {
            "buffer" : 0,
            "byteLength" : 22800,
            "byteOffset" : 0
        },
        {
            "buffer" : 0,
            "byteLength" : 22800,
            "byteOffset" : 22800
        },
        {
            "buffer" : 0,
            "byteLength" : 15200,
            "byteOffset" : 45600
        },
        {
            "buffer" : 0,
            "byteLength" : 5880,
            "byteOffset" : 60800
        }
    ],
    "buffers" : [
        {
            "byteLength" : 66680,
            "uri" : "data:application/octet-stream;base64,"
        }
    ]
}
